<svg xmlns="http://www.w3.org/2000/svg" width="224.225" height="312.808"><g style="display:inline" transform="translate(-259.93475,-369.7772) translate(-6220.7246,3117.0866)"><rect ry="10.63" rx="10.63" style="display:inline;fill:#fff;fill-opacity:1;stroke:#000;stroke-width:.99673343;stroke-miterlimit:4;stroke-dasharray:none;stroke-opacity:1" width="223.228" height="311.811" x="6481.158" y="-2746.811"/><g style="fill:#d40000;fill-opacity:1"><path style="fill:#d40000;fill-opacity:1" d="M3105.296-2458.422c32.952-32.158 54.594-67.22 75.29-100.94 18.15 37.103 44.197 69.562 72.365 100.94-30.137 31.118-53.494 64.393-72.274 99.374-20.819-35.859-42.736-68.33-75.381-99.374zm0 654.692c32.952-32.158 54.594-67.22 75.29-100.94 18.15 37.103 44.197 69.562 72.365 100.94-30.138 31.118-53.495 64.393-72.274 99.374-20.819-35.859-42.736-68.33-75.381-99.374zm0-327.626c32.952-32.158 54.594-67.22 75.29-100.939 18.15 37.102 44.197 69.561 72.365 100.94-30.138 31.117-53.495 64.392-72.274 99.373-20.819-35.858-42.736-68.33-75.381-99.374zm355.319 309.858c13.498-13.173 22.363-27.536 30.842-41.35 7.435 15.2 18.105 28.496 29.643 41.35-12.345 12.747-21.913 26.378-29.606 40.708-8.529-14.69-17.507-27.991-30.88-40.708zm-621.091-618.517c13.499-13.173 22.364-27.536 30.842-41.349 7.435 15.199 18.105 28.495 29.644 41.35-12.346 12.746-21.914 26.377-29.607 40.707-8.528-14.69-17.506-27.991-30.879-40.708z" transform="matrix(0.30106207,0,0,0.30106207,5635.595,-1948.9541)"/><path style="display:inline;fill:#d40000;fill-opacity:1" d="m2836.664-2519.89 8.46-6.112c7.354 11.737 15.563 19.474 28.119 18.143 18.845-1.267 26.648-20.66 22.703-35.284-3.809-13.103-19.417-19.496-31.815-12.499-2.923 1.65-6.305 3.688-6.305 3.688l-4.414-7.194 29.11-33.863h-31.59v14.015h-12.122v-25.127h61.746v8.528s-16.538 16.837-22.013 26.066c13.47.49 24.323 8.865 28.208 22.116 2.28 6.97 1.255 22.922-1.716 29.788-4.962 11.463-18.548 20.76-30.963 21.296-20.828 1.376-31.893-12.96-37.408-23.562zm685.341 775.202-8.461 6.111c-7.354-11.737-15.563-19.474-28.118-18.143-18.845 1.267-26.649 20.66-22.704 35.285 3.81 13.103 19.417 19.495 31.815 12.498 2.924-1.65 6.306-3.375 6.306-3.375l5.226 6.756-29.922 33.989h31.59v-14.016h12.121v25.127h-61.746v-8.528s16.539-16.837 22.013-26.066c-13.469-.49-24.323-8.865-28.208-22.116-2.28-6.97-1.255-22.922 1.717-29.788 4.961-11.463 18.548-20.76 30.962-21.296 20.828-1.376 31.893 12.96 37.409 23.562z" transform="matrix(0.30106207,0,0,0.30106207,5635.595,-1948.9541)"/></g></g></svg>