<svg xmlns="http://www.w3.org/2000/svg" width="224.225" height="312.808"><g style="display:inline" transform="translate(-259.93469,-369.7772) translate(-6667.1812,3117.0866)"><rect ry="10.63" rx="10.63" style="display:inline;fill:#fff;fill-opacity:1;stroke:#000;stroke-width:.99673343;stroke-miterlimit:4;stroke-dasharray:none;stroke-opacity:1" width="223.228" height="311.811" x="6927.614" y="-2746.811"/><g style="fill:#d40000;fill-opacity:1"><path style="fill:#d40000;fill-opacity:1" d="M4646.588-2464.922c32.953-32.158 54.594-67.22 75.29-100.94 18.151 37.103 44.197 69.562 72.365 100.94-30.137 31.118-53.494 64.393-72.274 99.374-20.818-35.859-42.736-68.33-75.38-99.374zm0 653.192c32.953-32.158 54.594-67.22 75.29-100.939 18.151 37.102 44.197 69.561 72.365 100.94-30.137 31.117-53.494 64.392-72.274 99.373-20.818-35.858-42.736-68.33-75.38-99.374zm367.636-653.192c32.953-32.158 54.594-67.22 75.29-100.94 18.151 37.103 44.197 69.562 72.365 100.94-30.137 31.118-53.494 64.393-72.274 99.374-20.818-35.859-42.736-68.33-75.38-99.374zm-183.493 329.707c32.952-32.158 54.594-67.22 75.29-100.94 18.15 37.103 44.197 69.562 72.365 100.94-30.137 31.118-53.494 64.393-72.274 99.374-20.819-35.859-42.736-68.33-75.38-99.374zm183.493 323.485c32.953-32.158 54.594-67.22 75.29-100.939 18.151 37.102 44.197 69.561 72.365 100.94-30.137 31.117-53.494 64.392-72.274 99.373-20.818-35.858-42.736-68.33-75.38-99.374zm170.156-14.962c13.498-13.173 22.363-27.536 30.841-41.349 7.436 15.199 18.105 28.495 29.644 41.35-12.346 12.747-21.914 26.377-29.607 40.707-8.528-14.69-17.506-27.99-30.879-40.708zm-620.164-617.34c13.498-13.173 22.363-27.536 30.842-41.349 7.435 15.199 18.105 28.496 29.643 41.35-12.345 12.747-21.913 26.378-29.606 40.707-8.528-14.689-17.507-27.99-30.88-40.708z" transform="matrix(0.30106207,0,0,0.30106207,5562.5812,-1947.8121)"/><path style="display:inline;fill:#d40000;fill-opacity:1" d="m4561.226-2529.25 10.696-.094c2.034 6.458 6.55 13.042 12.678 14.86 17.312 4.064 28.458-5.605 32.128-16.763 4.452-13.53-.1-32.537-12.016-39.287-9.883-5.6-24.562-.877-31.296 11.09l-7.497-4.584 4.024-44.581h48.928v10.535h-39.652l-.622 18.572c8.52-5.986 21.65-5.928 30.178-1.727 16.159 7.702 23.663 25.22 20.518 45.873-4.353 20.538-13.942 32.174-35.599 33.846-24.064.208-32.564-16.335-32.468-27.74zm687.134 786.335-10.695.094c-2.035-6.458-6.55-13.041-12.679-14.86-17.311-4.064-28.457 5.606-32.128 16.764-4.451 13.53.1 32.536 12.016 39.286 9.884 5.6 24.563.877 31.296-11.089l7.498 4.583-4.024 44.582h-48.929v-10.536h39.652l.622-18.571c-8.52 5.985-21.65 5.927-30.177 1.726-16.16-7.702-23.663-25.22-20.519-45.872 4.353-20.538 13.942-32.175 35.6-33.847 24.063-.208 32.563 16.336 32.467 27.74z" transform="matrix(0.30106207,0,0,0.30106207,5562.5812,-1947.8121)"/></g></g></svg>