<svg xmlns="http://www.w3.org/2000/svg" width="224.218" height="312.801"><g style="display:inline"><g style="display:inline" transform="translate(-259.93806,-369.78057) translate(-714.31152,-219.67593) translate(-5059.9561,3024.9515)"><rect ry="10.63" rx="10.63" style="display:inline;fill:#fff;fill-opacity:1;stroke:#000;stroke-width:.99000001;stroke-miterlimit:3.79999995;stroke-dasharray:none;stroke-opacity:1" width="223.228" height="311.811" x="6034.701" y="-2435"/><path style="display:inline;fill:#000;fill-opacity:1" d="M1984.51-1353.898c7.083-36.836 14.645-64.473 34.479-94.492h-40.307v12.922h-10.714v-24.35h58.972l7.27 11.428c-21.064 22.577-40.351 95.556-36.934 94.492zm659.478 726.728c-7.082 36.835-14.645 64.472-34.478 94.49h40.306v-12.92h10.714v24.35h-58.972l-7.269-11.43c21.064-22.576 40.35-95.555 36.934-94.49z" transform="matrix(0.30106207,0,0,0.30106207,5449.5822,-1980.8821)"/></g><path d="M1027.84 659.956c.016-2.026-1.586-2.064-1.568-.586-.134 7.429-6.416 11.087-10.98 10.219-7.037-1.338-9.282-8.322-9.215-12.435.207-12.697 12.988-22.059 24.52-38.335 8.45 14.69 22.397 26.23 23.223 37.586 1.098 15.098-18.009 20.73-20.737 3.132-.176-1.243-1.64-1.8-1.526-.065.414 4.823-.175 6.832 5.266 18.72H1022.6c3.15-5.555 5.025-12.375 5.24-18.236zm111.534 0c.015-2.026-1.587-2.064-1.569-.586-.134 7.429-6.417 11.087-10.98 10.219-7.037-1.338-9.282-8.322-9.215-12.435.207-12.697 12.987-22.059 24.52-38.335 8.45 14.69 22.397 26.23 23.223 37.586 1.097 15.098-18.01 20.73-20.737 3.132-.176-1.243-1.64-1.8-1.526-.065.414 4.823-.175 6.832 5.265 18.72h-14.221c3.15-5.555 5.025-12.375 5.24-18.236zm-55.099 50.124c.015-2.025-1.587-2.064-1.569-.586-.134 7.43-6.416 11.087-10.98 10.22-7.037-1.338-9.282-8.323-9.215-12.436.207-12.697 12.988-22.059 24.52-38.335 8.45 14.691 22.397 26.23 23.223 37.586 1.098 15.098-18.009 20.73-20.737 3.133-.176-1.243-1.64-1.801-1.526-.065.414 4.822-.175 6.831 5.266 18.72h-14.222c3.15-5.556 5.025-12.375 5.24-18.237zm55.099 50.124c.015-2.025-1.587-2.064-1.569-.585-.134 7.428-6.417 11.086-10.98 10.218-7.037-1.337-9.282-8.322-9.215-12.435.207-12.696 12.987-22.058 24.52-38.335 8.45 14.691 22.397 26.23 23.223 37.586 1.097 15.098-18.01 20.73-20.737 3.133-.176-1.243-1.64-1.801-1.526-.065.414 4.822-.175 6.831 5.265 18.72h-14.221c3.15-5.556 5.025-12.375 5.24-18.236zm-111.534 0c.016-2.025-1.586-2.064-1.568-.585-.134 7.428-6.416 11.086-10.98 10.218-7.037-1.337-9.282-8.322-9.215-12.435.207-12.696 12.988-22.058 24.52-38.335 8.45 14.691 22.397 26.23 23.223 37.586 1.098 15.098-18.009 20.73-20.737 3.133-.176-1.243-1.64-1.801-1.526-.065.414 4.822-.175 6.831 5.266 18.72H1022.6c3.15-5.556 5.025-12.375 5.24-18.236zm111.544 75.723c.015 2.026-1.586 2.065-1.568.586-.135-7.429-6.417-11.086-10.98-10.219-7.037 1.338-9.283 8.322-9.216 12.436.208 12.696 12.988 22.058 24.52 38.334 8.45-14.69 22.398-26.23 23.224-37.585 1.097-15.098-18.01-20.73-20.737-3.133-.176 1.243-1.64 1.801-1.526.065.414-4.823-.175-6.831 5.265-18.72h-14.221c3.15 5.555 5.025 12.375 5.24 18.236zm-111.532 0c.015 2.026-1.587 2.065-1.569.586-.134-7.429-6.417-11.086-10.98-10.219-7.037 1.338-9.282 8.322-9.215 12.436.207 12.696 12.987 22.058 24.52 38.334 8.45-14.69 22.397-26.23 23.223-37.585 1.098-15.098-18.01-20.73-20.737-3.133-.176 1.243-1.64 1.801-1.526.065.414-4.823-.175-6.831 5.265-18.72h-14.221c3.15 5.555 5.025 12.375 5.24 18.236zm-36.034-174.959c.01-.872-.895-.465-1.018-.19-1.163 1.985-2.865 2.447-4.548 1.731-1.667-.709-2.604-2.28-2.454-4.522.31-3.438 3.036-7.2 4.355-9.326a69.036 69.036 0 0 0 4.077-7.154c1.697 3.363 2.559 4.32 4.405 7.391 1.626 2.705 3.893 5.353 4.068 8.623 0 2.485-1.046 4.831-3.4 5.259-1.331.242-2.578-.442-3.504-2.037-.281-.406-.848-.194-.839.362.165 2.093.956 3.983 2.83 6.212h-6.887c1.41-1.576 2.848-3.704 2.915-6.35zm188.815 172.745c.01.872-.895.465-1.018.19-1.163-1.985-2.865-2.447-4.548-1.731-1.667.709-2.604 2.28-2.454 4.522.31 3.438 3.036 7.2 4.355 9.326a69.037 69.037 0 0 1 4.077 7.154c1.697-3.363 2.559-4.32 4.405-7.391 1.626-2.705 3.893-5.353 4.068-8.623 0-2.484-1.046-4.831-3.4-5.259-1.331-.242-2.578.442-3.503 2.037-.282.406-.85.195-.84-.362.166-2.093.956-3.983 2.83-6.212h-6.887c1.41 1.576 2.849 3.704 2.915 6.35z" style="display:inline;fill:#000;fill-opacity:1" transform="translate(-259.93806,-369.78057) translate(-714.31152,-219.67593)"/></g></svg>