<svg xmlns="http://www.w3.org/2000/svg" width="224.225" height="312.808"><g style="display:inline" transform="translate(-259.93472,-369.7772) translate(-5774.2676,3117.0866)"><rect y="-2746.811" x="6034.701" height="311.811" width="223.228" style="display:inline;fill:#fff;fill-opacity:1;stroke:#000;stroke-width:.99673343;stroke-miterlimit:4;stroke-dasharray:none;stroke-opacity:1" rx="10.63" ry="10.63"/><g style="fill:#d40000;fill-opacity:1"><path style="fill:#d40000;fill-opacity:1" d="M1306.38-2134.652c32.953-32.158 54.594-67.22 75.291-100.94 18.15 37.103 44.197 69.562 72.365 100.94-30.138 31.118-53.495 64.393-72.275 99.374-20.818-35.859-42.735-68.33-75.38-99.374zm355.362 308.91c13.499-13.173 22.364-27.536 30.842-41.349 7.435 15.2 18.105 28.496 29.644 41.35-12.346 12.747-21.914 26.378-29.607 40.707-8.528-14.689-17.506-27.99-30.88-40.708zm-625.718-616.773c13.499-13.173 22.364-27.536 30.842-41.349 7.435 15.199 18.105 28.495 29.644 41.35-12.346 12.746-21.914 26.377-29.607 40.707-8.528-14.69-17.506-27.991-30.879-40.708z" transform="matrix(0.30106207,0,0,0.30106207,5730.6419,-1948.1116)"/><path style="display:inline;fill:#d40000;fill-opacity:1" d="M1033.986-2499.928v-9.092h8.839l18.814-97.227h10.705l20.736 97.227h7.134v9.092h-24.307v-9.092h6.566l-2.616-14.9h-24.531l-1.894 14.9h6.566v9.092zm43.772-34.598-10.657-52.05-9.987 52.05zm649.632 764.279v9.091h-8.838l-18.814 97.227h-10.705l-20.736-97.227h-7.134v-9.091h24.307v9.091h-6.566l2.616 14.9h24.531l1.894-14.9h-6.566v-9.091zm-43.771 34.598 10.657 52.05 9.987-52.05z" transform="matrix(0.30106207,0,0,0.30106207,5730.6419,-1948.1116)"/></g></g></svg>