<svg xmlns="http://www.w3.org/2000/svg" xmlns:xlink="http://www.w3.org/1999/xlink" width="223.228" height="311.811"><defs><pattern patternTransform="matrix(-0.11059956,0.11059956,-0.11059956,-0.11059956,-254.02376,74.426221)" id="b" xlink:href="#a"/><pattern id="a" patternTransform="translate(-254.02376,74.426221)" height="110.741" width="108.618" patternUnits="userSpaceOnUse"><path style="fill:#131f67;fill-opacity:1;stroke:none" d="m-1016.046 25.72-10.764 16.121 7.177 18.006-18.658-5.255-14.907 12.39-.767-19.369-16.39-10.349 18.184-6.714 4.777-18.786 12.005 15.218z" transform="translate(1070.3552,-11.763587)"/><path transform="matrix(0.8660254,0.5,-0.5,0.8660254,946.33909,568.72784)" d="m-1016.046 25.72-10.764 16.121 7.177 18.006-18.658-5.255-14.907 12.39-.767-19.369-16.39-10.349 18.184-6.714 4.777-18.786 12.005 15.218z" style="fill:#131f67;fill-opacity:1;stroke:none"/><path transform="translate(1124.6644,-11.763587)" style="fill:#131f67;fill-opacity:1;stroke:none" d="m-1016.046 25.72-10.764 16.121 7.177 18.006-18.658-5.255-14.907 12.39-.767-19.369-16.39-10.349 18.184-6.714 4.777-18.786 12.005 15.218z"/><path transform="matrix(0.8660254,0.5,-0.5,0.8660254,1000.6483,568.72784)" d="m-1016.046 25.72-10.764 16.121 7.177 18.006-18.658-5.255-14.907 12.39-.767-19.369-16.39-10.349 18.184-6.714 4.777-18.786 12.005 15.218z" style="fill:#131f67;fill-opacity:1;stroke:none"/></pattern></defs><g transform="translate(-260.43307,-370.27557) translate(520.04751,-131.04053)" style="display:inline"><rect style="fill:#fff;stroke:#000;stroke-width:1;stroke-opacity:1" width="222.228" height="310.811" x="-259.114" y="501.816" ry="10.63" rx="10.63"/><rect style="fill:none;stroke:#131f67;stroke-width:4.95238304;stroke-linecap:round;stroke-linejoin:miter;stroke-miterlimit:4;stroke-dasharray:none;stroke-opacity:1" width="197.052" height="286.644" x="-246.526" y="513.9" ry="0"/><path style="fill:url(#b);fill-opacity:1;stroke:#131f67;stroke-width:1;stroke-linecap:round;stroke-linejoin:miter;stroke-miterlimit:4;stroke-dasharray:none;stroke-opacity:1" d="M-242.139 517.769h188.277v278.906h-188.277z"/></g></svg>