<svg width="224.23" height="312.81" xmlns="http://www.w3.org/2000/svg"><g transform="translate(-259.93 -369.78) matrix(.9339 0 0 .92304 -1644.3 -291.15) matrix(1.0714 0 0 1.0701 -1853.2 1127.6)"><rect x="3634.2" y="-382.75" width="222.23" height="310.81" rx="10.63" ry="10.63" fill="#fff"/><path d="M3651.4-332.94c-4.291 5.465-8.883 8.61-8.96 12.873-.025 1.38.811 3.727 3.43 4.176 1.698.29 4.037-.938 4.086-3.432-.01-.496.588-.483.583.197-.08 1.967-.778 4.258-1.95 6.122h5.622c-1.172-1.864-1.87-4.155-1.95-6.122-.01-.68.59-.693.583-.197.05 2.495 2.388 3.722 4.087 3.432 2.618-.449 3.454-2.795 3.428-4.176-.077-4.263-4.668-7.408-8.959-12.873zm187.9 211.19c-4.291-5.465-8.883-8.61-8.96-12.873-.025-1.38.811-3.727 3.43-4.176 1.698-.29 4.037.938 4.086 3.432-.01.496.588.483.583-.197-.08-1.967-.778-4.258-1.95-6.122h5.622c-1.172 1.864-1.87 4.155-1.95 6.122-.01.68.59.693.583.197.05-2.494 2.388-3.722 4.087-3.432 2.618.449 3.454 2.796 3.428 4.176-.077 4.263-4.668 7.408-8.959 12.873zm-187.1-217.94h3.305l-4.855-12.146-3.71 5.13.026 7.016h2.605v3.618h-9.18v-3.618h3.025v-26.121l-3.025.012v-3.162h9.315v3.269h-2.57l-.056 12.73 8.131-12.837h-2.87v-3.162h9.91v3.162h-2.615l-6.695 10.49 6.555 15.624h2.91l.015 3.618h-10.19l-.031-3.623zM3838.5-115h-3.305l4.855 12.146 3.71-5.13-.027-7.016h-2.605v-3.618h9.18V-115h-3.024v26.121l3.025-.012v3.163h-9.315v-3.27h2.57l.056-12.73-8.131 12.837h2.87v3.163h-9.91v-3.163h2.615l6.694-10.49-6.554-15.624h-2.91l-.015-3.618h10.19l.031 3.623z"/><path d="M3663.7-358.92h163.27v263.16H3663.7zm115.88 261.48c-6.07-11.071-15.668-29.105-15.952-29.248-3.549 1.9-39.73 6.772-57.133 2.055-5.952 8.992-11.796 17.898-16.978 26.812zm-55.567-33.113c-.91.035-1.925.578-1.738.093.108-.28.365-3.12.478-4.135.272-.452.655.732.611 1.832-.025.631.277.18 2.337.29 2.23.117 4.055.537 4.811.701 2.636.573 7.735.162 9.92-1.436 1.183-.865 1.63.069.411.997-5.507 4.193-9.873 2.594-14.657 1.892-.95-.202-1.31-.267-2.173-.234zm2.341-3.978c-.342-.224-.567-.247-1.005-.042-1.69.793-1.248-.344-.031-1.49.556-.522.54-.789.118-1.338-.214-.279-.57-.313-.486-.73.366-1.797 2.877-4.515 5.683-5.73 1.168-.505 1.352.048-.124.92-2.27 1.34-3.005 2.484-1.72 2.018 2.49-.902 4.76-.265 7.946 1.331.91.456 1.327.546 2.101.463.573-.477 1.085.096 1.44.396.223.18.27.266.524.206 1.813-.428.726.733-1.751 2.55-4.438 3.15-9.279 4.635-12.695 1.446zm6.828.775c1.814-.55 4.026-1.696 5.382-2.892 1.65-1.454.717-1.233-1.178-.316-2.742 1.326-4.662 1.71-7.747 1.638-2.583-.06-2.502-.164-2.596.159-.33 1.134 3.224 2.293 6.14 1.41zm-5.01-4.43c.147-.489.26-1.14.128-1.351-.239-.383-.752-.1-1.405.728-.404.513-.349.582.047.987.2.135.352.236.471.306.551.236.64-.278.76-.67zm1.129.67c.794-2.714 2.572-2.662 3.84-.065l.895.005c-1.84-5.052-5.4-2.494-5.519.02.42.14.784.04.784.04zm6.642-.458c.84-.47.716-.79-.353-1.343-.76-.393-1.162-.473-1.3-.219.01.56.033 1.361.355 1.805.335.204.796.003 1.298-.243zm-11.767-7.729c-.154-.255-.127-.721.457-.993 3.601-1.673.977-5.204-1.802-2.556-.882.726-2.193 1.064-3.205.631-.953-.416-.97-1.585.294-1.834.416-.082 1.48-.309 1.874-.583 4.832-2.595 7.399 3.048 3.97 4.926-.705.413-1.452.644-1.588.41zm-13.538-5.124c-1.961-.892-2.23-3.988-.392-5.194 1.17-.803 2.366-1.022 5.59.578 2.275 1.13 3.578-.087 3.52 1.229-.036.8-.083 1.606-1.407 1.799-2.151.313-3.62-2.616-6.382-2.34-1.994.2-1.741 2.592-.301 3.078 1.92.648.756 1.416-.628.85zm35.911.465c-.265 0-.368-.706-.222-1.058.967-2.338 1.882-4.187 2.77-6.373.71-1.74 1.185-2.49 1.503-2.487.325.002.475.256-.068 1.329-.738 1.942-3.321 7.421-3.742 8.43-.064.156-.145.16-.24.159zm-15.952-.62c-.867-.62-.721-1.54.266-.843 1.269.895 3.349-.743 2.925-2.289-.513-1.868-2.986-2.32-5.057-.647-3.267 2.64-6.85 2.773-6.85.71.01-.59-.077-.724 1.282-.816 1.58-.107 3.364-.833 4.25-1.375 3.974-2.43 8.201-.753 7.326 3.303-.395 1.912-2.732 2.839-4.142 1.957zm-14.57-5.985c-.323-.01-.913.316-1.082.19-.33-.248-.283-.968-.555-1.738-.483-1.367-.012-.94.838-.57 1.154.447 2.247.36 3.22.022 1.004-.35 2.321-.27 4.43.006 1.696.222 2.648.157 4.188-.284 1.67-.526 1.228-.337.95.698-.182.678-.41 1.588-.623 1.807-1.154-.65-2.031-.398-2.79.044-1.248.55-2.132.646-3.153.339-.961-.55-1.531-.504-2.303-.03-1.33.646-1.92-.422-3.12-.484zm24.912-2.842c.234-.413.574-.98.894-1.618 2.581-5.146 2.757-6.577.935-8.31-2.448-2.33-4.535-1.32-6.88 3.332-.57 1.13-.91 1.978-1.14 2.327-.266.401-.575.092-.728-.065-.29-.295 2.314-5.234 3.334-6.312 2.67-2.821 7.633-.564 7.317 3.273-.16 1.933-.526 2.992-2.286 6.535-.436.877-.814 1.62-1.045 1.979-.826.555-.637-.72-.4-1.14zm-24.329-.205c.408-1.833 6.26-2.68 7.803-.277.15.234.062.225-.6.043-2.976-.988-3.566-.934-6.417.197-.429.166-.734.235-.786.037zm22.332-.348c0-.172.218-.85.548-1.505 1.952-3.872 2.49-4.806 1.895-5.53-1.16-1.41-2.718-.185-4.15 3.859-.535 1.511-.9 1.189-1.16.95-.5-.457 1.713-5.161 2.78-5.863 2.42-1.544 4.324.244 3.255 3.403-.835 1.426-1.523 3.621-2.302 4.776-.37.518-.869.364-.866-.09zm-8.752-6.289c-.117-.195.111-.457.95-2.26 1.151-2.48 1.509-3.398 1.04-4.813-.834-2.522-3.98-3.14-5.89-1.486-.626.534-1.05 1.274-1.345 1.938-.69 1.537-1.266 3.525-1.675 3.942-.358.362-.857.435-.824-.196.454-1.338.669-2.376 1.743-4.338 2.677-5.841 10.396-3.136 8.589 3.013-.672 2.232-1.444 3.922-1.901 4.471-.254.306-.676.04-.687-.27zm-1.79-1.073c0-.192.29-.74.597-1.503 1.305-3.241 1.314-4.235-.589-4.276-1.138.147-1.307.615-2.306 3.172-.324.83-.503 1.423-.696 1.676-.207.272-.595.11-.754-.052-.408-.418 1.373-4.612 2.314-5.403 2.166-1.892 4.971.795 3.657 3.207-.616 1.687-1.147 2.83-1.508 3.352-.32.461-.72.396-.716-.172zm-46.094-37.792-6.577-.453c1.165 7.068 1.225 14.847.047 20.364-1.006 4.717-1.018 8.192-.717 12.281.35 4.758 2.354 8.793 2.859 13.844.365 3.66-.44 7.48-1.16 11.118-1.203 6.08-.955 6.716-.778 13.851.164 6.615-.45 6.378-.828 5.992-.057-.059-.11-1.228-.101-2.62.01-1.391-.077-4.794-.156-7.156-.158-4.718.364-8.889.743-10.605.77-3.493 1.635-7.07 1.102-10.937-1.083-4.879-2.609-9.751-3.144-14.454-.66-5.799.963-11.617 1.499-15.828.518-4.066-.031-11.1-1.09-14.028-.183-.974-1.05-2.244-1.05-2.244-1.027-.127-2.446-.202-3.377-.274-.078 27.925-.001 55.861.02 83.789l6.134 5.723 6.301-6.025zm.443 32.033s9.358 5.418 19.676 10.742c-.983-6.092 2.133-7.01 5.059-7.717-.7-11.768 10.02-9.354 11.663.87l1.056.005c1.858-5.098 3.695-8.617 7.925-9.456 3.278-.65 6.511 1.437 7.33 6.354-.144-.345 10.87-6.5 11.174 6.504 5.001-3.123 8.57-.425 10.013 3.54 2.111-3.237 7.397-3.379 9.087-3.614-.092-.734 6.147-1.945 8.94-.981 3.411-.446 4.828 2.315 6.52 3.09 3.553-1.006 13.054-4.366 12.247-6.09.093.06.502.592 1.118.84.22.09 2.237-1.126 2.237-1.126-13.674-15.844-24.863-46.92-17.436-75.538-1.06-.943.964-.165.489-.036 0 0-2.606 12.747-2.294 18.25 30.624 14.665 26.857 45.562 19.024 55.752l1.241 1.663c.55.37 24.12-13.453 23.342-14.02l4.46-2.234-.722-60.408-17.64-1.356s.189-.508.412-.64c.161-3.687-.167-9.142.01-13.707.069-13.047.199-17.484.03-17.845-5.44-3.603-13.551-8.872-20.378-11.426.28.08-.111 5.406-.32 5.71-6.387 2.05-3.422 4.67-5.782 7.484-1.586 1.753-5.298 2.087-7.09-.016-2.141-2.084-3.146-6.866-3.146-6.866-3.378 3.635-2.685 8.025-7.21 9.678-7.273 3.628-9.582-7.22-9.159-6.969-2.787 2.703-10.608 4.9-11.453-6.51-3.516 3.255-7.458 1.64-9.13-2.367-2.146.076-4.553 1.767-6.725 2.682-2.016.897-4.595 1.424-6.51 1.384-2.394.291-4.366.28-6.524-.366-1.013.331-3.299-.659-4.004-2.077-1.08-1.275-2.02-1.35-3.046-1.12-3.494 1.852-7.24 2.299-11.365 4.237-.257.18.363.518.154.452-.088-.028-2.167 1.026-2.167 1.026 20.893 27.627 22.03 55.521 17.65 75.29-.171.685-.266 1.183.185 1.722-.662-.115-.673.08-.797-.347.437-5.968 2.25-8.563 2.203-18.135-7.495-4.098-15.98-10.117-19.613-17.548-8.006-12.533-5.365-27.488.632-39.337l-1.492-1.558c-17.512 8.824-27.85 18.339-27.85 18.339l.074 59.276 17.996 2.087zm-8.682-39.583c-.577-.641-2.046-.754-2.659-.266-.14.12-.443.748-.532.725-.42-.378-.85-.404-1.488-1.072l.865-1.316c.685-1.04 1.672-1.41 3.336-1.801.59-.14 1.481-.266 1.796-.4 1.25-.544 1.686-1.72.42-1.193-.925.255-2.217.17-2.389-.68-.14-.698-.732-.972-1.392-.89-1.22.295-2.333.935-3.412 1.58-.479.29-1.387.947-1.387.947-.143.226-.671-1.421-.179-1.903.612.075 1.138.08 1.734-.158 1.488-.597 2.92-1.316 4.422-1.893.956-.378 1.044-.346.792-1.029-.124-.251-.234-1.088-.07-1.525.175-.466.155-.7-.142-.899-.675-.453-2.296-.03-4.575 1.07-.693.336-1.151.47-1.59.827.283-.726.118-.86.111-1.619.93.117 1.768-.254 2.51-.648.613-.322 1.3-.64 2.984-.856.46-.06.25-1.752-.274-2.243-.495-.464-1.536-.474-2.795-.1-1.125.26-2.523.523-3.297 1.739.743-2.054.187-1.252 1.803-2.527.78-.016 2.501-.388 2.906-.478.687-.152.797-1.774-.2-2.468-.626-.549 2.27-.563 2.214-.396-.037.096-.064.789.158.965 1.247.378 1.236 1.404 1.345 1.836 1.432 2.364 2.137.88 3.123.066-.208 5.15 1.582 5.735 1.82 6.061-2.46 4.614-.605 4.728 1.7 5.789 0 0-.876.358-1.46.321-.917-.056-2.673 1.038-3.44 1.682-.424.356-.437.06-2.13.01-1.597-.046-1.714.073-2.441.398-1.436.64-1.428 1.243-.026 1.005 1.493-.254 2.957.659 3.129 1.902.118.235.013.254-.011.24-.311-.058-1.015.06-1.004-.09.01-.15 0-.317-.276-.712zm2.18-6.24c.405-.26.475-1 .122-1.3-.32-.273-1.684-.127-2.07.22-.87.69.722 1.844 1.948 1.08zm.873-3.1c.501-.393.563-1.339.128-1.888-.736-.93-2.66-.373-2.765.801-.11 1.25 1.59 1.91 2.637 1.087zm-.626-4.253c.091-1.027-.92-1.677-1.85-1.19-1.157.606-.454 1.885.996 1.81.803-.042.803-.042.854-.62zm-3.389-4.167c-.54.267-.568.907-.056 1.32 2.031 1.128 1.413-1.894.056-1.32zm141.86 6.138c-.892-3.306-3.35-.028-3.353.018-.087-3.388.55-4.896-1.975-6.053 2.534-3.862 2.005-4.395-.681-5.876.247.021 3.566-.727 4.134-2.635.126.09 5.209 1.35 5.843-1.442-1.534.703-4.55.808-4.584-2.193.285-.086 1 .062.94.158-.401 1.924 3.084 2.4 3.654.88 0 0 1.17.79 1.685.911.057.039-1.585 2.33-3.082 2.677-2.7.899-3.632 1.142-3.635 1.681 0 .21.44.244 1.243.409 1.677.116 1.642.478 1.861 1.037.195.495.384.594.943.544 1.916-.64 2.874-.977 4.208-2.32.163-.032.351 1.412.455 1.461.016-.23-1.356.172-3.46 1.411-1.72 1.012-2.392 1.159-2.61 1.432-.162.203.255.841.3 1.534.036.583-.353.865-.067 1.047.33.21.843.172 1.517-.004 1.485-.36 2.579-.948 3.914-1.778-.284.54.191 1.911.191 1.911s-.659-.466-1.201-.224c-1.236.608-2.46 1.187-3.997 1.508-.212.181-.177.618-.18 1.258 0 .45-.131.864.15 1 2.103.258 3.362-.242 4.87-1.187l-.363 1.896c-.486-.552-1.882-.146-2.817.225-.471.15-.612.448-.732.861-.209.708.238 1.195.753 1.428.343.154.87.091.87.091-1.548.98-1.567 1.292-3.352.566-.61-.666-1.21-1.368-1.442-2.231zm2.534.001c-.401-.467-1.101-.735-1.508-.55-.363.194-.233.6-.117.91.306.857 2.434.58 1.625-.36zm-1.413-2.363c.568-.749-.057-1.756-1.105-1.763-.73-.005-1.118.453-1.11 1.027.015 1.087 1.741 1.361 2.215.736zm-1.165-2.853c1.051-.288 1.374-1.314.647-2.058-.516-.529-2.139-.595-2.573-.116-1.107 1.221.134 2.664 1.926 2.174zm.874-3.754c.618-.317.737-.847.191-1.449-.99-.848-2.718-.187-2.16 1.05.274.606 1.217.786 1.97.4zm-126.57-28.487c.93-.34 1.6-1.065 2.577-1.621.66-.363.46-.305-.383-.801-.664-.307-1.993-1.662-2.118-1.34-.3.578-.258 3.736-.076 3.762zm23.578 30.747c.126-1.356-.116-.96-.846-.517-.54.35-1.406.883-1.745 1.054-1.34.672-1.18.707.706 1.62 1.266.57 1.633.64 1.743.402.131-.842.123-1.76.142-2.559zm-1.934-.848c1.28-.812 1.704-1.23 1.766-2.14.01-1.048-.114-1.43-1.027-.704-3.114 2.474-6.32-2.38-3.47-5.078.582-.55 1.32-1.41 1.327-1.63.047-1.564-1.703-.045-3.133 2.104-1.583 1.953-2.57 4.397-1.18 6.743 1.11 1.718 3.584 2.057 5.717.705zm-7.076-3.16c-.056-.766.158-1.621.257-1.876.35-.896.335-1.007-1.252-.261-.632.21-1.388.38-1.679.378-1.296-.008-.972.402.885 1.96 1.867 1.566 1.93 1.708 1.79-.2zm4.414-7.5c.198-.471-.213-.653-.607-.564-.03.007-.71.517-1.509 1.15-2.42 1.917-4.195 2.141-5.396.68-1.218-1.48-.709-3.237 2.012-5.248 1.201-.888 1.49-.948.912-1.335-.44-.295-.466-.25-2.192.925-3.477 2.369-4.519 3.987-4.17 6.344.071.968.575 1.475 1.063 1.852 3.316 2.956 7.916-1.12 9.887-3.804zm3.51 1.399-.21-3.262c-7.27-6.44-10.091-15.03-8.11-23.953l-1.91-3.64c-1.663 3.863-2.389 9.755-.58 15.757 1.535 5.096 4.61 11.268 10.811 15.097zm-14.893-1.9c1.124-2.17 1.159-1.936-1.012-1.955-2.477-.021-2.2-.325-.804 1.803 1.121 1.71.933 1.859 1.816.152zm1.488-2.975c1.427-.46 1.101-.355 2.995-1.594 2.173-1.422 2.264-2.2.082-1.104-2.802 1.407-5.262 1.048-6.175-.789-.814-1.636.885-3.677 3.682-4.476.956-.273 1.46-.503 1.462-.924.01-1.284-4.753.429-6.715 2.367-3.787 3.741-.473 8.18 4.669 6.52zm-6.123-5.825c.128-.195.468-.663.783-1.148 1.34-1.568.213-1.1-.978-1.528-.628-.234-1.273-.466-1.642-.41-.713.11.24 1.493.469 2.386.64 1.99.567 1.93 1.368.7zm5.07-3.586c2.401-.236 2.646-.47 2.649-.97 0-.496-.294-.401-1.499-.233-3.191.446-5.304-.37-5.76-2.082-.472-1.767 1.69-3.44 4.57-3.341 1.56.053 2.6-.49 1.65-1.01-.495-.272-4.792-.214-5.764.07-2.855.837-4.019 2.435-3.758 4.647.395 2.73 1.877 3.514 5.491 3.32.692-.037 1.575-.317 2.421-.4zm1.858-8.896c0-.426-.683-.488-2.948-.826-3.018-.451-4.366-3.26-2.547-4.95.69-.64 2.332-.916 3.247-.748 1.99.365 3.206.776 3.225.097 0-.605-.573-.649-4.308-1.442-5.641-1.2-8.739 4.37-4.228 7.095 1.714 1.036 7.553 1.624 7.559.774zm1.398-7.971c0-.214-.181-.378-.609-.546-2.64-.722-6.29-4.266-3.623-6.336 1.206-1.28-.964-2.793-2.694-1.347-1.796 1.501-1.645 3.86.424 5.726 1.905 1.718 6.496 3.505 6.502 2.503zm-9.14-.333c1.96-.926 3.369-.393 1.868-1.67-.842-.786-1.561-3.018-2.147-1.125-.448 1.129-.777 3.12-.79 3.315.132.135.102-.096 1.068-.52zm66.168-10.48c.321-1.417 1.647-4.756 1.907-4.964.986-.786.85.26-.054 2.077-.824 1.855-1.467 3.346-1.212 4.45.363 1.571.995 2.77 2.619 3.17 1.141.28 2.217-.2 2.946-.717.963-.685 1.875-2.44 2.964-4.872.348-.684.815-2.785 1.395-1.503.28.663-2.044 5.076-2.913 6.194-3.805 4.664-8.839.15-7.652-3.835zm16.655 4.2c1.088 1.048 2.927 1.575 4.128 1.2 2.945-1.045 4.284-3.844 3.169-8.345-.565-2.523-1.048-4.092-1.536-4.404-.238-.152-.497.131-.728.482-.206.314.109.754.443 1.941 1.408 5.002 1.04 7.263-.678 8.22-2.493 1.386-4.629-.211-5.352-3.78-.116-.55-.457-1.675-.457-1.675-.191-.496-1.735-.387-1.174 1.275.17 1.285 1.346 4.35 2.185 5.085zm12.637-13.1c-.039-1.76-3.718-9.394-3.968-8.584 0 0-.016 1.785.128 2.487.055.265.245.51.403.793 3.197 5.734 2.703 9.776-.07 10.66-.944.432-1.149.856-.727 1.301.855.934 2.997-.914 3.414-1.584 1.05-1.505.904-4.25.82-5.073zm-53.54-1.298c5.634-7.3 9.971-23.964 10.711-34.51-.197-.214-1.44-.101-1.857.113-.2.262-.066.843-.137 1.6-1.122 8.718-3.193 16.66-6.263 24.745-1.343 3.513-2.59 5.825-4.208 8.268-.283.426-.642.865-.784 1.113-.409.594-.108.982.366.731.842-.479 1.567-1.399 2.172-2.06zm-4.108 2.122c6.221-9.339 9.647-19.412 11.986-36.22-.52-.14-1.488-.053-1.824.208-.206.313-.069.94-.259 2.388-.491 3.746-1.228 7.506-2.47 12.43-3.281 10.896-6.296 16.996-10.256 22.334-.32.45-.605.74-.577.931.042.28.426.257 1.056-.139.822-.65 1.763-1.218 2.343-1.933zm-5.856 2.828c1.88-1.074 5.191-5.747 7.53-10.78 2.625-5.941 4.822-12.653 6.26-18.465.624-2.547 1.511-8.908 1.385-9.327-.12-.309-1.965.06-1.734.26 0 0-1.826 10.226-3.79 15.862-3.647 10.463-6.802 17.562-10.196 20.975-.445.447-1.321 1.322-1.321 1.322s.018.39.301.45c.677.126 1.128-.071 1.565-.297zm-2.878-.417c4.243-2.39 9.212-13.552 13.269-27.568.694-2.398 1.962-10.426 1.962-10.426s-1.69.063-2.017.421c-.328.485-.275 1.72-.749 4.654-1.824 8.865-4.575 16.952-8.71 24.944-1.79 3.541-4.762 6.876-6.638 7.826-1.049.531-1.356 1.116-.588 1.159 1.294.046 1.41.319 2.349-.19zm58.143 124.83c-3.182-.011-5.885 3.065-8.293 6.93-5.122 7.921-8.565 21.158-9.403 28.193l1.932-.367c-.29.134 3.613-18.724 9.558-26.8 3.214-5.094 3.079-5.17 4.883-5.638 2.281-.591 4.111 1.896 2.98 3.395-.41.507-.86.134-.733-.589.405-2.306-2.935-2.75-3.867-.483-1.073 2.606 1.78 4.93 4.567 3.906 2.492-.887 3.535-4.396 1.786-6.989-.899-.877-2.2-1.655-3.41-1.558zm-16.751-.323c-3.81 4.822-5.698 9.776-8.038 16.54-2.337 6.76-4.016 13.37-4.744 20.957l2.055-.267c-.075-4.877 5.229-28.098 12.681-36.796.416-.55.75-1.008.72-1.136-.414-1.174-2.181.24-2.674.702zm8.418-1.8c-4.939 4.077-8.883 12.985-11.484 21.22-2.812 8.9-4.074 17.058-3.863 17.058l1.962-.291c-.146-.517 5.513-31.88 16.012-37.59.91-.458 1.102-.92.334-1.12-1.182-.166-2.132.225-2.962.724zm5.529.02c-10.783 1.431-17.83 34.771-18.065 37.54 0 .042-.04.257-.04.257l2.147-.446.028-.16c1.48-8.518 2.92-14.49 6.28-22.19 2.62-5.706 6.234-13.002 11.634-13.709.439-.057.855.12.701-.395-.329-.817-1.943-.921-2.684-.896zm-64.264-10.499c-3.898 1.01-4.024 5.719-1.429 11.736.196.455.161.703.36.878.443.392.792-.154.841-.514.075-.547-.157-1.283-.569-2.352-1.606-4.165-1.22-6.565.37-7.626 4.076-2.118 5.173 2.23 5.79 4.23.15.488.202 1.158.468 1.195.813.112 1.201-.179 1.19-.179 0 0-1.08-3.744-1.74-5.151-1.064-2.276-3.598-2.753-5.281-2.217zm-28.274 4.446-.04 49.634-7.46 7.066c-3.202-2.768-7.408-7.102-7.408-7.102l.132-83.907-2.4-.194c-.588 36.05-.011 72.829-.04 108.95h21.902c6.104-9.815 12.524-19.466 18.56-29.311.225-.556.199-1.383.089-4.442-.045-1.242.094-2.197-.088-2.488-.184-.295-.574-.085-.937.08-.37.168-.59.108-.391-.332.113-.25.478-.798.794-1.32 1.025-1.697 1.275-2.241.93-4.123-.086-.462-.507-.854-.873-1.4-3.073-4.575-4.324-11.357-2.798-16.324.486-2.196.31-2.641-.74-4.352zm96.564-53.368c-2.006-1.04-1.967-1.016-1.98.95.012 1.471.04 1.827.586 1.628.791-.405 1.758-.777 2.488-1.09 1.393-.483-.377-1.101-1.094-1.488zm7.94 5.112c-1.557-1.254-.982-1.11-1.423 1.717-.266 1.708-.61 1.752 1.141 1.187.994-.347 3.037-.128 2.12-1.305.01.02-1.533-1.338-1.838-1.6zm-67.37 51.918c-8.343 1.003-11.836 9.286-12.21 16.192-.294 5.452-.66 11.817-.115 12.375 5.471-2.483 7.579.383 8.097-.39.237-.337-1.213-1.455-3.034-2.459-.423-.233-1.079-.652-1.327-.86-.664-.555 1.326-.077 2.584.787 1.605 1.103 1.874.873 1.178-2.348-.757-3.502-.88-3.931 1.786-5.32 1.067-.555 1.673-1.027 2.437-1.89.611-.692.768-.86.543.156-.39 1.76-1.942 2.528-3.339 3.242-.695.36-.982 1.084-.986 1.705 0 .633.717 4.056 1.051 5.149.31 1.039.423 2.08.662 3.139.627 2.749.667 3.288.35 5.283-.185 1.17-.28 1.837-.215 2.543.059.643.147 1.517.147 1.517 0-.03-1.49-1.545-4.757-.247-2.356.936-4.217-.04-5.537-.732-.304 1.082-.235 2.258-.198 3.5 13.584 2.508 25.186 2.171 34.954 1.14.158-2.42 1.78-17.147 7.737-30.14.936-1.67 1.881-2.812 2.229-2.988.18-.091.072-.261.112-.404-.034-.542-.164-1.382-.626-1.754-1.127-.907-2.926.261-3.517 2.286-.518 1.213-2.883 6.46-3.051 6.372-.14-.089-.468-.096-.349-.5.905-2.127 2.149-4.376 2.849-6.285.967-2.748 3.07-4.2 4.643-2.466.539.594.755 1.142 1.002 1.33.187.143.438.046.592-.19.593-.901-.781-2.948-2.255-3.36-2.128-.593-3.714.974-6.127 6.056-1.393 2.934-1.642 3.67-1.863 3.445-.049.02-.419.02-.285-.549.287-1.221 2.136-4.771 3.475-7.023 1.983-3.333 5.663-3.603 7.21-.71.237.394.25.91.512 1.261.475.62 1.256.497 1.45-.521-.21-.674-1.505-3.11-2.403-3.533-2.07-1.437-4.582-1.155-6.696.75-.48.433-.98 1.312-2.382 4.186-2.066 4.608-2.12 4.626-2.685 3.883.83-2.241 3.016-5.883 3.898-8.12.168-.333.201-.691.189-1.035-.051-1.625.211-4.498-3.193-6.539-2.902-1.579-6.734.083-8.039 3.191-1 2.381-1.73 4.017-2.233 4.355-.708.474-.576-.187-.506-.426 1.006-2.155 2.421-4.332 2.645-6.501.131-5.267-4.601-7.554-8.342-5.825-3.134 1.328-4.643 5.459-6.06 9.272zm-25.58-118.48c4.596-2.158 7.743-3.244 12.427-4.639.633-.28.733-.344.062-1.687-2.967-5.934 5.175-10.663 7.942-4.84.369.777.454 1.207.818.835 3.5-3.724 9.076-18.015 10.437-27.975-6.18-10.865-17.042-30.779-17.042-30.779h-43.413v87.097c12.094-10.193 20.323-13.88 28.77-18.013zm51.55-8.597c.335-.695.871-1.774 1.09-2.276.282-.918 1.339-1.491.824.152-.117.354-.318.833-.638 1.469-.625 1.136-1.22 2.528-1.665 3.437-2.405 4.869-2.291 7.707.396 9.82 2.008 1.938 6.224 2.157 8.467-.973a9.197 9.197 0 0 0 .733-1.391c.975-2.39 1.694-3.586 1.879-3.823.998-1.28 1.158.306-.333 2.747-1.709 2.797-1.738 5.829-.261 7.961 2.189 3.162 6.347 3.251 8.957.715 1.357-1.606 2.435-3.65 3.303-6.262.193-.579.392-1.009.533-1.348.217-.524.53-.718 1.34-.875 5.556-1.075 10.218-6.835 10.88-13.124.087-.85.327-2.356.414-3.25.175-1.782.178-11.013 0-11.564-.094-.297-.26-.455-.62-.45-.279.003-.671.101-1.236.305-1.831.66-2.684.827-4.444.192-.58-.21-.983-.282-1.222-.261-.776.068.256 1.193 2.519 2.435.97.533 1.736 1.25.95 1.197-.228-.015-2.96-1.44-3.337-1.674-1.244-.771-.92.2-.279 2.752.861 3.429.365 4.391-2.315 5.734-.5.25-1.163.773-1.5 1.11-1.42 2.12-1.054.558-.338-.571 1.222-1.293.473-1.733-2.033-.838-2.859 1.022-4.15.276-4.95-1.329-.904-1.815.797-4.15 2.215-4.104.46.015.377.182-.3.649-.817.563-1.205 1.107-1.29 2.07-.173 1.963 1.217 2.796 3.16 1.48.917-.622 1.64-1.051 2.334-1.21.689-.158 1.723.1 1.72.656 0 .23-.034.792.015.917.182.621 1.167-.259 1.595-.571 1.463-1.105 1.415-1.323 1.016-3.115-.654-2.507-.984-4.8-1.606-7.343-.333-1.332-.39-2.837-.187-4.194.102-.68.364-2.079.417-3.036.053-.958-.01-2.326.029-2.325 1.453 1.122 2.043 1.319 3.461.775 2.194-.908 3.58-.814 5.428.08.684.33 1.307.563 1.307.563l.084-2.88s-1.71-.355-4.873-.775c-9.519-1.263-29.052-1.53-29.78-.369-1.286 7.695-3.035 16.92-5.058 22.872-.355 1.181-.693 1.657-.512 1.693.074.014.427-.443.592-.635.926-1.08.216 1.484-1.182 4.572-.126.278-.23.584-.23.678 0 .186-.88 2.338-1.485 3.64-.377.808-.689 1.052-.685.535.424-1.78 1.547-4.08 1.71-5.666-.985 1.436-2.418 3.806-3.502 5.22-.2.38.012.498.187.969.652 1.757 2.23 1.915 3.142.323.508-.887 2.088-4.23 2.638-5.694.565-1.505.962-2.299 1.15-2.397.379-.198.451.658-.22 2.082-2.033 4.32-2.905 6.742-3.9 7.635-.774.693-2.111.65-2.854-.584-1.26-2.092-2.335-1.4-1.179.745 1.194 2.216 3.922 2.423 5.347.428.47-.66 2.684-4.927 3.38-6.662.388-.969.803-1.723.942-1.777.743-.29-.105 1.923-2.24 6.352-.691 1.71-1.802 3.504-3.306 4.06-3.653.808-4.147-1.144-5.418-3.367-.617-.554-1.177.331-.94 1.309.383 1.586 1.177 2.267 2.31 3.024 2.287 1.526 5.3.422 6.147-.705.847-1.128 1.425-2.036 3.307-5.935zm13.434 14.654c-.331-.74-.284-1.492-.115-2.194a18.1 18.1 0 0 1 1.758-4.45c1.2-.573.284 1.707.134 2.046-1.447 3.047-1.584 4.226-.234 4.578 1.157.3 1.78-.414 2.873-3.146.561-1.402.786-2.023.984-2.103.422-.171.624 0 .6.428-.724 1.794-1.29 3.68-2.478 5.17-1.162.983-2.914.988-3.522-.328zm-10.852-2.34c-5.787-2.071-2.312-8.431-1.139-10.729.197-.382.935-1.867 1.171-2.355.425-.874.842-.532.839.046 0 .163-.635 1.52-1.274 2.779-2.8 5.527-2.704 7.78.017 9.096 2.655 1.283 3.844.545 5.961-3.674 1.225-3.167 1.83-3.22 1.762-2.016 0 .45-1.485 3.486-2.441 4.897-1.345 2.007-2.869 2.68-4.896 1.956zm.2-2.668c-1.041-.651-1.467-2.271-.85-3.598.56-1.094 1.995-5.286 2.67-5.522 1.085-.038.506.88-.838 3.458-1.59 3.415-1.533 4.329-.306 4.851 1.136.484 1.675-.507 3.35-4.502.263-.628.63-1.279.845-1.143.266-.02.729.183-.152 1.993-.209.433-.563 1.34-.955 2.186-1.145 2.472-2.444 3.102-3.763 2.277zm18.817-7.25c-.459-.237-2.609-1.09-2.29-1.797.04-.067.164-.014.228.029 1.968 1.33 4.417 1.669 6.97-.18.43-.381.75-.123.51.357-.773 1.549-4.214 2.21-5.418 1.591zm-6.323-2.245c.059-.149.236-.591.393-1.186.236-.894.181-1.553.39-1.439.892.487 2.487.499 3.268.018.855-.528 2.592-.689 3.224-.273.904.593 1.364.317 1.998-.181.715-.563.728-.322 2.02.13.953.334 1.328.563 1.733.488.156-.028.471-.385.572-.367.31.056.345.945.63 1.96.253.897.11 1.113-.688.575-.592-.4-2.295-.588-4.066-.04-1.312.406-1.614.243-2.577.078-2.4-.409-4.132-.725-5.92.32-.955.558-1.302.848-.977-.083zm-5.97-4.432c-1.162-2.355 1.513-5.472 3.863-4.371.78.365 1.473 1.747.32 1.113-5.347-1.09-4.011 6.814 1.73 2.64 3.816-2.557 6.516-2.953 6.741-.48-.107.91-.906.764-1.513.848-1.581.222-2.166.482-3.999 1.274-2.788.887-5.513 1.612-7.141-1.024zm20.922 1.088c-1.305-.339-2.438-.858-3.798-1.107-1.348-.237-1.956-.947-1.712-1.902.253-.993 1.602-1.098 3.63.152 2.247 1.385 3.877 1.72 4.7 1.198 1.663-1.056.766-2.775-.821-3.215-1.192-.335-.315-.803.966-.417 2.066.79 2.11 4.56-.015 5.343-.711.262-1.965.19-2.95-.052zm-18.211-12.48c1.518-.946 2.984-1.792 3.506-2.358.274-.296 1.036-1.292.445-.988-3.096 1.877-6.69.318-9.294-.966-1.25-.59-.943-.33-1.903-.265-.651.044-1.174.182-1.29-.288-.053-.207-.417-.12-.65-.143-.962-.096-.354-1.382 1.667-2.799 3.673-2.703 9.411-5.183 12.462-1.856.617.599.562.998 1.125.63 1.285-.839 1.296.275.212 1.305-.744.708-.472.9.439 1.574.434.321.078.627-.165 1.095-.092.286-.02.6-.063.817-.203 1.006-4.742 4.562-6.385 5.17-1.13.212-.538-.647-.105-.927zm2.398-6.523c-.858 2.643-2.441 3.544-3.76.375l-.6.061c-.027 2.674 4.513 4.341 5.107-.405-.356.003-.551-.034-.747-.03zm-4.202 2.469c-.311-.527-.66-1.734-.986-1.752-.885-.038-2.108.123-1.818.676.457.876 3.165 1.686 2.804 1.076zm6.065-.472c.815-.495.99-.837.457-1.382-.687-.703-1.046-.344-1.262.78-.185.965-.05 1.122.805.602zm-11.06-1.858c5.464-2.495 7.536-2.818 9.756-2.2.514.143.97.433 1.257.416 1.063-.065.385-1.266-1.523-1.955-2.18-.786-3.561-.428-7.75 1.775-2.453 1.29-4.446 3.199-1.74 1.964zm15.837-3.028c-.078-.15-.409-1.142-.503-1.505-.094-.362-.179-.736-.28-.738-2.536.409-4.765-.07-5.364-.213-3.835-.924-7.54-.736-10.305.357-.676.267-1.513.699-1.594.775-.219.206-.541-.029-.54-.286 0-.302 1.7-1.658 2.77-2.193 3.254-1.626 6.688-1.905 10.458-.88 2.457.95 4.04.796 5.61.102.772-.34.225.502-.02 1.62-.168.774.018 1.436.049 1.874.097 1.057-.023 1.587-.283 1.087zm57.1 222.95v-87.327c-21.781 15.142-31.31 18.152-41.545 21.863 3.908 6.797-4.737 13.319-8.446 5.915-4.452 5.044-10.585 22.71-10.803 28.576 0 0 11.843 20.674 17.621 30.973zm-79.162-28.626c.395-4.394 1.326-11.843 4.226-20.513 1.216-3.637 2.683-7.81 4.756-11.545.828-1.306.885-1.811 0-1.341-.555.295-3.089 3.178-3.433 3.906-3.452 9.59-6.116 16.656-7.526 29.635zm2.843-.361c.925-10.674 4.817-25.086 10.666-34.48.55-.894 1.227-1.67 1.201-1.98-.076-.914-2.327.665-4.075 3.36-1.95 3.901-3.904 8.064-5.399 12.673-2.11 6.506-3.651 12.516-4.251 20.672zm5.62-.891c.586-6.151 2.479-11.794 4.065-17.447 1.94-6.913 4.529-12 7.546-16.581.968-1.47 2.11-2.845 3.196-4.246.138-.168.277-.471.246-.598-.698-.123-1.252.095-1.791.4-.753.425-1.811 1.498-2.43 2.293-4.297 5.53-6.61 11.987-8.756 18.51-2.06 6.265-3.545 12.29-3.835 17.962zm-38.6-4.715c.864-.069 1.421.096 1.672-.136.25-.23.168-.85.246-1.641.168-1.693-.01-1.6-1.054-.507-1.736 1.811-4.903 2.51-6.787 1.415-.95-.553-1.611-.935-1.7-.476-.105.536.04.945.446 1.232 2.282 1.05 4.448.328 7.177.113zm-2.04-1.297c1.202-.403 2.424-1.05 3.111-2.039.656-.943.645-1.078.149-.898-2.444 1.212-4.049 1.828-6.232 1.493-2.957-.454-3.08-.073-1.125 1.161 1.279.808 2.34.832 4.097.283zm-4.34-3.783c.457-.34.574-1.728.205-1.807-.373-.08-.917.61-1.05 1.17-.15.744.397.934.844.637zm4.577-.06.786-.071c-.402-3.48-4.147-3.63-4.838.348l.593.09c.77-3.093 2.88-3.069 3.459-.366zm2.61-.645c.972-.622.541-1.371-.937-1.663-1.014-.24-.958.596-.432 1.731.229.494.4.477.964.164.137-.076.284-.155.404-.232zm-8.96-4.18c-.01-.387-.168-1.013-.35-1.39-1.32-2.728-2.05-5.95-1.9-9.956.108-2.871.143-3.76-.448-3.763-.827.401-1.315 5.743-.263 10.191.742 3.139 3.015 7.034 2.96 4.918zm-.033-4.348c-.08-1.5.247-4.862.084-5.595-.214-.964-.78-1.835-1.1-2.067-.495-.36-.62.33-.448 2.132.403 4.229 1.076 7.43 1.465 5.53zm.418-7.696c.326-.593.2-1.222-.52-2.637-2.83-5.57-3.198-9.376-.24-10.759.33-.154.539-.184.76-.307.932-.522.577-1.468-.818-1.077-3.852 1.08-4.612 4.715-1.364 11.445 1.654 3.358 1.91 3.828 2.182 3.334zm.89-4.489c.04-.187-.35-.723-.767-1.797-1.089-2.804-1.111-3.968.073-4.78.385-.228.78-.239.84-.5.093-.408.086-1.076-.156-1.27-1.699.012-2.484 1.01-2.782 1.962-.31 3.473 1.142 5.88 2.423 8.182.224-.569.301-1.298.37-1.797zm1.11-2.299c.909-1.85.047-4.246-1.204-3.428-.81.53-.852 1.09-.354 2.63.606 1.876.965 2.006 1.558.798zm3.32-5.172c.1-.381-.215-1.035-.765-2.704-.575-1.75-.312-2.945.785-3.291 1.573-.391 2.13 2.203 2.46 3.297.171.844.722 1.077 1.21.49.137-.165.176-.301-.057-1.223-1.015-4.021-2.343-5.3-4.481-4.299-1.983.929-1.723 3.006-.286 7.374.193.585.321 1.018.46 1.079.33-.115.552-.355.674-.723zm1.623-1.142c.47-.468.442-.257-.096-1.935-.613-1.912-.936-2.312-1.595-1.654-.404.404-.2.848.262 2.414.536 1.818.68 1.922 1.428 1.175zm82.175-6.55c3.128-2.175 1.838-6.079-2.28-7.527a16.78 16.78 0 0 1-1.189-.458c-1.891-.918-3.363-1.201-3.368-.484 0 .421.566.634 2.38 1.525 2.682 1.317 3.288 2.84 1.964 4.76-.954 1.382.834 2.967 2.493 2.184zm2.838-4.75c.272-1.117.675-2.075.869-2.725.265-1.018-.077-.781-.746-.623-1.724.902-2.958.412-2.12 1.652.93 1.65 1.698 2.923 1.997 1.695zm-.214-3.903c2.149-1.297 2.625-4.676.626-6.287a7.218 7.218 0 0 0-2.308-1.2c-2.035-.626-4.972-.91-6.049-.582-.231.275-.24.707-.01.833.3.112.842.187 1.624.267 7.57 1.303 4.48 6.908-.73 5.697-1.698-.375-2.489-.194-1.807.206.809.476 2.551 1.1 4.267 1.44 1.468.26 3.141.36 4.386-.374zm-10.314-.556c2.419-5.47 3.693-19.82-10.128-30.194l.457 2.87c8.144 7.19 10.1 16.348 8.412 24.748zm12.34-9.808c-.865.565-1.588 1.152-2.7 1.652-.664.3-.681.373.222.87.437.24 1.157.682 1.433.982.478.52 1.042.719 1.253.53-.022-.814.254-3.506-.208-4.034zm-4.09 1.037c2.8-.891 4.297-2.248 3.978-4.52-.468-3.33-3.233-4.034-8.411-2.732-2.49.626-2.713 1.804-.349 1.197 2.985-.768 5.329.392 5.012 2.594-.185 1.9-1.701 3.006-4.363 3.006-1.406 0-1.84.127-1.65.637.13.347 4.63.185 5.783-.182zm-4.622-7.913c4.576-1.58 6.704-4.037 5.658-6.789-1.23-3.24-5.225-3.273-9.237-.257-1.875 1.383-1.588 1.895.229 1.191 2.354-1.09 3.87-1.258 4.833-.392 1.742 1.565.567 4.295-2.074 5.274-1.279.535-1.69.83-1.692 1.217 0 .613.23.465 2.283-.244zm7.72-.05c.117-.96-.958-4.286-1.423-3.52-.123.203-.55 1.142-1.09 1.63-1.575 1.42-1.277.882.286 1.317.87.242 2.097.858 2.226.572zm-12.104-7.109c4.627-2.701 6.392-6.557 3.995-9.12-2.155-2.303-5.728-.962-9.046 3.227-1.522 1.92-.379 1.679 1.672-.148 2.39-2.127 5.429-1.1 5.412 1.556-.01 1.134-1.6 3.042-3.107 3.928-.467.276-.535.698-.37.972.179.296.554.105 1.444-.415zm8.11-2.818c-.241-.726-1.982-3.842-2.356-3.736-.395.8-.424 1.85-.897 2.698-.645 1.274-.563 1.074 1.491 1.068 1.53-.005 1.715.21 1.762-.03zm-13.598-3.523c3.887-4.064 4.23-8.822.588-9.917-2.017-.607-5.242.862-5.251 2.38-.01.944.17 1.116.987.776 3.434-1.287 6.157 2.04 3.001 5.864-.767 1.108-.87 1.386-.646 1.615.261.267.474.167 1.321-.718zm41.884-34.15v-108.55h-22.766l-18.068 28.68-.027 7.039c0 .243.41.394.676.088 1.027-.8.63.04-.55 1.85-1.194 1.832-.829 3.34.477 5.296 2.767 4.143 4.21 11.749 3.032 15.77-.444 1.519-.543 2.132-.253 2.981.331.971.535 1.49 1.496 2.116.835.586 7.706 3.286 18.776 10.457l-.054-50.602 6.974-6.735 7.368 7.102.258 84.268zm-4.01-84.274-6.168-5.789-6.099 5.703c-.032 27.212.155 83.062.155 83.062l6.06.439s.446-1.274-.122-4.568c-.851-4.942-.798-10.979.57-20.159.852-5.633.01-10.517-1.287-15.66-1.123-3.427-1.163-6.598-.959-9.664.431-4.888 1.767-8.58 1.93-15.612.093-4.009-.097-7.935.05-12.88.06-.663.337-.581.386.103.186 4.475.358 8.727.398 13.098-.133 5.684-1.512 11.533-1.664 16.736-.114 3.604-.171 4.85 1.34 9.239 2.373 6.897.81 17.492.783 17.68-1.006 6.788-1.74 15.47 1.657 21.967l3.292.296zm-42.442 51.335c1.82-.843 2.18-2.33 1.2-5.914a71.08 71.08 0 0 1-.443-1.69c-.21-.884-.604-.98-1.13-.277-.315.42-.025.518.458 2.488.73 2.978.306 3.963-.793 3.956-.974-.006-1.732-.815-2.01-2.748-.096-.66-.235-1.11-.393-1.373-.264-.443-.583-.363-.84.126-.333.633.292 3.238 1.123 4.501.9 1.274 1.521 1.536 2.828.93zm-.496-2.674c.388-.734-.093-2.539-.343-3.72-.231-.66-.494-.821-.927-.714-.645.159-.614.87-.38 2.04.475 2.385.732 2.686 1.65 2.394zm5.533-4.301c2.082-1.197 2.281-3.26.882-7.012-.573-1.538-1.288-2.621-1.682-2.633-.154.979-.297 1.5-.124 1.884 1.236 1.905 2.157 4.903.353 6.587-1.069.808-.393 1.486.571 1.174zm-68.158-1.443c4.897-.996 9.29-8.962 12.064-16.015 2.528-7.106 5.214-14.913 5.64-21.424 0 0-1.847.086-2.074.47-.21.38-.3 1.197-.497 2.36-1.274 5.99-2.286 10.538-4.507 16.168-1.542 3.908-3.225 8.331-7.402 14.273-1.372 1.66-2.942 2.69-4.914 2.967-.502.07-1.347-.025-1.56.127-.374.266-.037.87.928 1.113.919.21 1.48.133 2.322-.039zm67.301-.925c.745-.798.819-1.747-.017-3.752-.234-.562-.341-.88-.62-.802-.589.165-1.276 1.725-.87 3.046.53 1.72.84 2.223 1.507 1.508zm-69.005-1.256c1.431-.192 3.357-1.26 4.553-3.135 8.003-12.544 9.363-19.556 11.874-31.452 0 0-1.809-.063-2.19.322-.686 4.82-2.28 9.655-3.446 13.673-1.965 6.836-7.567 17.772-10.62 18.288-1.643.278-3.525-1.16-3.222-2.637.185-.906.309-1.25.75-1.478 1.064-.377 1.684.353.516.83-1.353 1.184 1.083 2.996 2.578 1.73 2.536-2.146-1.19-6.256-4.239-4.367-3.378 2.093-2.51 5.718-.386 7.44 1.071.87 2.312.991 3.832.786zm23.923-4.908c2.087-2.157 3.655-4.951 4.795-8.444 2.471-7.844 4.52-16.835 5.263-23.879 0 0-1.783-.185-2.18.195-.65 7.628-3.763 23.296-8.775 31.36-1.085 1.914-.683 2.401.897.768zm46.308-16.352c-.193-.1-.177-.035-.259.023-.284.198-.099 1.2.547 2.747 1.702 2.766 1.9 8.136 1.79 10.154-.034.606-.096.953.086 1.492.18.529.497 1.143 1.007.113.56-3.975.12-8.137-1.392-11.507-.534-1.198-1.056-2.37-1.78-3.021zm1.31 11.723c.298-1.069-.252-5.311-.935-6.801-.276-.601-.773-.648-.714.035.01 1.47-.152 4.265 0 5.092.744 1.728 1.323 2.829 1.644 1.674zm-3.852-17.136-.803.001c.028 2.774-2.415 3.545-3.316.214l-.723.168c.961 4.702 5.305 2.547 4.842-.383zm-4.883 2.092c-.417-1.231-.244-1.681-1.303-1.128-.809.423-1.294.873-.155 1.425 1.014.433 1.722.481 1.458-.297zm6.118-.71c.335-.682.295-1.298-.21-1.301-.39-.002-.498.31-.609.973-.197 1.183.292 1.401.819.329zm.425-4.608c.31-.1.221-.54.138-1.098-1.324-1.853-4.598-1.285-5.774-.917-1.358.444-1.699.278-2.623-.148-.764-.143-.871.044-1.057.411-.164.324-.193.939-.246 2.01-.045.906-.013 1.327.3 1.044 2.785-2.772 4.91-3.44 9.262-1.302zm-9.015 2.508c0 .374.314.141 1.122-.37 2.938-1.758 4.64-1.51 7.156-.67.56.186.907-.405.3-.907-2.988-2.474-6.668-.897-8.578 1.947zm10.648-11.393 15.941-26.56-88.81-.065 15.08 28.199c12.297-2.868 32.538-6.529 57.79-1.573z" fill="#004c97"/><path d="M3705.5-122.37c1.881-2.828 11.196 2.21 11.689 4.206 5.513-4.373 12.208-4.692 17.595.782 5.54-6.101 11.469-5.684 17.638-2.15-.69-1.378 7.887-7.467 13.1-3.598l14.098 25.3-90.313.293c5.335-8.07 10.061-17.708 16.193-24.833zm-39.449-131.96c-.49-1.37-2.472-15.424 2.555-15.775 32.029 19.891 32.65 55.74 31.958 56.01-.48-.143 10.24 10.702 10.998 11.749 2.303 3.188-20.394 34.192-21.292 32.995l-7.398-4.222.184-10.817.156-21.825-17.703-1.554.622-4.753c5.937.492 12.03 1.613 17.53.33 3.618-6.676 2.236-16.636-2.115-20.65-2.302-1.411-4.475-.96-6.812-.661-9.478-1.595-4.567-17.692-8.682-20.827zm158.52 7.22.057 3.99c-6.24 1.371-17.27-3.956-20.61 4.626.414 9.268 2.475 13.425 3.913 16.224 1.082 2.514 8.67-.355 11.344 2.181 7.669 9.513 5.859 22.18 5.926 33.592l-3.327 1.694c-22.99-13.666-40.646-56.118-43.092-68.204-.156-7.76 21.093-32.695 21.093-32.695.048-.055 7.742 4.72 7.742 4.72.186.075-.163 32.726-.162 32.575 6.076.315 11.966.913 17.117 1.297zm-45.588-29.843c-26.814 47.276-15.848 82.253 3.882 112.44 0 0-1.705.392-1.894.223-5.392-5.399-12.035-2.923-17.363-1.786-16.342.314-10.199-4.847-33.49-13.029-5.66.514-14.29 3.209-17.553 1.026 22.703-42.228 19.302-69.26-4.2-113.52 1.948.58 2.251 2.413 3.71 2.865 4.831 1.881 11.488 1.168 15.478-.587 6.34-2.909 13.113 4.908 32.588 13.51 1.588.825 3.594-.478 5.347-.836 3.592-.733 6.67-2.281 9.349-1.375.86.291 4.146 1.075 4.146 1.075zm-54.122-55.261c-1.156-2.168-12.977-24.835-12.977-24.835l87.932.534-13.192 21.868c-1.245 1.187-7.442 4.496-13.763-2.996-.119 1.076-9.38 7.734-17.34-.283-4.79 4.387-9.677 6.93-17.737 1.99-.18 1.378-6.466 7.556-12.922 3.721z" fill="#ffcd00"/><path d="M3734.5-117.89c-8.52-8.051-17.389-.784-17.186-.324-3.261-3.275-6.199-5.032-11.332-4.76 0 0 .218-1.348.252-1.375 13.251 2.447 33.548 3.08 57.274-1.927l1.218 2.569c-6.363-2.281-9.642.796-12.462 4.388-10.212-6.427-12.704-.788-17.764 1.429zm19.871-93.64 6.028-.119c1.135 17.693 15.78 44.767 16.132 44.767-1.02-1.429-10.688-.302-10.617-.122-5.317-14.316-11.153-28.618-11.543-44.527zm-35.153 41.973c.079.01-1.453-5.011-3.1-7.242 6.328-10.907 11.52-22.197 14.182-34.751l4.31.039c-1.277 17.33-15.02 43.653-15.392 41.954zm77.538-2.32c9.493-17.29 7.855-42.212-19.077-55.985 0 0 .702-18.267 2.705-18.309.452.142 12.19-.152 12.19-.152 3.075-7.618 8.024-16.831 14.939-23.052l.173 20.419c-5.118.51-8.239 2.158-9.79 6.198l-7.09 1.593c.52 20.512 8.168 39.464 30.846 56.487-5.42 4.702-23.943 14.246-23.872 14.078zm-113.63-12.888.202-21.263c3.439-.75 6.15.257 8.989-5.965 0 0 4.765 2.283 6.348 3.125-4.454 8.044-8.3 16.64-15.539 24.103zm45.15-37.47.234-10.907h10.154c-.862 3.66-1.132 7.246.02 10.907zm23.164 0c.693-3.532 1.189-7.159-.25-10.907h10.994l-.259 10.907zm-20.908-21.415c-1.829-21.172-16.201-45.136-16.403-44.627 1.693.274 4.675 1.121 6.317.336 1.987.333 3.708.106 3.802-.079-.255-2.32 11.33 22.451 11.595 44.321-.162.17-4.818.118-5.31.049zm25.412.186c1.551-9.781 5.557-27.672 15.015-42.182 1.075 2.576 1.977 5.225 3.453 7.633-7.132 10.474-11.526 22.445-14.192 34.665zm-65.741-5.272c-4.328-8.912-22.331-22.942-21.41-21.525 7.452-6.744 15.764-11.027 24.061-15.353 0 0 1.475 1.413 1.251 1.768-5.1 8.116-7.573 25.31-2.635 35.163 4.746 10.526 13.165 16.748 21.748 21.633-.664 6.582-.988 11.338-2.592 17.881 0 0-5.393-2.863-9.813-4.706-.703-12.427-3.25-23.543-10.609-34.861zm47.682-87.33c6.345 3.905 12.028 3.493 17.538-1.807 6.917 6.337 14.396 3.386 17.557.53 2.925 3.326 6.736 5.171 12.308 4.072l-1.38 2.925c-17.76-3.542-37.07-2.151-57.19 1.21 0 0-1.302-2.558-1.18-2.577 1.633-.1 7.27 2.283 12.346-4.353z" fill="#c8102e"/><path d="m3710.631-357.746 15.669 29.47s.458-.085.688-.13c21.717-4.286 38.919-4.872 57.393-1.591l16.425-27.435c-29.89-.344-90.174-.314-90.174-.314zm1.747 1.256 87.131.096-4.9 8.117c-2.935-.914-4.57.445-4.982 3.285 0 0-.363-.159-1.044-.233-4.294-.469-4.835 5.245-.827 5.935 1.023.176 1.197-.03 1.197-.03-3.575 3.033-5.607.988-7.29-.014-.045.354-3.204 2.751-6.183-.116 4.266.43 4.931-3.886 2.892-5.528a9.857 9.857 0 0 0-.863-.754c1.004-.883 1.222-2.057.579-3.4-1.294-2.702-5.348-2.546-5.968.404-.24 1.148-.249 1.35-.249 1.35-3.274.216-3.94 3.338-2.814 5.07.64.984 2.046 1.198 3.345 1.131-1.75 2.505-5.757 1.652-7.542-.412-2.836 3.366-6.068 2.957-7.681 1.152 1.096-.012 1.85-.027 2.856-.967 1.72-1.606.876-4.455-1.554-5.253a4.03 4.03 0 0 0-.839-.188c.017-.025.064-.183.169-1.04.604-4.97-6.768-4.477-6.056.412.083.566.237.87.237.87s-.783-.045-1.23.164c-4.094 1.906-1.275 7.155 1.889 5.804.3-.128 1.117-.533 1.236-.527-3.919 4.906-7.209 1.43-8.075.896-2.646 3.964-7.243 1.259-7.337.981.286.08 1.15-.099 1.968-.522 2.59-1.363 1.857-4.872-.163-5.636-.619-.218-1.366-.24-2.206-.174 0 0 .062-.882-.02-1.194-1.274-4.777-7.157-2.392-5.71 1.645.127.354.469.71.469.71s-.798.49-1.154.813c-2.809 2.552.052 6.763 3.333 5.012.423-.226.833-.703.952-.674-1.544 2.849-3.887 3.843-7.227 1.485-2.06 3.299-5.423 1.929-6.37.276 3.14.29 5.18-5.79-.858-5.987-.469-1.651-.445-4.169-4.273-3.736zm42.55 10.434c.692 0 1.25.568 1.251 1.267 0 .7-.56 1.267-1.25 1.267s-1.253-.568-1.253-1.267.56-1.267 1.252-1.267zm19.47.15c.733 0 1.326.604 1.326 1.344 0 .74-.593 1.34-1.326 1.34-.732 0-1.325-.6-1.325-1.34 0-.74.593-1.344 1.325-1.344zm-38.162 1.465c.706 0 1.277.577 1.278 1.29 0 .715-.572 1.297-1.278 1.297s-1.282-.582-1.282-1.296c0-.714.575-1.291 1.282-1.291zm54.144 1.485c.163.01.34.042.525.106l-1.11 1.992c-1.07-.949-.559-2.156.585-2.098zm-70.492.793c1.977.135 1.394 1.564 1.104 2.06zm34.88.94c7.478 8.61 14.184 6.063 18.57.338 1.88 4.88 6.072 8.253 13.285 4.971-.436.78-1.532 2.157-1.532 2.157-6.375 1.736-9.537-1.296-11.997-4.184-6.486 5.441-12.593 4.122-17.632-.677-4.3 5.472-11.267 6.65-17.713 2.182-2.947 4.396-7.175 6.172-12.491 3.972 0 0-1.128-1.792-1.225-1.906.77.653 10.56 4.76 12.95-5.118 3.409 5.845 14.583 6.156 17.786-1.736zm.75 3.539c8.412 7.949 17.239 1.076 17.464.59.132.443 4.934 6.236 11.855 4.059l-1.126 1.948c-18.395-2.996-35.958-2.383-56.823 1.626l-1.14-2.051c5.336 1.66 9.999-.41 12.116-3.995 1.233.81 10.751 6.178 17.655-2.178zm-22.058 44.514c-.221.01-.498.26-.957.716-.993.988-1.22 1.118-2.183 1.258-.727.105-2.26.997-3.191 1.856-.252.233-.732.427-1.306.528-.5.088-1.186.207-1.527.265-.34.06-.711.17-.824.238-.489.301-1.284.347-2.177.13-.861-.208-1-.204-1.948.092-1.383.43-2.286.43-2.967 0-.68-.43-1.76-.59-2.446-.366-1.013.33-3.639-1.259-3.633-2.197 0-.214-1.49-1.342-1.866-1.344-1.33-.2-13.02 4.464-12.96 4.735 14.354 17.917 26.437 45.215 17.335 78.62l-1.608-.779c1.351-6.072 1.886-12.184 2.302-18.39-26.942-11.756-29.263-39.094-18.805-56.351l-1.774-1.91c-6.337 3.418-12.776 5.357-28.438 18.637.043 19.953.079 39.908.071 59.863 5.668.634 11.91 1.153 18.067 1.688 0 0-.08 19.217-.22 26.734-.12 6.357.114 5.958.114 5.958l20.388 10.864c-1.433-5.723 2.103-7.994 5.063-7.756-1.308-5.517 1.94-8.042 5.649-7.334 2.505.479 3.38 1.874 4.814 6.486.233.75.553 1.752.553 1.752l1.43-.053c1.788-3.882 2.982-8.822 7.19-9.463 5.508-.838 7.56 2.987 7.557 6.811 5.337-4.752 11.73-1.074 11.314 6.026 2.685-1.744 7.235-3.321 10.101 3.406 1.078-.23 1.627-1.444 3.143-1.824.566-.12 1.85-.818 1.85-.818l.018-.233s1.191-.416 2.788-.68c1.371.516.972.499 1.71-.422.823-.426 2.157-.707 3.187-.613 1.079.097 1.559.175 2.191-.103.985-.435 1.906-.545 2.489.112.419.471 1.025.244 1.675.218 1.301-.053 3.035.486 3.576 1.668.797.821 2.54 1.655 2.54 1.655l1.413-.33.162-.527 11.548-4.455c-23.548-26.06-22.933-60.63-17.386-78.131l2.13 1.036c-1.13 5.187-2.412 10.513-2.246 18.245 21.206 9.556 31.757 34.253 18.9 55.812l1.36 1.776c5.347-2.269 18.8-9.903 23.45-14.051l.99.082s2.82-1.846 4.063-2.83l.169-57.211-.987.261-.176-3.341-17.482-1.403c.222-.168.389-.237.44-.571l-.102-31.672c-.649-1.003-15.291-9.672-20.736-11.7-.218 0-.069.37.01 1.277.267 3.106-1.808 5.872-4.212 5.877-.865 0-1.014.373-.97 2.157.06 2.537-.848 4.24-3.49 5.204-3.134 1.143-5.254-.513-6.997-7.027-.458-1.711-1.354-1.283-2.212 1.054-.426 1.16-1.804 3.976-2.628 5.46-.634 1.141-1.635 1.648-2.999 2.254-1.063.532-3.365.44-4.69-.241-2.405-1.235-3.338-2.718-4.031-6.39-.091-.48-.402-.438-1.181.155-4.245 3.232-10.215-.11-10.18-5.698.01-1.64-.056-1.706-1.01-.92-2.878 2.376-6.79 1.172-8.356-2.572-.367-.876-.561-1.267-.846-1.258zm-24.36 1.983c.267.064.883.853 1.198 1.243.862.964 2.02 1.45 3.224 2.166.113-.17 14.055 18.742 16.427 44.816l6.484.034c-1.21-25.335-8.122-37.513-11.294-45.328l2.325-.745c5.216 10.1 11.573 30.597 11.362 48.543h-10.71c-1.512-17.975-8.43-35.499-18.102-48.794-.674-1.021-1.187-1.72-1.005-1.915.021-.024.053-.03.091-.02zm-4.14 2.675 1.088 3.444s.13-.804.463-1.108c2.117-1.927 4.142.611 3.188 4.054-.218 1.06-.64 3.148-.64 3.148s-2.127-1.102-3.198-1.456c-2.951-1.267-3.936-3.765-1.68-4.048.377-.048 1.153-.083 1.153-.083-.938-.744-3.005-2.446-3.005-2.446zm9.908.385v.001c.891.512 3.19 1.064 4.512.563 1.067-.406 1.88-.184 2.992-.088.636.055 1.904-.227 1.904-.227 6.341 13.482 10.703 29.478 11.429 44.108l-4.988.028c-1.882-15.541-7.834-31.329-15.386-43.04-.334-.51-.778-1.326-.463-1.345zm20.646.326c2.326.074 4.577 3.265 5.236 5.059.612 1.772.85 1.665 1.67 1.379 2.107-.73 4.35 1.608 1.527 1.997-2.77.463-1.19 5.941-1.426 6.424-1.123.198-3.234-4.458-3.179-5.843.135-3.396-3.02-6.235-4.982-4.809-.93.677-.828 1.154-1.115.91-.883-.749-1.06-2.815-.027-3.986.735-.834 1.52-1.156 2.296-1.131zm57.552 1.078s.11 4.465-.057 5.451c-.33 2.977-4.177 3.29-4.327.91-.629.951-1.06 2.134-1.311 3.197l-2.729-1.895c1.036-.752 2.025-1.412 2.791-2.342-2.023.155-3.153-1.614-1.8-3.12 1.503-1.725 5.66-1.91 7.432-2.2zm-100.303 1.414 1.204 1.373c-10.749 19.256-6.958 43.872 18.987 56.805-.172 5.908-.92 11.884-2.317 17.428l-9.57-4.693c.063-21.772-12.136-42.528-31.608-56.171 7.066-5.738 14.883-10.777 23.303-14.742zm78.375.164c.456 2.543 2.838 7.147 3.01 6.883-.026-.15-9.913 12.798-14.21 34.457l-3.67.015c2.406-14.432 7.208-28.05 14.87-41.354zm30.47.605 1.954 1.193c-10.246 8.67-16.993 19.66-21.949 31.513l-2.589-1.238c7.684-17.193 15.275-24.828 22.585-31.468zm2.628 1.92c.874.065 1.609.864 2.265 1.264.942.573.724.818-1.092 2.225-2.146 1.663-2.349 1.589-2.33-.784.012-1.574.402-2.76 1.157-2.705zm-2.254 2.447c.6-.098.308 2.704.154 3.612-.203.935-2.957 3.285-3.94 4.214-.393.26-.573.165-.645-.3.03-.738.102-1.719.115-2.718 0-.308-.061-.63.214-.866 1.35-1.61 3.323-3.816 4.102-3.942zm5.205.765s-.009 0 0 .01c.255.154.18 3.381 0 3.594-.798.208-2.964-.133-3.515-.43-.12-.375 3-3.195 3.515-3.174zm-96.056 1.044.746 3.164s.215-.426.269-.51c1.483-2.292 3.288-.947 3.259 2.237-.01 1.005-.914 5.024-.914 5.024s-5.57-2.702-6.007-3.887c-.431-1.167.181-2.195 1.206-2.29.383-.043.785-.075 1.225 0l-2.393-2.471zm63.758.42 2.527.944c-5.27 8.663-10.709 17.22-14.669 36.737h-10.59c1.48-11.927 4.483-23.651 9.84-35.063.774-.137 2.581-.495 3.253-1.03 0 0-8.753 20.244-9.772 33.26l5.116.11c2.73-12.682 7.839-25.827 14.295-34.956zm-20.052.316c1.423-.054 2.47.958 2.39 2.752-.017 1.64-.164 1.879-1.314 1.223-1.509-.86-2.702-.88-4.054.097-.744.538-1.474.982-1.474.982s.65-2.85 1.65-3.748c.957-.86 1.948-1.274 2.802-1.306zm-8.337 1.033c1.602.023 3.077 1.56 2.904 3.184-.103.964-.385 1.407-.637 2.23 0 0 .828-.326 1.225-.513 1.882-.887 3.845.755 3.815 2.68.086 1.283-1.295 2.82-2.938 2.834-.574.009-1.181-.178-1.767-.62.425 2.352.51 3.44-1.192 4.62-1.424.958-4.422-.137-4.254-2.766l.104-1.62-1.439.188c-4.023.166-4.094-4.839-.847-5.625 1.296-.31 2.704.763 2.704.763-.617-1.227-.63-3.338.2-4.314.638-.75 1.393-1.052 2.122-1.042zm38.036.058c.22 1.874.956 3.915.747 5.664-.314 2.234-2.194 3.558-3.671 2.109-.182-.179-.511-.551-.511-.551-.666.852-1.082 3.265-1.082 3.265l-2.608-1.626s1.81-1.286 2.311-2.018c.14-.204.205-.59.205-.59-1.452.459-2.682-1.042-2.287-2.365.786-2.169 4.689-2.97 6.896-3.888zm18.424 1.295c.988-.005 2.504.327 3.486.436.918.161.41.686-1.646 2.71-1.888 1.858-1.828 1.683-3.283 1.658-3.398-.058-3.992.02-2.014-2.138 1.036-1.13 1.94-2.15 2.684-2.529.173-.097.443-.136.773-.137zm-6.338.414c.055-.02.101-.022.134 0 .252.222.132 1.897.12 2.699-.027 1.523-.012 1.524-.644 2.321-.804 1.019-1.47 2.058-2.31 3.038-.727.797-.704.712-1.14-1.205-.421-1.858-.097-2.36 2.183-5.13.428-.52 1.275-1.583 1.657-1.723zm10.57 1.38c.047 1.052-.01 2.292 0 3.487-7.01 6.928-11.686 14.718-14.925 23.307l-2.382-1.158c4.546-10.708 10.574-18.96 17.307-25.636zm-60.713 1.996a2.106 2.106 0 0 0-2.096 2.119c0 1.17.938 2.124 2.096 2.124 1.16 0 2.1-.953 2.1-2.124s-.94-2.119-2.1-2.119zm-.015.667c.8 0 1.45.658 1.45 1.466 0 .809-.65 1.465-1.45 1.465-.8 0-1.444-.656-1.444-1.465s.644-1.467 1.444-1.466zm-.017.789a.696.696 0 1 0 0 1.391.696.696 0 0 0 0-1.391zm-77.868.106c21.868 14.18 31.673 36.161 31.629 55.045l-1.234-.562c-1.28-26.683-15.631-43.088-31.143-53.705zm129.262.205c.796-.01 1.636.11 2.346.189 1.81.097 2.033.213.785 1.658-.921 1.122-2.242 3.054-2.743 3.212-.38.133-3.557-.019-4.464-.144-.297-.042.092-.349 1.64-2.584 1.188-1.713 1.313-2.28 2.436-2.331zm9.346.782s.314 12.105 0 19.862c-4.989-.187-7.835 1.726-9.053 5.348l-5.182-2.622c3.846-9.981 8.965-16.868 14.235-22.588zm-15.456.099c.284 0 .426.72.507 1.89.417 2.205.246 2.364-.57 3.674-.809 1.302-2.113 3.597-2.288 2.793-.683-2.256-.898-3.653-.655-4.107.873-1.425 1.865-3.14 3.006-4.25zm-124.762.351c17.579 11 30.438 29.785 30.968 52.48 0 0-3.746-1.776-6.059-3.076l-.119-2.204 1.222-.04.391 2.486 2.685-.088-.713-6.205-4.202.4-.848-3.517 1.273-.274.705 2.268 2.732-.73-1.454-5.53-4.222 1.166-1.35-3.733 1.403-.51 1.133 2.237 2.57-.905-2.425-5.544-3.882 1.853-1.972-3.619 1.518-.816 1.22 2.151 2.402-1.256-2.972-5.1-3.684 2.08-1.853-2.804 1.144-.808 1.264 1.476 2.109-1.51-3.234-4.397-3.528 2.79-2.607-3.05 1.2-1.03 1.795 1.623 2.005-1.768-3.843-4.237-3.36 3.094-2.503-2.195 1.226-1.37 1.56 1.205 1.661-1.989-4.184-3.482-3.134 3.135-3.005-2.007v-1.494c.976.38 2.008.823 2.933 1.32l1.555-2.38-4.488-3.062zm48.955.938.665 3.88c.63-1.055 1.134-1.781 2.5-1.373 1.638.675 1.661 3.17.272 6.989-.257.707-.575 1.32-.575 1.32s-.72-.301-1.197-.634c-1.004-.693-2.693-1.478-3.556-2.854-.905-1.441-.924-3.456.738-3.283.33 0 .981.159.981.159l-2.494-3.212zm-49.922 1.157 3.043 1.983-.631 1.16-2.412-1.098zm76.31.914c.883 1.246-2.22 4.918 1.84 6.385 0 0 .099.844-.748 1.358-1.986 1.46-4.838-1.205-3.953-3.947.566-1.754 2.201-3.786 2.862-3.796zm8.424.115s1.225.905 1.47 1.143c2.26 2.19 2.282 5.329.234 6.427-1.362.73-2.902.142-3.436-.92-.248-.49.159-1.002.679-1 .975.01 1.72-1.882 1.432-3.87-.115-.788-.38-1.78-.38-1.78zm26.667.729v.002s.269 2.684.655 3.874c1.187 3.337-.328 5.37-2.545 4.252-.316-.16-.877-.884-.877-.884l-.22 3.834-3.153-.929c.683-1.108 1.664-1.896 2.397-3.143 0 0-.471-.018-.884-.02-1.884.065-2.58-2.046-.604-3.784 1.471-1.283 5.23-3.202 5.23-3.202zm16.773.853c1.144-.031 2.335.078 3.263.2a28.018 28.018 0 0 1-2.622 4.345c-.162.114-.365.191-.658.256-1.216.244-2.595.076-3.986.141-.302-.015.318-1.062.665-1.712.849-1.594 1.492-2.81 2.22-3.146.36-.046.736-.073 1.118-.084zm-6.468 1.273c.242-.013.42.424.65 1.33.537 2.111.675 2.164-.192 3.897l-1.487 2.97c-.786 1.573-.83 1.558-1.325.15-.95-2.7-1.034-2.423.534-5.456.98-1.895 1.467-2.872 1.82-2.891zm-115.35.74 2.83 2.292-.806.79-1.564-1.167-2.313 2.501 3.802 3.501 3.215-3.2 2.758 2.91-.843.72-1.618-1.576-2.421 2.089 3.613 4.316 3.642-2.805 2.283 3.023-.934.59-1.489-1.462-2.369 1.659 2.948 4.199 3.715-2.152 2.11 3.507-1.172.569-1.196-1.924-2.666 1.552 2.518 4.91 4.01-1.693 1.613 3.749-1.225.503-1.03-2.254-2.7 1.079 1.81 5.156 4.068-1.181.987 3.83-1.255.354-.617-2.123-2.589.628 1.08 5.175 4.14-.265.493 4.183-1.287.06-.32-2.497-2.637.033c.014.88.115 2.676.115 2.676l-1.595-.746c-2.367-15.91-10.812-29.17-23.393-38.4l-.066-1.901 3.064 1.964s2.808-2.528 3.292-3.173zm119.26 3.786c.614-.016 1.224-.01 1.946 0 .332.23-.088 1-.95 2.66-1.192 2.295-1.403 2.343-3.637 2.894-2.715.67-2.637.82-1.168-2.346.567-1.22 1.331-2.67 1.85-3.076a24.41 24.41 0 0 1 1.959-.132zm-125.475.6c13.066 8.52 21.324 26.142 22.35 36.825 0 0-.354-.24-1.068-.572-.99-.46-1.233-.76-1.521-2.215-2.588-13.064-9.885-24.151-19.705-31.977zm117.825 2.181c.65-.23 1.746 4.66 1.404 5.058l-3.158-1.449s1.38-3.53 1.754-3.609zm-63.007.185-.062 4.159s.496-.595.751-.784c.972-.716 2.456.277 2.512 1.505.078 1.703-.175 2.394-1.525 4.76-.418.731-1.05 1.664-1.05 1.664s-1.593-1.149-3.335-2.903c-1.883-1.895-1.524-4.426.124-4.434.493 0 .933.164 1.364.304-.355-1.226-1.679-3.604-1.679-3.604zm51.07 3.115s.853 1.134 1.834 4.12c.935 2.851-.504 4.999-2.46 3.924-.35-.193-.717-.61-.717-.61-.137 1.382.104 3.87.137 3.89l-3.153-.557s1.732-2.78 1.857-3.468c0 0-.196.156-1.062.155-3.17 0-2.513-3.811 1.148-5.925.55-.317 2.417-1.529 2.417-1.529zm18.168.048c.686-.031.362.64-.397 2.206-.413.853-.692 1.322-.692 1.322s-2.275-.989-3.294-1.591c1.42-1.198 2.312-1.431 4.383-1.937zm-44.977.509c2.484.015 4.315 2.49 3.948 6.011-.631 6.043-.27 5.67.382 6.273 1.186 1.099-.42 1.76-1.833.713-.984-.73-1.303-1.45-1.258-4.785.054-3.833-.152-4.808-1.508-4.473-.846.209-1.112.936-1.018 3.52.13 3.629-.107 4.542-1.47 5.703-1.47 1.15-3.055.124-1.713-.634.614-.698.73-1.585.493-3.777-.259-1.868-1.337-8.584 3.977-8.551zm60.544 3.041c.606-.019 1.2.006 1.807.015 4.78.18 16.866 1.175 16.866 1.175l.104 3.61c-.744-.11-17.521-1.51-19.966-.79 1.077.451.978 5.895-3.766 4.576-4.024-1.462-2.097-7.09 3.081-8.348a8.978 8.978 0 0 1 1.873-.238zm-60.565 2.133c.272 0 .491 1.094.491 2.452s-.22 2.452-.49 2.452-.491-1.094-.491-2.452.219-2.452.49-2.452zm34.832.291 10.33 5.146c1.445 19.595 8.138 40.3 30.935 55.994-3.693 2.67-12.958 9.23-23.547 13.722l-.866-.94c12.573-21.608 3.074-45.391-18.942-56.156.059-5.997.804-11.913 2.09-17.764zm22.087 2.47a.913.913 0 1 0-.001 1.827.913.913 0 0 0 0-1.826zm9.333.383c1.605-.029 3.3.401 4.907.43h.01c1.974-.076 2.49.154 2.66 1.06.16.858.79 1.06 1.536.784 1.818-.67 2.926 2.589 1.42 4.034-.934.898-.77 1.242 0 1.247 1.9.012 1.846 2.524-.084 3.948-.8.59-.79.858.048 1.276 1.403.7 1.12 2.084-.66 3.223-.97.62-1.002.77-.202.99 2.014.555-.041 3.455-2.245 2.941-.904-.211-1.764-.013-2.628.557-2.36.993-2.755 1.191-5.302.871-2.237-.415-3.237-1.159-3.814-3.144-1.313-4.036-2.726-8.509-2.741-12.916-.198-2.705 4.289-5.15 6.414-5.257.225-.025.452-.04.68-.044zm-136.36.498c2.374 0 4.298 1.945 4.298 4.344 0 2.398-1.924 4.345-4.298 4.345-2.373 0-4.297-1.947-4.297-4.345 0-2.4 1.924-4.344 4.297-4.344zm47.763 1.278-.386 3.796s.631-.499.78-.624c1.118-.945 2.884.112 2.483 1.582-.131 1.295-2.343 5.145-3.225 5.952 0 0-3.55-3.906-3.93-4.67-.843-1.7.31-3.469 1.843-2.718.219.107.851.58.851.58l-1.124-3.603zm-47.378.136c-1.558-.115-3.096.72-2.864 2.417.13.536.94-.236 1.738-.744 1.524-.656 2.427-.076 3.283 1.097.303.376.636.683.824.498.153-2.091-1.424-3.154-2.981-3.268zm115.64.758 1.537.793c2.067 27.693 15.923 43.974 30.481 53.672l-1.157.706c-17.866-11.567-30.27-32.294-30.86-55.171zm2.328 1.137s3.856 1.995 5.875 2.917l.077 2.505-1.35.05-.459-2.357-2.803.203.875 5.795 4.523-.56.631 3.5-1.53.325-.786-2.152-2.594.638 1.68 5.63 4.078-1.33 1.278 3.681-1.37.504-.875-2.159-2.686.948 2.079 5.495 4.244-1.378 1.714 3.438-1.287.577-1.23-2.133-2.546 1.315 2.986 5.132 3.833-2.03 1.79 2.74-1.408.955-1.278-1.68-2.061 1.374 3.301 4.557 3.303-2.501 2.47 2.878-1.091.976-1.685-1.726-1.995 1.8 3.933 4.363 3.416-3 2.428 2.284-.72.764-1.63-1.03-2.163 2.322 4.129 3.631 3.28-3.63 2.779 2.068v1.53l-2.483-1.273-1.666 2.534 4.149 3.173-.027 1.249c-23.688-14.283-29.92-36.435-31.128-52.912zm-48.497.276c1.024-.03 2.105.942 3.89 3.033 4.992 5.844 3.66 14.884-2.865 19.6-.95.686-1.333.625-2.494-.384-6.693-5.812-7.08-13.585-1.12-20.412 1.03-1.18 1.792-1.812 2.589-1.836zm23.927.802c1.23 1.907 2.785 3.87 2.962 6.188-.088 2.29-1.616 2.712-3.197 1.378-.2 1.203.478 3.543.478 3.543l-2.862-.307s1.123-1.981 1.168-3.22c-1.987 1.398-3.505-.427-3.235-1.898.568-2.502 2.603-4.19 4.686-5.683zm-23.84 1.495c-.234.018-.48.182-.852.485-1.744 1.413-3.113 3.17-3.824 4.995-1.5 3.853-.521 8.197 2.862 11.567 1.719 1.712 2.324 1.594 4.959-1.945a10.358 10.358 0 0 0 1.305-10.12c-.663-1.623-1.865-3.204-3.307-4.352-.554-.441-.84-.655-1.142-.63zm55.057.712 2.221 1.102c2.833 18.885 12.017 30.407 22.308 38.352l-.02 1.752-2.76-2.163-3.308 3.496-2.68-2.22 1.005-.986 1.527.983 1.952-2.212-3.842-3.463-3.35 2.937-2.791-2.902.848-.716 1.928 1.701 2.159-1.935-3.734-4.232-3.34 2.56-2.33-3.125 1.014-.61 1.22 1.693 2.576-1.622-2.725-4.23-3.88 2.013-1.987-3.618 1.13-.548 1.287 2.033 2.417-1.176-2.431-4.993-3.968 1.324-1.46-3.926 1.136-.421 1 2.323 2.684-.871-1.824-5.374-4.102 1.168-1.014-3.95 1.269-.274.665 2.133 2.82-.573-1.035-5.118-4.197.538c-.14-.87-.759-3.21-.747-4.096l1.293-.106.406 2.254 2.824-.097zm-54.907.41c1.539.213 3.417 3.208 3.841 4.296.811 2.15.88 4.64.14 6.571-.606 1.58-2.416 4.383-3.565 5.173-.928.508-1.706.131-3.03-1.688-2.619-3.596-3.124-7.921-1.057-10.884 1.578-2.262 2.749-3.47 3.67-3.468zm57.885.934 1.115.531c1.37 10.943 7.786 25.961 20.416 34.945v1.377c-9.822-7.125-18.84-19.414-21.532-36.854zm-58.083.745c-4.398 3.35-3.694 8.597-.363 12.13 3.59-2.4 4.859-8.884.363-12.13zm-67.129.22c2.481-.058 4.053.816 4.809 2.554 1.173 2.7 1.333 3.213 1.574 4.63.138.809.35 2.033.47 2.715 1.287 7.336.34 10.101-4.068 11.246-1.315.341-3.15.453-4.433.14-.336-.08-1.567-.088-2.536-.12-1.922-.063-2.508-.27-3.473-1.06-.348-.285-.684-.514-1.102-.58-2.2-.353-2.856-2.388-1.187-3.894.95-.857 1.046-.974.958-1.12-.05-.083-.456-.15-.905-.152-2.217-.014-2.194-2.319.039-3.966 1.06-.783 1.538-1.521.836-1.34-2.021.481-2.735-2.506-.622-3.432 1.125-.636 1.934-1.167.848-1.227-.912.08-1.654-.6-1.376-1.402.338-.971 2.189-1.854 3.256-1.524.834.258 1.647.492 2.168.114 1.265-.919 1.83-1.33 2.919-1.478a13.622 13.622 0 0 1 1.823-.104zm73.744.562 10.042.2v10.105l-9.75-.185s2.105-4.515-.292-10.12zm-22.95.234 9.87.121c-1.61 3.808-1.008 7.718-.417 9.923l-9.453-.149zm16.316 1.326c1.646.97 2.1 5.5-.187 7.313-2.175-2.26-1.74-6.012.187-7.313zm-23.992 3.08 2.618.247-.934 3.787s.422-.449.56-.493c3.364-1.596 3.604 2.02.182 5.287-.757.72-1.97 1.708-1.97 1.708s-.954-1.456-1.71-2.772c-.86-1.323-1.444-2.74-1.297-3.492.214-1.092 1.512-1.813 2.34-1.146.408.328.88.826.88.826zm46.739 2.778s1.099 1.136 1.767 1.875c2.311 2.555 2.708 4.947 1.536 5.674-1.006.466-1.63.146-2.44-.518.168 1.584 1.412 3.922 1.382 3.928l-3.452.562s.854-3.174.782-4.373c0 0-.71.55-1.025.687-2.253.831-3.369-1.756-1.516-4.334 1.553-2.164 2.966-3.501 2.966-3.501zm47.136 4.788c2.316 0 4.194 1.897 4.194 4.237s-1.878 4.237-4.194 4.237-4.193-1.897-4.193-4.237 1.878-4.237 4.193-4.237zm2.068 1.94c-.181.04-.33.46-.35 1.387-.209 1.9-1.774 2.666-3.485 1.785-.691-.356-1.28-.884-1.281-.48 0 .217.554 1.352.948 1.738 1.45 1.318 4.98 1.006 4.9-2.065-.038-1.446-.431-2.434-.732-2.366zm-76.123 1.59c.456-.03 1.033.16 1.403.548 1.146.791 1.363 1.802 1.436 5.616.063 3.364 0 3.445.545 3.854 1.345 1 2.155-.525 1.77-3.933-.37-3.282.802-5.667 2.764-5.654.965.009 1.143.579.41 1.31-.774.773-.96 1.715-.718 3.613.622 4.863.086 7.251-1.937 8.238-2.11 1.03-4.824-.152-5.299-2.843-.305-1.796-.302-3.925-.092-5.931.039-2.11-.011-2.35-.738-3.56-.514-.812-.131-1.218.454-1.258zm-53.043 1.577c1.166 0 2.376.681 3.1 2.192 1.746 3.644-2.037 6.642-5.508 6.877-6.026.09-13.188-.787-19.236-1.6l.097-3.445c5.55.325 11.807.78 18.549 1.1-.768-3.203 1.053-5.12 2.997-5.124zm31.692.707 3.354.748-2.135 3.527c.634-.277 1.072-.47 1.705-.236 1.367.498 1.385 2.248.383 3.884-.793 1.187-3.023 2.606-4.543 3.477-.854-1.854-2.742-5.099-1.99-6.872.398-.942 1.503-1.401 2.532-.886.34.205.99.542.99.542zm7.93.097 10.223.12c-1.486 10.446-4.393 24.394-10.123 35.764l-2.407.628c5.052-11.298 8.412-21.892 9.982-33.737h-5.11c-2.94 12.713-7.291 24.494-13.98 34.73l-2.972-.978c7.147-11.452 12.812-24.232 14.387-36.528zm23.317.183h11.394c2.096 21.269 9.207 35.786 19.79 50.145 0 0-.668.15-1.062-.02-1.097-1.384-2.104-2.23-3.748-2.655-8.895-12.943-14.862-31.036-16.3-44.878h-6.777c.771 17.385 5.536 31.64 11.878 45.444l-3.44.639c-5.094-12.355-10.677-23.107-11.737-48.675zm-5.87 1.364c.27 0 .488 1.094.488 2.452s-.217 2.451-.489 2.451-.49-1.093-.49-2.451.219-2.452.49-2.452zm-57.01.264a.913.913 0 1 0 .004 1.826.913.913 0 0 0-.003-1.826zm80.61 1c.939.732 1.953 1.452 2.907 2.15 2.566 1.82 2.53 5.26.036 5.245-.264 0-.88-.04-.88-.04s1.018 2.255 1.66 3.396c-1.04.28-3.211.692-3.211.692s.31-2.214.249-4.048c0 0-.416.47-.76.633-1.655.7-3.054-.76-2.847-2.486.278-2.329 2.847-5.543 2.847-5.543zm-76.129.415 5.609 2.814c-3.823 8.794-8.323 17.027-14.654 23.286l.287-20.321c3.456-.102 7-.132 8.758-5.78zm38.355.319h3.45c-1.531 16.222-12.137 38.168-14.128 40.814l-.656.498c.04-.022-1.358-4.974-2.948-6.757 5.984-8.157 12.254-23.831 14.282-34.555zm24.264 0h5.213c1.623 12.926 5.577 26.89 15.597 43.851 0 0-1.004.102-1.78-.368-1.707-1.07-2.895.347-3.915.291-1.595-.087-1.859-.182-3.504.213-8.269-17.626-10.615-31.5-11.611-43.988zm-56.304 2.902 1.86.884c-4.002 9.358-7.741 16.795-17.224 25.922v-2.72c6.662-6.52 11.27-15.113 15.363-24.086zm2.716 1.305c1.091.51 2.167 1.018 3.147 1.7-1.166 1.392-2.515 1.944-4.257 2.098-.811.192-.556-.63.324-2.428.396-.81.786-1.37.786-1.37zm3.719 1.983 3.37 1.674s-.397 1.375-1.107 2.928c-1.093 2.388-1.31 2.44-1.637.478-.057-.338-.382-1.454-.579-2.196-.456-1.72-.048-2.884-.048-2.884zm4.072 1.93s1.309.643 1.734.925c-5.84 17.675-21.391 32.285-21.308 31.948l-2.426-1.441c10.35-9.45 17.933-20.61 22-31.432zm-6.173.253c.565.012.073.714-.69 2.413-.723 1.665-.96 2.255-1.637 2.52-.97.355-2.362.367-3.598.586-.529.093-.307-.317.507-1.989.956-1.962 1.008-2.368 2.507-2.776.866-.136 2.034-.761 2.911-.754zm1.128.674c.48.192.764 2.674.92 2.838.601 2.189.589 2.62.186 3.38a85.877 85.877 0 0 1-2.014 3.541c-.68 1.127-.874.893-1.278-1.847-.25-1.7-.47-2.465-.284-3.205.34-.836 1.352-2.81 1.925-3.964.205-.616.386-.807.545-.743zm11.67.926 3.063 1.017-2.404 2.931s1.009-.183 1.126-.135c2.41.161 2.009 2.583.142 4.048-.772.716-4.585 2.467-4.585 2.467-.408-2.167-1.248-3.551-1.047-5.776.142-1.197.247-2.278 1.7-2.312.763-.041 1.072.749 1.569 1.384zm55.526 2.626s1.845.964 3.556 2.294c2.23 1.736 2.612 3.775.382 4.562-.257.09-.99.053-.99.053.614 1.08 2.07 2.688 2.07 2.688-.73.516-1.76.92-2.903 1.281 0 0-.284-2.689-.555-3.728 0 0-.296.587-.661.817-2.149 1.35-3.836-1.196-2.681-4.417.701-1.955 1.782-3.55 1.782-3.55zm-23.619.45c5.365-.131 2.222 8.747-.46 8.174-.045-.08 2.215-5.25-.827-6.073-1.396-.378-.193-2.118 1.287-2.1zm-8.796.63c1.667-.01 2.88 1.177 1.287 1.925-2.506 1.176-1.014 3.995-.958 5.592.035.976-2.232-.852-2.713-2.835-.623-2.564-.334-4.462 2.384-4.682zm-39.68.932c.369 0 .647.03.74.103.157.419-.591 1.729-1.684 3.406-.581.892-.83 1.142-1.186 1.353-.845.48-2.031.356-3.02.426-1.474.02-1.215-.01.416-2.578.729-1.147 1.189-2.086 1.622-2.385.087-.057 2.002-.321 3.111-.325zm1.62.94c.195.026.313.359.313.913 0 3.212 1.08 4.264.287 5.278-.969 1.577-2.207 3.304-2.657 3.85-.757.92-.673.746-.871-1.659-.144-1.744-.3-2.909-.077-3.453.648-1.574 1.419-2.328 2.22-4 .315-.675.59-.955.785-.93zm42.658 2.525c1.558.021 2.522 1.694 2.452 3.23l-.068 1.47c2.013-.78 4.513-.021 4.623 1.974.188 3.384-2.278 2.992-4.365 2.85.21.079.52 3.058-.721 4.198-1.948 2.203-5.58-.048-4.668-3.28.19-.67.231-1.093.231-1.093s-1.302.474-1.761.454c-3.95-.17-3.648-5.814.32-5.15.81.135 1.359.333 1.359.333s-.086-.356-.22-.86c-.577-2.173.634-4.156 2.818-4.126zm79.02 1.005 2.13 1.238v2.4l-3.028-2.265zm-127.668 1.606c.84-.01 1.5.059 1.37.262 0 .428-1.838 3.01-2.925 4.19-.925 1.004-1.057.86-3.321.748-.889-.044-1.47-.051-1.447-.291 1.044-1.382 2.482-3.161 3.476-4.647.39-.12 1.768-.251 2.847-.262zm1.948 1.315c.463.104.372 2.498.484 3.967.148 1.377.147 1.375-.436 2.196-.712.772-1.438 1.91-2.355 2.796-1.378 1.543-1.236 1.631-1.216-1.668.016-2.578-.175-2.577.34-3.183a32.976 32.976 0 0 0 1.738-2.265c.877-1.286 1.216-1.84 1.445-1.843zm13.257.267 2.833 1.529-2.838 2.906s.71 0 .948.044c1.824.358 1.687 2.31-.148 3.768-1.127.72-4.997 2.142-4.997 2.142-.133-1.642-.477-3.152-.412-4.914.027-.813.103-1.696.72-2.399.426-.477 1.139-.753 2.138-.1.526.471.799 1.005.799 1.005zm33.435.992a2.02 2.02 0 0 0-2.01 2.031c0 1.122.9 2.032 2.01 2.032 1.11 0 2.01-.91 2.01-2.032 0-1.122-.9-2.03-2.01-2.03zm31.674.478s3.707 1.408 5.378 2.956c1.56 1.314.827 3.481-.722 3.526-.112 0-.77-.097-.77-.097.524.807 2.283 2.787 2.283 2.787l-2.868 1.175s-.458-2.23-.813-3.482c-.999 2.331-3.464.814-3.627-.64-.398-2.129.498-4.21 1.139-6.225zm-31.674.18c.772 0 1.397.631 1.397 1.412 0 .78-.625 1.413-1.397 1.413a1.406 1.406 0 0 1-1.397-1.413c0-.78.626-1.412 1.397-1.412zm-.01.728a.696.696 0 1 0-.001 1.392.696.696 0 0 0 0-1.392zm-54.037 2.156c.69.008 1.397.043 2.116.075v.002c.425.33-.464 1.354-2.182 3.176-1.378 1.462-1.582 1.26-3.25 1.273-2.8.023-2.868.04-1.583-1.437 1.409-1.62 2.228-2.662 2.879-3a15.393 15.393 0 0 1 2.02-.09zm2.715 1.47c.433.034.148 1.769.176 2.388l-.08 2.931-2.18 2.119c-2.52 2.28-2.219 2.423-2.2.291.013-1.694 0-2.886.358-3.638 1.1-1.34 2.248-2.528 3.5-3.807.188-.208.326-.292.426-.284zm55.369.685c.606-.052 2.154 2.625 2.541 4.867.885 5.12 3.92 7.545 6.056 5.49.868-1.21.965.11.922.739-.448 6.485-7.72 3.786-8.547-2.655-2.552 1.674-4.934-1.707-3.413-1.653 3.598-1.156 2.614-4.496 2.44-6.788zm-8.423.05c.356 2.243-3.647 6.085-5.898 3.39-1.145-1.37-.101-4.198 1.355-2.457 1.61 1.204 3.17-.193 4.543-.934zm-54.492 2.995c.689.035 1.5.136 2.043.148.734.075.21.432-1.379 1.895-1.367 1.26-1.828 1.822-1.984 1.273-.076-.852-.01-1.866 0-3.067.064-.253.63-.284 1.32-.25zm18.166 1.57 2.44 1.799-2.418 2.254c2.171-.108 2.362 1.95 1.538 3.096-.534.804-2.592 1.652-4.651 1.989-1.24.203-2.25.351-2.25.351s-.047-.963-.081-2.567c-.071-3.28.15-4.57 1.397-5.21.893-.457 2.404.26 2.776 1.098.122.277.445.76.445.76zm-15.705.178c.01 0 .013 0 .018.01.138.188-.359 5.524-.359 5.524l-3.44-2.012s3.484-3.454 3.781-3.518zm93.602.63c2.519 1.2 4.267 1.141 6.1 2.452 1.359.971 1.038 2.93-.038 3.41-.487.15-1.289.067-1.289.067.891 1.112 2.84 2.516 2.84 2.516l-3.098 1.311s-.426-2.113-.82-3.265c-.565 1.713-2.478 1.672-3.567.866-.772-.597-1.09-2.599-.722-4.334.097-.458.594-3.023.594-3.023zm-16.566 49.67c-30.581 7.323-55.42 2.794-57.883 1.929l-1.95 2.937c-.238.5-.383 1.989-1.703 2.393l-1.98 2.99.387.416-1.758 1.549.427.516-1.278 1.877-.504-.053-2.957 4.543.452.507-6.793 10.743 91.875.03c-5.34-10.18-11.054-20.165-16.335-30.377zm-.555 1.321.75 1.562c-5.257-1.365-9.48.71-12.102 4.473-5.65-4.29-12.747-2.942-17.461 1.877-4.36-4.467-11.983-5.14-17.5-.584-2.322-5.06-10.981-5.296-11.065-4.711 0 0 .335-.516.412-.766 10.652 2.482 34.99 3.497 56.966-1.85zm-2.587 2.099c1.222.044 2.472.293 4.032.745l.943 1.653c-1.99-1.066-10.501-3.505-12.916 5.047-2.542-3.473-13.02-8.507-18.335 2.195-1.511-2.9-10.31-11.241-18.336-.61-3.163-6.607-5.806-7.16-11.611-6.258 4.125-4.007 9.93.163 12.39 3.574 6.924-5.803 12.714-4.059 17.77.663 6.527-7.182 13.036-5.451 17.614-1.848 2.412-3.587 4.782-5.295 8.448-5.161zm3.638 3.71c.177-.01.355-.01.531.005.847.067 1.694.42 2.55 1.131 0 0-.832.141-1.098.213-3.633.976-2.841 6.149.896 6.149.355 0 1.24-.141 1.24-.141-.07 3.502.981 4.357 4.522 4.16l6.002 10.843-88.777-.387 5.636-9.113c2.836.336 4.618-1.257 3.987-3.69 0 0 1.745.54 2.234.543 3.209.02 4.041-4.957.965-5.82-.343-.095-1.205-.192-1.31-.223 1.407-3.552 5.273-1.455 6.38.018 2.492-2.07 5.248-1.143 6.429 1.539 0 0-.465-.263-.608-.368-2.919-2.158-5.632 2.311-2.774 4.372.28.203.875.377.875.377s-.347.288-.665.828c-1.483 2.522.903 5.593 3.789 4.803 2.214-.877 2.248-2.56 2.246-4.411 0 0 .764.06 1.449.068 2.657.031 3.42-3.409 1.794-5.008-.879-.865-2.03-.797-2.598-.909 3.064-3.04 5.14-.942 7.302.46.327-.01 3.753-4.166 7.826-.082-1.977-.524-4 .773-4.027 2.852.04 1.338.985 2.52 3.033 2.615-.22.672-.367 1.174-.38 1.828-.04 2.183 1.639 3.54 3.77 3.206 1.783-.23 3.1-2.29 2.465-4.001-.286-.772-.677-1.053-.677-1.053 4.799.607 4.716-5.536.985-5.909-.885-.088-1.569.299-2.46 1.124 2.194-4.534 6.207-3.625 7.71-1.77 2.061-1.514 4.903-3.58 8.303.102-.56-.12-1.35-.148-2.034.035-2.691.722-2.703 4.18-.57 5.233a4.463 4.463 0 0 0 2.13.438c-.71 2.906 2.484 4.984 4.745 3.592 1.619-.997 2.045-3.353.293-5.502 2.949-.133 3.24-3.85 1.536-5.153-1.336-1.02-2.912-.535-4.052.813-.367-1.066 2.55-4.773 6.668-2.102 1.269-.992 2.504-1.636 3.74-1.706zm4.367 4.039 1.156 2.118c-.769.077-1.87-.754-1.156-2.118zm-14.883 2.151c.722 0 1.306.593 1.306 1.322s-.584 1.32-1.306 1.32-1.305-.59-1.305-1.32.584-1.322 1.305-1.322zm-53.885.079c.174.709.25 1.416-1.024 1.553zm15.011 1.276a1.2 1.2 0 0 1 1.194 1.209c0 .667-.533 1.21-1.194 1.21-.66 0-1.2-.543-1.2-1.21 0-.668.54-1.209 1.2-1.209zm19.912.377c.7 0 1.268.574 1.268 1.282s-.567 1.282-1.268 1.282c-.7 0-1.268-.574-1.268-1.282s.568-1.282 1.268-1.282zM3693.8-350.16c-9.185 13.115-19.012 20.662-19.176 30.894-.055 3.313 1.734 8.945 7.338 10.023 3.636.696 8.642-2.25 8.746-8.236-.016-1.192 1.26-1.16 1.248.472-.17 4.722-1.663 10.22-4.172 14.694h12.032c-2.51-4.475-4.002-9.972-4.173-14.694-.012-1.633 1.264-1.664 1.248-.472.105 5.986 5.11 8.932 8.746 8.236 5.604-1.078 7.393-6.71 7.338-10.023-.163-10.232-9.99-17.779-19.176-30.894zm103.1 245.63c-9.185-13.115-19.012-20.662-19.176-30.894-.055-3.313 1.734-8.945 7.338-10.023 3.636-.696 8.642 2.25 8.746 8.236-.016 1.192 1.26 1.16 1.248-.472-.17-4.722-1.663-10.22-4.172-14.694h12.032c-2.51 4.475-4.002 9.972-4.173 14.694-.012 1.633 1.264 1.664 1.248.472.105-5.986 5.11-8.932 8.746-8.236 5.604 1.078 7.393 6.71 7.338 10.023-.163 10.232-9.99 17.779-19.176 30.894z"/></g><rect x="2314.3" y="589.95" width="223.23" height="311.81" rx="10.63" ry="10.63" stroke="#000" stroke-width=".997" transform="translate(-259.93 -369.78) translate(-2053.9 -219.68)" fill="none"/></svg>