<svg width="224.225" height="312.808" xmlns="http://www.w3.org/2000/svg"><g transform="translate(-259.9347,-369.77722) translate(-735.69962,-1384.075)" style="display:inline"><rect y="1754.351" x="996.133" height="311.811" width="223.228" style="display:inline;fill:#fff;fill-opacity:1;stroke:#000;stroke-width:.99673343;stroke-miterlimit:4;stroke-dasharray:none;stroke-opacity:1" rx="10.63" ry="10.63"/><path style="display:inline;fill:#e0ce00;fill-opacity:1;stroke-width:.99976" d="M1066.883 2014.88c1.896-2.804 11.285 2.192 11.781 4.171 5.557-4.337 12.304-4.652 17.734.776 5.583-6.05 11.56-5.637 17.777-2.133-.695-1.366 7.95-7.404 13.203-3.567l14.21 25.09-91.026.29c5.377-8.002 10.14-17.56 16.321-24.627zm-39.76-130.864c-.494-1.358-2.491-15.296 2.575-15.644 32.282 19.727 32.907 55.278 32.21 55.546-.484-.141 10.322 10.613 11.084 11.651 2.321 3.162-20.555 33.91-21.46 32.722l-7.455-4.187.185-10.727.158-21.644-17.843-1.542.626-4.713c5.985.487 12.126 1.6 17.668.327 3.647-6.62 2.254-16.498-2.131-20.479-2.32-1.4-4.511-.953-6.866-.655-9.553-1.582-4.603-17.546-8.75-20.655zm159.774 7.16.058 3.957c-6.29 1.36-17.406-3.923-20.772 4.587.418 9.192 2.495 13.314 3.944 16.09 1.09 2.493 8.74-.351 11.433 2.163 7.73 9.434 5.905 21.996 5.973 33.314l-3.353 1.68c-23.173-13.553-40.967-55.653-43.432-67.64-.158-7.694 21.259-32.423 21.259-32.423.049-.053 7.803 4.681 7.803 4.681.187.074-.165 32.455-.164 32.305 6.124.312 12.061.905 17.252 1.286zm-45.947-29.595c-27.025 46.884-15.973 81.571 3.913 111.504 0 0-1.719.388-1.909.22-5.435-5.354-12.13-2.898-17.5-1.77-16.47.31-10.279-4.807-33.753-12.921-5.705.509-14.402 3.181-17.692 1.017 22.882-41.878 19.454-68.687-4.234-112.58 1.964.573 2.27 2.392 3.74 2.84 4.869 1.866 11.579 1.158 15.6-.582 6.389-2.884 13.216 4.867 32.844 13.397 1.6.82 3.623-.474 5.39-.828 3.62-.727 6.72-2.263 9.422-1.363.867.288 4.18 1.066 4.18 1.066zm-54.548-54.803c-1.165-2.15-13.08-24.629-13.08-24.629l88.625.53-13.296 21.687c-1.255 1.177-7.5 4.458-13.871-2.972-.12 1.068-9.454 7.67-17.477-.28-4.829 4.35-9.754 6.872-17.878 1.974-.18 1.366-6.516 7.493-13.023 3.69z"/><path style="fill:#131f67;fill-opacity:1;stroke-width:.153601" d="M1025.792 1780.136h163.532l.3 261.366-163.966-.436s-.01-170.555.134-260.93zm116.157 259.485c-6.089-10.987-15.714-28.883-15.999-29.026-3.56 1.886-39.847 6.72-57.3 2.04-5.97 8.923-11.832 17.761-17.029 26.607zm-55.73-32.861c-.914.02-1.932.574-1.744.092.109-.279.366-3.096.479-4.104.273-.448.658.727.614 1.819-.025.626.277.179 2.344.287 2.235.116 4.066.533 4.825.696 2.643.569 7.758.16 9.949-1.425 1.186-.859 1.635.069.412.99-5.523 4.16-9.902 2.574-14.7 1.877-.715-.104-1.439-.249-2.18-.232zm2.348-3.948c-.344-.222-.57-.245-1.009-.041-1.695.787-1.252-.342-.03-1.478.557-.52.54-.784.117-1.33-.214-.275-.572-.31-.487-.723.367-1.783 2.885-4.48 5.7-5.686 1.17-.501 1.356.047-.124.912-2.277 1.33-3.014 2.465-1.726 2.004 2.497-.896 4.775-.264 7.97 1.32.913.453 1.33.542 2.107.46.574-.474 1.088.095 1.444.392.223.179.271.264.526.205 1.818-.425.728.727-1.757 2.53-4.45 3.126-9.306 4.6-12.732 1.435zm6.847.769c1.82-.545 4.038-1.683 5.399-2.87 1.653-1.442.718-1.223-1.182-.314-2.75 1.317-4.677 1.697-7.77 1.626-2.59-.059-2.51-.163-2.603.158-.332 1.125 3.232 2.275 6.156 1.4zm-5.025-4.396c.148-.485.261-1.13.129-1.34-.24-.381-.754-.1-1.41.722-.405.509-.349.578.048.98.2.133.352.234.473.303.552.234.641-.275.76-.665zm1.133.664c.796-2.693 2.58-2.64 3.851-.063h.898c-1.845-5.014-5.416-2.475-5.535.02.42.138.785.038.785.038zm6.661-.453c.842-.466.719-.784-.354-1.333-.762-.39-1.165-.47-1.304-.217.01.555.033 1.35.357 1.79.336.203.798 0 1.301-.24zm-11.8-7.67c-.155-.254-.128-.716.458-.986 3.61-1.66.98-5.165-1.808-2.536-.884.72-2.2 1.055-3.215.626-.955-.413-.973-1.573.296-1.82.416-.081 1.485-.307 1.879-.579 4.847-2.575 7.42 3.025 3.982 4.889-.707.41-1.457.638-1.593.405zm-13.579-5.086c-1.967-.884-2.236-3.958-.393-5.154 1.174-.797 2.373-1.014 5.605.574 2.284 1.122 3.59-.086 3.531 1.22-.036.793-.084 1.593-1.41 1.784-2.158.311-3.63-2.596-6.402-2.322-1.999.198-1.746 2.573-.301 3.055 1.925.643.758 1.406-.63.843zm36.168.447c-.361.168-.53-.616-.374-1.035.983-2.315 1.887-4.155 2.778-6.324.711-1.728 1.188-2.47 1.507-2.469.326 0 .477.255-.068 1.319-.824 2.146-3.838 8.692-3.842 8.509zm-16.15-.6c-.87-.615-.723-1.528.267-.837 1.273.888 3.359-.737 2.933-2.271-.514-1.854-2.994-2.303-5.071-.643-3.277 2.62-6.871 2.752-6.871.705.01-.585-.076-.718 1.287-.81 1.585-.105 3.373-.826 4.261-1.364 3.986-2.412 8.226-.747 7.348 3.277-.396 1.898-2.74 2.818-4.154 1.943zm-14.614-5.94c-.323-.01-.914.314-1.084.189-.332-.246-.284-.96-.556-1.725-.485-1.357-.012-.933.84-.566 1.157.444 2.254.359 3.23.022 1.007-.347 2.328-.268 4.442.01 1.701.22 2.657.156 4.2-.282 1.676-.521 1.233-.334.953.693-.181.673-.41 1.576-.624 1.793-1.158-.644-2.038-.395-2.799.044-1.25.547-2.138.641-3.162.337-.964-.545-1.536-.5-2.31-.03-1.334.641-1.925-.42-3.13-.48zm24.987-2.82c.235-.41.576-.973.896-1.606 2.589-5.106 2.766-6.526.938-8.247-2.455-2.312-4.548-1.309-6.9 3.308-.572 1.12-.913 1.963-1.144 2.308-.266.399-.577.091-.73-.064-.29-.293 2.321-5.194 3.344-6.264 2.679-2.8 7.655-.56 7.338 3.248-.16 1.918-.526 2.969-2.292 6.486-.437.87-.817 1.608-1.048 1.963-.828.55-.64-.714-.402-1.132zm-24.401-.203c.409-1.819 6.279-2.66 7.826-.276.151.233.063.224-.601.043-2.985-.98-3.577-.926-6.437.197-.43.164-.736.232-.788.037zm22.398-.346c0-.17.218-.843.55-1.493 1.957-3.843 2.497-4.77 1.9-5.488-1.164-1.4-2.726-.183-4.162 3.829-.537 1.5-.902 1.18-1.164.943-.501-.453 1.718-5.122 2.789-5.818 2.426-1.533 4.336.241 3.264 3.377-.837 1.415-1.528 3.593-2.31 4.74-.37.513-.87.36-.867-.09zm-8.778-6.24c-.118-.194.111-.455.952-2.244 1.156-2.46 1.514-3.372 1.044-4.776-.837-2.503-3.992-3.116-5.908-1.474-.627.53-1.053 1.264-1.348 1.922-.693 1.526-1.27 3.499-1.68 3.913-.36.359-.86.432-.827-.195.456-1.328.67-2.358 1.748-4.304 2.685-5.797 10.426-3.113 8.614 2.989-.673 2.215-1.448 3.893-1.906 4.438-.255.303-.678.04-.689-.27zm-1.796-1.065c0-.19.291-.735.6-1.492 1.308-3.217 1.317-4.202-.591-4.244-1.141.146-1.31.61-2.313 3.149-.325.824-.505 1.41-.698 1.662-.208.27-.597.11-.757-.052-.41-.414 1.377-4.576 2.322-5.36 2.172-1.878 4.985.788 3.667 3.182-.618 1.673-1.15 2.809-1.512 3.326-.32.458-.722.393-.718-.171zm-46.23-37.503-6.596-.45c1.17 7.013 1.229 14.734.047 20.209-1.009 4.68-1.02 8.129-.72 12.187.351 4.722 2.362 8.726 2.868 13.739.367 3.631-.441 7.422-1.163 11.033-1.207 6.034-.958 6.664-.78 13.744.164 6.565-.451 6.33-.83 5.947-.057-.058-.11-1.22-.102-2.6.01-1.38-.077-4.757-.156-7.101-.158-4.683.365-8.821.745-10.525.772-3.466 1.64-7.017 1.105-10.853-1.086-4.841-2.616-9.677-3.153-14.344-.662-5.754.965-11.528 1.503-15.707.52-4.036-.03-11.016-1.094-13.922-.183-.966-1.051-2.226-1.051-2.226-.995-.142-1.993-.282-3.388-.273-.078 27.712-.001 55.435.02 83.15l6.152 5.68 6.32-5.98zm.445 31.789s9.385 5.376 19.733 10.66c-.985-6.046 2.14-6.957 5.074-7.659-.703-11.678 10.05-9.283 11.698.864h1.06c1.863-5.059 3.705-8.55 7.948-9.383 3.287-.646 6.53 1.426 7.352 6.306-.145-.343 10.901-6.452 11.205 6.454 5.017-3.1 8.596-.422 10.043 3.512 2.118-3.211 7.419-3.352 9.114-3.586.59-.677 1.631-1.064 3.524-1.052 1.622-.082 3.802-1.291 4.923.181 1.706.268 3.005-.039 4.463 1.082 1.16.878 2.454 2.834 4.385 1.485 3.682-1.765 7.82-2.56 11.112-4.688 0 0-.873-1.119-.618-.958.093.06.503.587 1.12.834.222.088 2.245-1.118 2.245-1.118-13.714-15.723-24.995-46.417-17.546-74.816.206-.483-.622-.67-1.029-.84.126-.218 2.138.074 1.284 1.88-.861 5.44-1.836 11.337-2.053 15.848 0 .55.046 1.041.046 1.041 30.75 14.115 26.979 44.686 19.08 55.327l1.245 1.65c.55.368 24.19-13.35 23.41-13.913l4.473-2.216-.725-59.948-17.69-1.346s.188-.503.412-.634c.162-3.66-.167-9.072.01-13.603.069-12.948.2-17.35.03-17.709-5.456-3.575-13.592-8.804-20.439-11.339.281.08-.111 5.365-.32 5.667-6.406 2.034-3.432 4.634-5.8 7.427-1.59 1.74-5.313 2.07-7.11-.016-2.148-2.068-3.155-6.813-3.155-6.813-3.389 3.606-2.693 7.963-7.231 9.603-7.295 3.601-9.61-7.164-9.187-6.915-2.795 2.682-10.639 4.863-11.486-6.461-3.526 3.231-7.48 1.627-9.157-2.349-2.152.076-4.566 1.754-6.745 2.662-2.022.89-4.609 1.413-6.529 1.374-2.401.289-4.379.278-6.543-.364-1.017.329-3.309-.654-4.016-2.06-1.083-1.266-2.026-1.34-3.055-1.112-3.504 1.837-7.262 2.28-11.398 4.204-.259.178.363.515.154.449-.088-.028-2.173 1.018-2.173 1.018 20.954 27.417 22.094 55.097 17.702 74.716-.172.68-.267 1.174.186 1.709-.665-.114-.675.08-.8-.344l2.18-16.468c.063-1.989.313-1.842-1.443-2.584-1.624-.686-3.16-1.347-4.5-2.167-5.11-3.768-10.884-8.406-13.698-14.192-8.03-12.438-5.38-27.278.634-39.037l-1.496-1.546c-17.563 8.757-27.933 18.2-27.933 18.2l.076 58.823 18.048 2.071zm-8.707-39.281c-.579-.637-2.053-.749-2.667-.265-.142.12-.445.743-.534.72-.818-.209-1.384-.378-1.493-1.065l.868-1.305c.687-1.033 1.677-1.4 3.346-1.788.592-.137 1.486-.263 1.801-.397 1.254-.54 1.69-1.706.421-1.183-.928.253-2.223.17-2.395-.675-.142-.693-.735-.965-1.397-.883-1.223.292-2.34.928-3.422 1.567-.48.288-1.39.94-1.39.94-.144.225-.674-1.41-.18-1.888.613.074 1.141.08 1.74-.157 1.491-.592 2.928-1.306 4.434-1.879.959-.374 1.047-.343.794-1.02-.125-.25-.235-1.08-.07-1.514.176-.462.156-.694-.142-.892-.677-.449-2.302-.03-4.588 1.062-.696.333-1.155.467-1.595.82.284-.72.118-.852.111-1.606.933.117 1.773-.252 2.518-.643.614-.32 1.303-.635 2.992-.85.461-.059.251-1.739-.274-2.226-.497-.46-1.541-.47-2.804-.098-1.128.257-2.53.518-3.307 1.724-.978.923.024-1.528 1.809-2.507.783-.017 2.509-.385 2.915-.474.689-.152.799-1.76-.202-2.45-.627-.544 2.277-.558 2.221-.392-.037.095-.064.782.158.958 1.251.374 1.24 1.392 1.35 1.82 1.436 2.347 2.143.875 3.132.067-.209 5.11 1.587 5.691 1.824 6.015-2.466 4.578-.606 4.69 1.706 5.744 0 0-.878.355-1.463.32-.92-.057-2.682 1.028-3.452 1.668-.425.353-.438.06-2.136.01-1.6-.046-1.718.073-2.448.394-1.44.635-1.432 1.235-.026.999 1.498-.253 2.966.653 3.139 1.886.118.234.013.646-.011.632-.312-.058-1.018.059-1.007-.09.01-.149 0-.707-.277-1.1zm2.186-6.193c.406-.258.476-.993.123-1.29-.322-.271-1.69-.127-2.076.219-.874.684.723 1.829 1.953 1.07zm.876-3.076c.502-.39.564-1.329.128-1.874-.738-.923-2.668-.37-2.773.795-.111 1.24 1.593 1.895 2.645 1.079zm-.628-4.22c.09-1.02-.923-1.665-1.855-1.182-1.162.602-.457 1.87.998 1.796.805-.041.805-.041.857-.615zm-3.4-4.136c-.542.265-.57.9-.056 1.31 2.038 1.119 1.417-1.88.056-1.31zm142.28 6.091c-.894-3.28-3.36-.028-3.363.017-.087-3.362.552-4.858-1.98-6.006 2.541-3.833 2.011-4.361-.683-5.832.248.022 3.576-.721 4.146-2.614.127.09 5.224 1.339 5.86-1.43-1.538.697-4.563.801-4.598-2.177.286-.086 1.004.06.944.156-.403 1.91 3.092 2.382 3.664.874 0 0 1.174.783 1.69.904.057.038-1.59 2.313-3.091 2.656-2.708.892-3.642 1.133-3.646 1.669 0 .208.443.241 1.247.405 1.682.115 1.646.475 1.867 1.03.195.49.385.588.946.539 1.92-.636 2.881-.97 4.22-2.302.163-.031.352 1.4.456 1.45.016-.229-1.36.17-3.471 1.4-1.723 1.004-2.398 1.15-2.617 1.421-.163.201.256.835.3 1.522.037.579-.353.86-.066 1.04.332.208.846.17 1.521 0 1.49-.358 2.587-.941 3.926-1.765-.285.536.192 1.897.192 1.897s-.661-.463-1.205-.223c-1.048.458-2.743 1.082-3.2 1.19-.443.103-.635.16-.809.307-.213.18-.177.613-.181 1.248 0 .446-.131.858.15.992.626.201 1.889.138 3.175-.309.548-.238 1.711-.869 1.711-.869l-.364 1.882c-.488-.548-1.888-.145-2.826.223-.473.148-.614.444-.734.855-.21.702.238 1.186.755 1.416.344.154.874.091.874.091-2.429.92-1.946 1.26-3.363.562-.613-.66-1.213-1.358-1.446-2.214zm2.542.001c-.403-.463-1.105-.73-1.513-.546-.364.192-.233.595-.117.903.307.851 2.441.576 1.63-.357zm-1.417-2.345c.57-.743-.057-1.743-1.109-1.75-.731 0-1.12.45-1.113 1.02.015 1.078 1.747 1.35 2.222.73zm-1.169-2.832c1.055-.285 1.378-1.303.65-2.041-.519-.525-2.146-.59-2.58-.116-1.112 1.212.133 2.644 1.93 2.157zm.877-3.724c.62-.316.74-.841.192-1.438-.993-.842-2.727-.186-2.167 1.041.275.601 1.22.781 1.975.397zm-126.94-28.27c.93-.338 1.603-1.057 2.584-1.61.66-.36.462-.302-.384-.795-.666-.304-2-1.649-2.124-1.328-.303.573-.26 3.707-.076 3.733zm23.55 32.822c.037-.64.115-1.603.097-2.31.126-1.346-.117-.953-.849-.513-.541.348-1.41.876-1.75 1.045-1.343.667-1.182.702.708 1.608 1.587.708 1.765.638 1.794.17zm-1.844-3.152c1.284-.805 1.71-1.22 1.772-2.124.01-1.04-.115-1.418-1.03-.698-3.124 2.456-6.339-2.362-3.48-5.039.583-.546 1.324-1.4 1.33-1.617.047-1.552-1.708-.045-3.142 2.087-1.588 1.938-2.577 4.364-1.184 6.692 1.114 1.704 3.595 2.042 5.734.7zm-7.096-3.135c-.056-.76.158-1.61.258-1.862.35-.89.335-1-1.256-.26-.635.209-1.392.378-1.684.376-1.3-.01-.975.4.888 1.945 1.872 1.555 1.934 1.695 1.794-.2zm4.427-7.443c.198-.468-.214-.648-.61-.56-.03.01-.712.513-1.513 1.141-2.427 1.903-4.207 2.125-5.412.675-1.22-1.47-.71-3.212 2.019-5.208 1.204-.88 1.493-.94.914-1.325-.44-.293-.467-.248-2.198.918-3.488 2.351-4.532 3.957-4.183 6.296.072.96.577 1.464 1.067 1.838 3.325 2.933 7.939-1.111 9.916-3.775zm3.52 1.388-.21-3.237c-3.546-3.044-6.91-8.242-8.072-12.548-1.185-3.829-.24-11.816-.062-11.223l-1.916-3.613c-1.668 3.835-2.396 9.681-.582 15.638 1.54 5.057 4.623 11.182 10.843 14.983zm-14.936-1.886c1.127-2.154 1.161-1.921-1.015-1.94-2.485-.02-2.207-.322-.807 1.79 1.125 1.696.935 1.844 1.822.15zm1.492-2.951c1.431-.458 1.105-.353 3.004-1.582 2.18-1.412 2.27-2.183.083-1.096-2.81 1.397-5.278 1.04-6.193-.783-.817-1.624.887-3.65 3.692-4.442.959-.27 1.464-.5 1.467-.917.01-1.274-4.768.426-6.735 2.349-3.799 3.713-.475 8.118 4.683 6.47zm-6.14-5.781c.127-.194.469-.658.784-1.14 1.345-1.556.214-1.09-.98-1.516-.631-.232-1.278-.462-1.648-.406-.715.108.24 1.481.47 2.368.643 1.974.57 1.913 1.373.694zm5.084-3.558c2.408-.235 2.653-.467 2.656-.963 0-.493-.294-.398-1.503-.231-3.2.442-5.32-.369-5.777-2.067-.473-1.754 1.695-3.414 4.584-3.315 1.565.053 2.607-.486 1.654-1.003-.496-.27-4.806-.212-5.78.07-2.864.83-4.031 2.416-3.77 4.61.396 2.711 1.883 3.488 5.508 3.296.694-.037 1.58-.315 2.428-.398zm1.863-8.829c0-.423-.685-.484-2.957-.82-3.026-.447-4.378-3.235-2.554-4.912.691-.636 2.34-.909 3.257-.742 1.995.362 3.215.77 3.234.096 0-.601-.575-.644-4.32-1.431-5.658-1.192-8.765 4.337-4.24 7.041 1.718 1.027 7.575 1.611 7.58.768zm1.403-7.91c0-.212-.183-.375-.611-.542-.623-.242-1.041-.287-2.445-1.23-1.868-1.252-2.435-3.696-1.19-5.057 1.21-1.272-.966-2.772-2.7-1.338-1.803 1.49-1.651 3.83.424 5.683 1.911 1.705 6.516 3.478 6.522 2.483zm-9.168-.331c1.966-.918 3.379-.39 1.874-1.657-.845-.78-1.566-2.995-2.153-1.116-.45 1.12-.78 3.095-.792 3.29.132.133.102-.096 1.07-.517zm69.564-4.768c-2.24-.555-3.77-3.144-3.2-5.633.322-1.406 1.651-4.719 1.913-4.925.988-.78.853.258-.054 2.061-.828 1.84-1.472 3.32-1.216 4.416.364 1.56.998 2.75 2.626 3.145 1.145.278 2.224-.197 2.955-.71.966-.68 1.88-2.423 2.972-4.836.35-.679.818-2.763 1.4-1.491.28.658-2.05 5.037-2.922 6.146-1.096 1.396-2.948 2.215-4.474 1.827zm13.504-1.465c1.091 1.04 2.936 1.564 4.14 1.191 2.954-1.036 4.296-3.814 3.178-8.28-.566-2.504-1.05-4.061-1.54-4.37-.238-.151-.499.13-.73.478-.207.31.109.748.444 1.926 1.412 4.963 1.043 7.208-.68 8.156-2.5 1.376-4.642-.209-5.368-3.75-.116-.547-.458-1.663-.458-1.663-.192-.492-1.74-.383-1.177 1.265.17 1.276 1.35 4.318 2.191 5.048zm12.674-12.999c-.039-1.746-3.729-9.323-3.98-8.519 0 0-.016 1.771.129 2.468.055.263.246.507.403.787 3.207 5.69 2.712 9.702-.069 10.58-.947.428-1.153.85-.73 1.29.858.928 3.007-.906 3.425-1.572 1.052-1.493.906-4.218.822-5.034zm-53.698-1.288c1.209-1.343 3.859-5.979 4.676-8.41 2.514-7.24 5.156-15.565 5.887-23.261.08-.971.131-2.449.18-2.575-.198-.213-1.444-.101-1.863.112-.2.26-.066.836-.138 1.587-1.124 8.652-3.201 16.534-6.28 24.557-1.348 3.486-2.599 5.78-4.221 8.204-.284.423-.644.86-.786 1.105-.41.59-.108.975.367.726.844-.476 1.572-1.388 2.178-2.045zm-4.12 2.105c3.855-5.281 6.595-11.621 8.725-19.105 1.346-4.843 2.53-9.744 3.241-14.739.146-1.066.264-1.78.054-2.098-.52-.14-1.492-.053-1.829.206-.206.31-.069.932-.26 2.37-.492 3.716-1.23 7.448-2.477 12.334-3.29 10.813-6.314 16.867-10.286 22.164-.321.446-.607.735-.578.924.042.277.427.255 1.059-.138.824-.645 1.768-1.209 2.35-1.918zm-5.874 2.807c1.886-1.066 5.207-5.703 7.553-10.698 2.632-5.896 4.836-12.556 6.278-18.324.626-2.527 1.516-8.84 1.389-9.255-.151-.494-1.994-.083-1.739.258 0 0-1.831 10.147-3.801 15.74-3.658 10.383-6.822 17.428-10.226 20.815l-1.325 1.312s.018.388.302.447c.68.125 1.131-.071 1.57-.295zm-2.886-.414c4.255-2.372 9.24-13.449 13.308-27.357.696-2.38 1.968-10.347 1.968-10.347s-1.695.063-2.022.418c-.33.482-.277 1.707-.752 4.618-1.83 8.798-4.589 16.823-8.737 24.754-1.794 3.514-4.774 6.824-6.656 7.767-1.052.527-1.36 1.107-.59 1.15 1.298.045 1.413.316 2.356-.188zm58.314 123.881c-3.19-.01-5.902 3.041-8.317 6.878-5.137 7.86-8.59 20.997-9.43 27.978l1.937-.365c-.29.133 3.624-18.582 9.586-26.595 3.224-5.056 3.088-5.133 4.898-5.596 2.288-.587 4.123 1.882 2.988 3.369-.411.503-.862.133-.734-.584.405-2.289-2.944-2.729-3.88-.48-1.076 2.586 1.786 4.893 4.582 3.876 2.498-.88 3.545-4.362 1.79-6.935-.901-.87-2.205-1.643-3.42-1.546zm-16.8-.32c-3.821 4.784-5.714 9.701-8.06 16.415-2.345 6.707-4.03 13.268-4.76 20.796l2.062-.265c-.076-4.84 5.244-27.883 12.719-36.515.417-.547.752-1.001.72-1.128-.414-1.165-2.186.238-2.68.696zm8.443-1.787c-4.953 4.046-8.91 12.886-11.518 21.058-2.82 8.833-4.086 16.927-3.874 16.927l1.968-.288c-.147-.513 5.528-31.637 16.06-37.304.913-.454 1.104-.912.334-1.11-1.185-.166-2.139.222-2.97.717zm5.545.02c-10.815 1.42-17.882 34.506-18.118 37.253 0 .042-.04.256-.04.256l2.153-.443s.02-.105.028-.158c1.483-8.453 2.928-14.38 6.299-22.02 2.627-5.663 6.252-12.903 11.667-13.605.44-.057.858.119.704-.392-.33-.812-1.95-.915-2.693-.89zm-64.453-10.418c-3.908 1.002-4.036 5.675-1.432 11.646.196.452.161.698.36.872.445.388.794-.153.844-.51.075-.544-.157-1.274-.57-2.335-1.611-4.133-1.225-6.514.37-7.568 4.089-2.101 5.189 2.214 5.807 4.199.151.484.203 1.149.47 1.185.816.111 1.204-.177 1.192-.177 0 0-1.083-3.716-1.743-5.113-1.068-2.258-3.61-2.731-5.298-2.199zm-28.357 4.412-.04 49.255-7.483 7.012c-3.21-2.746-7.43-7.048-7.43-7.048l.134-83.267-2.408-.192c-.589 35.775-.17 72.083-.197 107.928l22.124.163 18.31-28.54s.232-.34.305-.52c.225-.551.199-1.373.088-4.407-.045-1.234.094-2.181-.088-2.47-.184-.293-.575-.083-.94.08-.37.166-.592.107-.392-.33.113-.248.48-.792.797-1.31 1.028-1.684 1.279-2.224.932-4.091-.085-.46-.508-.848-.875-1.389-3.082-4.54-4.337-11.27-2.807-16.2.488-2.18.312-2.621-.741-4.32zm96.849-52.961c-2.012-1.031-1.973-1.008-1.985.943.01 1.46.039 1.812.587 1.616.793-.403 1.763-.772 2.495-1.082 1.397-.48-.378-1.093-1.097-1.477zm7.963 5.073c-1.561-1.244-.985-1.101-1.427 1.704-.267 1.695-.611 1.738 1.145 1.178.996-.344 3.046-.127 2.127-1.295.01.02-1.539-1.328-1.845-1.587zm-62.727 43.063c-2.395 1.447-4.84 8.458-4.84 8.458-8.37.996-11.873 9.215-12.247 16.068-.295 5.41-.663 11.728-.116 12.281 5.487-2.464 7.6.38 8.12-.387.238-.334-1.216-1.444-3.043-2.44-.424-.231-1.081-.647-1.33-.853-.667-.551 1.33-.077 2.591.78 1.61 1.095 1.88.867 1.182-2.33-.76-3.475-.884-3.901 1.79-5.279 1.07-.55 1.68-1.019 2.445-1.876.613-.687.77-.854.544.155-.39 1.747-1.946 2.509-3.348 3.218-.697.357-.985 1.075-.989 1.691 0 .629.72 4.025 1.054 5.11.31 1.031.425 2.064.664 3.115.629 2.728.67 3.263.352 5.243-.187 1.16-.281 1.823-.217 2.524.06.638.148 1.505.148 1.505 0-.03-1.494-1.533-4.771-.245-2.363.929-4.23-.039-5.553-.727-.305 1.075-.236 2.241-.2 3.474 13.625 2.489 25.261 2.155 35.058 1.13.254-2.893 1.489-12.094 4.083-20.39 1.08-3.452 2.3-7.091 3.677-9.52.939-1.656 1.896-2.772 2.235-2.964.106-.064.115-.098.113-.142v-.26c-.034-.537-.165-1.37-.628-1.74-1.13-.9-2.935.26-3.528 2.269-.52 1.204-2.89 6.41-3.06 6.323-.14-.088-.468-.094-.35-.496.908-2.111 2.156-4.342 2.858-6.237.97-2.727 3.08-4.167 4.656-2.447.54.59.758 1.133 1.006 1.32.187.142.438.045.593-.188.595-.895-.783-2.926-2.262-3.334-2.134-.59-3.724.966-6.144 6.009-1.398 2.911-1.648 3.642-1.869 3.418-.049.02-.42.02-.286-.544.288-1.213 2.143-4.736 3.486-6.97 1.988-3.308 5.68-3.576 7.231-.705.238.391.25.903.513 1.252.477.615 1.26.493 1.455-.517-.212-.67-1.51-3.086-2.411-3.507-2.076-1.425-4.595-1.146-6.716.746-.48.429-.982 1.3-2.388 4.153-2.072 4.573-2.127 4.59-2.693 3.854.833-2.225 3.024-5.84 3.909-8.059.168-.33.202-.686.19-1.027-.052-1.613.211-4.463-3.202-6.488-2.911-1.568-6.755.082-8.063 3.166-1.003 2.363-1.735 3.987-2.24 4.321-.71.47-.577-.185-.507-.423 1.009-2.138 2.428-4.299 2.652-6.45.147-5.824-5.76-7.976-9.601-5.038zm-30.497-109.119c4.61-2.142 7.766-3.22 12.463-4.604.635-.277.736-.341.062-1.674-2.976-5.888 5.19-10.582 7.965-4.802.37.77.456 1.197.82.828.683-.894 1.494-2.164 2.337-3.613 3.124-4.838 4.537-10.357 6.203-15.227.691-2.862 1.655-5.853 1.928-8.922-6.197-10.782-10.513-21.157-17.092-30.757l-43.382-.03-.163 86.676c12.13-10.115 20.388-13.775 28.859-17.875zm48.833-3.185c.526-.555.982-1.477 2.868-5.346.337-.69.875-1.76 1.094-2.259.283-.91 1.343-1.48.826.15-.117.352-.319.827-.64 1.458-.627 1.128-1.223 2.509-1.67 3.411-2.412 4.832-2.297 7.648.398 9.745 2.014 1.924 6.242 2.14 8.492-.965.337-.5.637-1.145.735-1.38.978-2.373 1.7-3.56 1.884-3.794 1.001-1.27 1.162.304-.334 2.726-1.713 2.776-1.743 5.784-.262 7.9 2.196 3.138 6.366 3.227 8.984.71 1.36-1.594 2.442-3.622 3.313-6.214.193-.575.392-1.002.534-1.339.218-.519.532-.712 1.344-.868 5.572-1.066 10.249-6.783 10.912-13.024.087-.844.328-2.338.416-3.224.174-1.77.178-10.93 0-11.477-.095-.295-.26-.451-.623-.447-.279 0-.673.101-1.239.303-1.837.655-2.692.821-4.457.19-.583-.208-.986-.279-1.225-.258-.779.067.256 1.183 2.525 2.416.973.529 1.741 1.241.953 1.188-.229-.015-2.968-1.43-3.346-1.662-1.248-.764-.923.199-.28 2.732.864 3.402.366 4.358-2.322 5.69-.501.25-1.166.768-1.504 1.102-1.425 2.104-1.057.554-.34-.567 1.227-1.283.475-1.72-2.039-.831-2.866 1.014-4.162.273-4.964-1.32-.907-1.8.8-4.117 2.222-4.072.46.015.378.18-.301.644-.82.56-1.209 1.099-1.294 2.054-.174 1.948 1.22 2.775 3.169 1.469.92-.617 1.644-1.043 2.341-1.201.69-.157 1.728.1 1.724.651 0 .228-.033.786.016.91.183.616 1.17-.257 1.6-.567 1.467-1.096 1.419-1.312 1.018-3.09-.655-2.49-.986-4.765-1.61-7.288-.334-1.322-.39-2.815-.187-4.162.102-.675.364-2.063.418-3.013.053-.95-.01-2.308.029-2.308 1.457 1.115 2.05 1.31 3.47.77 2.201-.901 3.591-.807 5.445.08.686.327 1.31.558 1.31.558l.085-2.857s-1.716-.353-4.888-.77c-9.547-1.253-29.138-1.518-29.867-.366-.185.293-.37 2.334-.89 5.172-1.156 5.896-2.45 11.772-4.183 17.526-.356 1.172-.695 1.645-.514 1.68.075.013.429-.44.594-.63.929-1.071.217 1.472-1.185 4.537-.127.276-.23.58-.231.673 0 .185-.882 2.32-1.49 3.611-.377.803-.69 1.045-.687.532.426-1.766 1.553-4.05 1.715-5.622-.987 1.424-2.424 3.776-3.511 5.179-.2.378.012.495.187.962.654 1.744 2.236 1.9 3.151.32.51-.88 2.095-4.198 2.646-5.65.567-1.494.965-2.281 1.154-2.379.38-.196.452.653-.22 2.066-2.04 4.288-2.915 6.691-3.913 7.577-.776.688-2.117.644-2.862-.58-1.263-2.075-2.342-1.388-1.182.74 1.197 2.199 3.933 2.404 5.362.424.472-.654 2.692-4.889 3.39-6.61.39-.962.806-1.711.945-1.765.745-.286-.106 1.909-2.246 6.304-.694 1.697-1.808 3.478-3.316 4.03-3.664.801-4.16-1.135-5.434-3.342-.62-.55-1.18.329-.943 1.299.384 1.574 1.103 2.19 2.214 2.98 2.319 1.476 5.543.46 6.712-1.222zm16.347 9.196c-.333-.735-.285-1.481-.115-2.177a17.855 17.855 0 0 1 1.763-4.417c1.203-.568.284 1.695.134 2.03-1.452 3.025-1.589 4.195-.235 4.544 1.16.298 1.785-.41 2.882-3.122.563-1.391.788-2.007.987-2.088.422-.17.626.001.6.426-.725 1.78-1.292 3.651-2.484 5.13-1.166.975-2.922.98-3.532-.326zm-10.885-2.323c-.505-.098-1.37-.75-1.972-1.3-2.05-1.877-1.712-4.47.83-9.347.198-.379.937-1.853 1.175-2.337.426-.867.844-.528.84.046 0 .161-.635 1.508-1.277 2.757-2.808 5.485-2.711 7.722.017 9.027 2.663 1.273 3.856.54 5.98-3.646 1.228-3.143 1.833-3.195 1.766-2 0 .445-1.49 3.459-2.449 4.86-1.39 2.03-2.595 2.39-4.91 1.94zm.202-2.647c-1.045-.646-1.472-2.254-.854-3.57.562-1.086 2.002-5.246 2.679-5.48 1.087-.038.507.873-.841 3.431-1.595 3.39-1.537 4.296-.307 4.815 1.14.48 1.68-.504 3.36-4.469.263-.622.632-1.269.848-1.133.267-.02.73.18-.153 1.977-.21.43-.565 1.33-.958 2.17-1.148 2.452-2.451 3.077-3.774 2.26zm18.87-7.194c-.46-.236-2.615-1.083-2.296-1.784.04-.066.165-.014.229.028 1.974 1.321 4.43 1.657 6.99-.177.431-.38.753-.123.512.353-.775 1.537-4.227 2.194-5.434 1.58zm-6.34-2.229c.06-.147.236-.586.394-1.177.237-.887.181-1.54.391-1.427.895.483 2.494.494 3.277.017.858-.523 2.6-.683 3.234-.271.907.589 1.368.315 2.004-.18.717-.558.73-.32 2.025.13.957.331 1.333.558 1.74.484.155-.028.471-.382.572-.364.311.056.346.938.633 1.944.253.89.109 1.105-.69.572-.594-.397-2.303-.584-4.079-.04-1.316.403-1.619.24-2.585.078-2.406-.407-4.143-.72-5.937.317-.958.554-1.305.842-.98-.082zm-5.987-4.398c-1.167-2.336 1.516-5.43 3.874-4.338.781.363 1.477 1.735.32 1.105-5.362-1.08-4.023 6.762 1.736 2.62 3.827-2.538 6.535-2.93 6.76-.476-.107.902-.909.758-1.517.84-1.586.222-2.173.48-4.01 1.266-2.797.88-5.53 1.599-7.163-1.017zm20.982 1.08c-1.308-.336-2.445-.852-3.809-1.099-1.351-.235-1.961-.94-1.717-1.887.254-.985 1.607-1.09 3.64.15 2.255 1.375 3.89 1.708 4.714 1.19 1.669-1.048.769-2.755-.823-3.191-1.195-.332-.316-.796.969-.414 2.073.785 2.117 4.526-.015 5.303-.713.26-1.97.19-2.959-.052zm-18.264-12.384c1.522-.94 2.993-1.779 3.516-2.34.275-.294 1.039-1.282.446-.98-3.105 1.862-6.71.315-9.321-.96-1.254-.585-.946-.326-1.909-.262-.653.043-1.177.18-1.294-.286-.052-.205-.417-.12-.651-.142-.965-.095-.355-1.371 1.672-2.777 2.39-1.658 4.476-2.74 6.547-3.187 2.15-.464 4.343-.202 5.951 1.345.618.594.564.99 1.129.625 1.288-.833 1.3.272.212 1.295-.746.702-.473.893.44 1.561.436.32.079.623-.165 1.088-.092.283-.02.595-.064.81-.204.999-4.756 4.528-6.404 5.13-1.134.211-.54-.642-.106-.92zm3.16-6.483-.755.01c-.86 2.622-2.449 3.516-3.77.372l-.603.06c-.027 2.664 4.563 4.337 5.129-.442zm-4.97 2.46c-.312-.523-.662-1.722-.988-1.739-.888-.037-2.114.122-1.824.671.459.87 3.174 1.673 2.812 1.067zm6.083-.468c.818-.492.992-.831.458-1.372-.689-.698-1.049-.342-1.265.773-.186.958-.052 1.115.807.599zm-11.092-1.845c5.48-2.476 7.558-2.796 9.785-2.183.516.142.972.43 1.26.413 1.067-.064.387-1.256-1.527-1.94-2.186-.78-3.572-.425-7.773 1.762-2.46 1.28-4.459 3.174-1.745 1.948zm15.883-3.005c-.078-.148-.41-1.133-.504-1.493-.094-.36-.18-.73-.282-.732-2.543.406-4.778-.07-5.38-.212-3.845-.916-7.56-.73-10.334.354-.678.265-1.518.694-1.598.77-.22.204-.544-.028-.542-.284 0-.3 1.704-1.645 2.777-2.176 3.264-1.614 6.708-1.89 10.49-.874 2.464.943 4.053.79 5.627.102.774-.338.225.498-.02 1.607-.17.768.017 1.426.05 1.86.096 1.049-.024 1.575-.284 1.078zm57.289 221.437v-86.85c-14.419 10.618-41.689 21.695-41.689 21.695 3.434 6.986-4.13 12.964-8.47 5.87-4.465 5.006-10.616 22.537-10.834 28.358 0 0 11.877 20.706 17.673 30.927zm-79.416-28.598c.397-4.36 1.33-11.753 4.239-20.356 1.22-3.609 2.691-7.75 4.77-11.457.83-1.296.888-1.797 0-1.33-.556.293-3.098 3.153-3.443 3.876-3.9 8.212-5.703 18.078-7.13 25.61-.323 1.694-.418 3.8-.418 3.8zm2.852-.358c.928-10.593 4.832-24.895 10.697-34.216.551-.889 1.23-1.66 1.205-1.967-.077-.906-2.335.66-4.087 3.334-1.956 3.873-3.916 8.004-5.416 12.577-2.116 6.456-3.661 12.42-4.263 20.515zm5.637-.885c.588-6.104 2.485-11.704 4.076-17.314 1.946-6.86 4.543-11.909 7.569-16.455.97-1.458 2.116-2.823 3.205-4.213.139-.167.278-.468.247-.594-.7-.122-1.256.095-1.796.397-.755.422-1.817 1.487-2.437 2.276-4.31 5.488-6.63 11.895-8.782 18.369-2.067 6.216-3.556 12.195-3.847 17.824zm-38.714-4.678c.867-.068 1.425.095 1.677-.135.25-.228.168-.843.247-1.629.168-1.68-.01-1.588-1.058-.502-1.74 1.797-4.917 2.49-6.807 1.403-.953-.548-1.616-.928-1.706-.472-.104.532.04.938.448 1.222 2.289 1.042 4.462.326 7.199.113zm-2.046-1.287c1.205-.4 2.43-1.042 3.12-2.023.658-.936.647-1.07.149-.892-2.45 1.202-4.06 1.814-6.25 1.482-2.966-.45-3.089-.073-1.129 1.152 1.283.802 2.347.825 4.11.28zm-4.354-3.754c.46-.338.577-1.715.207-1.793-.375-.08-.92.604-1.054 1.16-.15.739.398.928.847.633zm4.591-.06.788-.07c-.403-3.453-4.159-3.603-4.852.346l.595.088c.776-3.148 3.047-3.061 3.469-.363zm2.476-.555c1.15-.64.752-1.432-.798-1.735-1.017-.239-.96.592-.433 1.718.262.56.445.454 1.231.017zm-8.845-4.233c-.01-.384-.168-1.005-.35-1.379-1.325-2.707-2.056-5.906-1.906-9.88.108-2.85.144-3.73-.45-3.734-.829.398-1.318 5.699-.263 10.113.744 3.115 3.024 6.98 2.969 4.88zm-.032-4.314c-.081-1.489.247-4.825.084-5.553-.215-.957-.783-1.821-1.103-2.051-.497-.357-.622.327-.45 2.116.404 4.196 1.08 7.373 1.47 5.488zm.419-7.639c.327-.588.2-1.212-.521-2.616-2.84-5.527-3.208-9.304-.242-10.677.332-.153.541-.183.762-.305.936-.517.58-1.456-.82-1.069-3.863 1.071-4.625 4.68-1.368 11.358 1.66 3.333 1.916 3.799 2.189 3.31zm.703-3.134c.051-.232.151-1.135.19-1.32.038-.185-.351-.717-.77-1.783-1.092-2.783-1.114-3.938.074-4.744.385-.226.782-.237.842-.496.093-.404.086-1.068-.157-1.26-1.704.012-2.491 1.003-2.79 1.947-.45 1.492.02 3.677 1.357 6.386.649.844.988 2.388 1.254 1.27zm1.303-3.601c.911-1.836.047-4.214-1.207-3.403-.814.527-.855 1.083-.356 2.611.608 1.861.968 1.99 1.563.792zm3.196-4.91c.365-.36.04-.878-.633-2.906-.578-1.737-.314-2.923.786-3.266 1.578-.388 2.136 2.186 2.468 3.271.172.838.724 1.07 1.213.487.138-.164.177-.3-.057-1.213-1.018-3.991-2.35-5.26-4.494-4.267-1.988.922-1.728 2.983-.286 7.318.192.58.321 1.01.46 1.07.114.05.34-.295.543-.494zm1.76-1.356c.472-.465.444-.255-.095-1.92-.615-1.898-.938-2.294-1.6-1.642-.405.401-.2.842.263 2.395.538 1.805.682 1.908 1.433 1.167zm82.418-6.5c3.138-2.158 1.844-6.033-2.286-7.47a16.98 16.98 0 0 1-1.193-.455c-1.897-.91-3.373-1.191-3.377-.48 0 .419.567.63 2.386 1.514 2.69 1.307 3.298 2.818 1.97 4.723-.957 1.373.836 2.945 2.5 2.168zm2.847-4.715c.272-1.108.677-2.058.871-2.703.266-1.01-.077-.776-.747-.618-1.73.895-2.968.409-2.127 1.639.933 1.637 1.703 2.9 2.003 1.682zm-.215-3.872c2.155-1.287 2.633-4.64.628-6.239a7.266 7.266 0 0 0-2.315-1.192c-2.04-.62-4.987-.902-6.067-.576-.231.273-.241.701-.01.826.301.112.844.185 1.63.265 2.998.304 4.478 1.194 4.334 3.317-.148 2.187-1.902 3.028-5.067 2.336-1.703-.372-2.496-.192-1.813.205.812.472 2.56 1.092 4.28 1.43 1.472.258 3.15.356 4.4-.372zm-10.344-.552c2.426-5.429 3.704-19.67-10.158-29.963l.458 2.848c8.168 7.136 10.129 16.224 8.437 24.56zm12.376-9.733c-.868.56-1.594 1.143-2.708 1.64-.667.297-.684.37.223.863.438.238 1.16.677 1.436.974.48.516 1.045.714 1.257.526-.022-.808.255-3.48-.208-4.003zm-4.103 1.029c2.808-.884 4.31-2.231 3.99-4.485-.47-3.305-3.242-4.004-8.436-2.712-2.498.621-2.72 1.79-.35 1.188 2.995-.761 5.345.39 5.027 2.574-.186 1.886-1.706 2.984-4.376 2.984-1.41 0-1.845.125-1.654.632.13.344 4.642.183 5.8-.181zm-4.635-7.853c4.59-1.568 6.723-4.006 5.675-6.737-1.234-3.216-5.24-3.248-9.265-.255-1.88 1.372-1.592 1.88.23 1.182 2.361-1.082 3.88-1.249 4.848-.389 1.746 1.553.568 4.262-2.08 5.233-1.283.532-1.695.825-1.698 1.209 0 .607.23.46 2.29-.243zm7.742-.05c.118-.951-.96-4.252-1.427-3.492-.123.2-.552 1.133-1.093 1.617-1.58 1.41-1.28.876.287 1.307.872.24 2.103.852 2.233.568zm-12.14-7.053c4.641-2.681 6.412-6.507 4.007-9.05-2.161-2.287-5.744-.956-9.073 3.2-1.526 1.907-.38 1.667 1.678-.145 2.396-2.112 5.444-1.093 5.428 1.543-.01 1.126-1.605 3.019-3.116 3.899-.47.273-.538.692-.372.964.18.294.556.105 1.449-.411zm8.135-2.797c-.243-.72-1.989-3.813-2.363-3.707-.396.793-.425 1.836-.9 2.677-.647 1.264-.565 1.066 1.496 1.06 1.533 0 1.719.209 1.767-.03zm-13.638-3.496c3.898-4.033 4.242-8.755.59-9.842-2.023-.602-5.258.856-5.267 2.362-.01.937.17 1.107.99.77 3.444-1.277 6.175 2.025 3.01 5.82-.77 1.099-.873 1.375-.649 1.602.263.266.477.166 1.326-.712zm41.988-34.485v-106.886h-22.814l-18.12 28.218-.028 6.984c0 .241.412.391.679.088 1.03-.794.632.04-.552 1.837-1.198 1.817-.831 3.314.478 5.254 2.775 4.112 4.222 11.66 3.041 15.65-.446 1.507-.545 2.115-.254 2.958.332.964.537 1.479 1.5 2.1.838.582 7.73 3.26 18.832 10.377l-.054-50.216 6.995-6.684 7.39 7.048.258 82.905c0 .877 1.72 1.276 2.65.368zm-4.002-83.036-6.187-5.744-6.117 5.66c-.032 27.004.156 82.428.156 82.428l6.078.435s.447-1.264-.123-4.533c-.854-4.905-.8-10.895.572-20.005.855-5.59.01-10.437-1.291-15.54-1.126-3.401-1.166-6.548-.962-9.59.433-4.851 1.772-8.514 1.936-15.494.093-3.978-.097-7.874.05-12.781.06-.658.338-.577.387.102.186 4.442.36 8.66.4 12.998-.134 5.64-1.517 11.445-1.67 16.608-.113 3.577-.171 4.814 1.344 9.169 2.38 6.844.814 17.358.786 17.544-1.01 6.736-1.745 15.354 1.662 21.8l3.301.294zm-42.567 50.943c1.825-.836 2.186-2.312 1.204-5.868a69.972 69.972 0 0 1-.445-1.677c-.21-.877-.606-.974-1.134-.276-.316.417-.024.514.46 2.47.733 2.955.307 3.932-.795 3.925-.977-.01-1.738-.809-2.017-2.726-.095-.655-.234-1.101-.393-1.363-.265-.44-.585-.36-.843.125-.334.628.293 3.214 1.126 4.467.904 1.264 1.526 1.524 2.837.923zm-.498-2.653c.389-.728-.093-2.52-.344-3.692-.232-.655-.495-.815-.93-.709-.647.158-.615.864-.381 2.026.477 2.366.735 2.664 1.655 2.375zm5.55-4.269c2.088-1.187 2.288-3.234.885-6.958-.576-1.526-1.292-2.601-1.687-2.613-.155.972-.299 1.49-.125 1.87.163.354.437.896.633 1.349 1.188 2.746.868 4.33-.28 5.188-1.07.801-.393 1.475.574 1.164zm-68.36-1.431c4.9-1.045 9.318-8.894 12.1-15.893 2.536-7.051 5.23-14.8 5.657-21.26 0 0-1.853.085-2.08.467-.21.376-.302 1.187-.498 2.34-1.278 5.945-2.293 10.459-4.52 16.045-1.548 3.878-3.235 8.268-7.424 14.164-1.376 1.648-2.95 2.67-4.929 2.944-.503.07-1.351-.024-1.565.127-.375.264-.037.863.932 1.105.867.216 1.748.075 2.328-.04zm67.5-.918c.747-.792.82-1.733-.017-3.724-.235-.557-.343-.873-.622-.796-.59.165-1.28 1.713-.873 3.023.532 1.707.842 2.207 1.512 1.497zm-69.209-1.247c1.435-.19 3.253-1.328 4.566-3.11 2.7-3.52 4.562-7.525 5.944-10.638 1.106-2.509 3.103-7.924 3.645-9.885 1.153-4.166 1.783-6.854 2.309-9.836.048-.274.094-.712.012-.853-.569-.155-1.815-.062-2.197.32-.688 4.782-2.287 9.58-3.456 13.568-1.97 6.784-7.59 17.637-10.652 18.149-1.648.275-3.535-1.153-3.232-2.617.187-.9.31-1.242.753-1.467 1.068-.374 1.689.35.517.823-1.357 1.176 1.086 2.974 2.586 1.718 2.544-2.13-1.193-6.21-4.251-4.335-3.389 2.077-2.518 5.675-.387 7.384 1.074.862 2.319.983 3.843.78zm23.994-4.87c2.094-2.141 3.666-4.914 4.81-8.38 2.478-7.783 4.533-16.706 5.277-23.697 0 0-1.788-.183-2.186.193-.28.266-.012.52-.773 5.628-1.276 7.446-3.138 14.842-5.832 21.244-1.104 2.589-1.417 2.906-2.196 4.25-1.088 1.9-.685 2.383.9.762zm46.444-16.227c-.194-.1-.177-.034-.26.022-.285.197-.099 1.192.55 2.727 1.706 2.745 1.905 8.073 1.794 10.076-.034.6-.096.946.087 1.48.181.525.499 1.134 1.01.113.562-3.945.12-8.075-1.396-11.42-.536-1.19-1.059-2.351-1.784-2.998zm1.314 11.633c.3-1.06-.253-5.27-.938-6.75-.276-.596-.776-.642-.716.036.01 1.458-.152 4.232 0 5.053.746 1.715 1.327 2.807 1.65 1.661zm-3.864-17.005-.805.001c.028 2.753-2.422 3.518-3.325.212l-.725.167c.964 4.667 5.32 2.527 4.855-.38zm-4.896 2.076c-.419-1.222-.246-1.668-1.308-1.12-.81.42-1.297.867-.155 1.415 1.016.43 1.727.477 1.463-.295zm6.135-.704c.336-.677.296-1.289-.21-1.292-.392 0-.5.308-.611.966-.198 1.174.293 1.39.82.326zm.426-4.574c.31-.098.222-.534.139-1.089-1.328-1.839-4.612-1.276-5.791-.91-1.362.44-1.704.276-2.63-.147-.767-.142-.875.044-1.061.408-.164.321-.193.932-.246 1.995-.045.899-.013 1.316.3 1.035 1.216-1.088 2.623-2.447 4.677-2.532 2.489-.102 4.614 1.28 4.612 1.24zm-9.04 2.49c0 .37.314.14 1.124-.367 2.947-1.745 4.654-1.498 7.178-.666.561.185.91-.401.3-.9-2.997-2.455-6.688-.89-8.603 1.933zm10.678-11.306 15.988-26.358-89.072-.065 15.124 27.984c12.334-2.846 32.634-6.479 57.96-1.561z"/><path style="fill:#d40000;fill-opacity:1;stroke-width:.153601" d="M1096.688 2019.336c-8.545-7.99-17.44-.778-17.237-.321-3.382-3.43-6.689-6.238-11.147-4.858 0 0 0-1.203.034-1.23 13.29 2.427 33.648 3.056 57.443-1.913l1.222 2.549c-6.382-2.264-9.67.79-12.499 4.355-10.242-6.378-12.741-.782-17.816 1.418zm19.929-92.925 6.045-.118c1.139 17.558 15.826 44.426 16.18 44.426-1.024-1.419-10.72-.3-10.649-.121-5.331-14.207-11.186-28.4-11.576-44.187zm-35.257 41.653s-1.945-5.034-3.109-7.187c6.347-10.824 11.553-22.027 14.223-34.486l4.323.038c-1.28 17.2-15.064 43.32-15.437 41.634zm77.767-2.303c9.52-17.158 7.878-41.89-19.134-55.557 0 0 .704-18.128 2.713-18.17.453.141 12.226-.15 12.226-.15 3.084-7.56 8.048-16.703 14.983-22.876l.174 20.263c-5.133.505-8.263 2.141-9.818 6.15l-7.112 1.582c.523 20.355 8.192 39.163 30.937 56.055-5.435 4.666-24.014 14.137-23.942 13.971zm-113.97-12.79.202-21.1c3.45-.744 6.168.254 9.016-5.92 0 0 4.779 2.266 6.367 3.101-4.467 7.983-8.324 16.514-15.585 23.92zm45.283-37.358.235-10.712 10.183.293c-.864 3.633-1.134 7.265.02 10.898zm23.233-.13c.696-3.505 1.192-7.03-.25-10.749l11.027.188-.26 10.668zm-20.97-20.947c-1.834-21.01-16.249-44.792-16.451-44.286 1.698.272 4.689 1.112 6.335.334 1.993.33 3.72.105 3.814-.08.132-.734 13.4 30.507 11.628 43.984-.21.455-4.894.486-5.326.048zm25.486.184c1.556-9.706 5.573-27.46 15.06-41.86 1.078 2.557 1.983 5.186 3.462 7.575-7.152 10.394-11.56 22.274-14.234 34.401zm-65.934-5.232c-4.34-8.844-22.397-22.767-21.473-21.36 7.474-6.692 15.81-10.943 24.131-15.236 0 0 1.48 1.402 1.255 1.755-5.115 8.053-7.595 25.116-2.642 34.895 4.76 10.445 13.203 16.62 21.811 21.468-.666 6.53-.991 11.251-2.6 17.744 0 0-5.409-2.841-9.842-4.67-.705-12.333-3.26-23.364-10.64-34.596zm47.822-86.663c6.364 3.875 12.064 3.467 17.59-1.792 6.937 6.287 14.439 3.359 17.609.524 2.933 3.301 6.755 5.133 12.344 4.042l-1.384 2.903c.331-1.543-38.547-4.06-57.358 1.2 0 0-1.1-2.19-.977-2.208 1.637-.1 7.086 1.917 12.176-4.67z"/><path style="fill:#000;stroke-width:.153601" d="M1001.678 1765.348v2.957l2.842-.154v25.522l-3.072.014v3.033h8.525v-3.033h-2.228v-7.34l3.72-4.838 4.882 12.178h-3.072v3.033h9.331v-3.033h-2.587l-6.514-15.595 6.668-9.941h2.088v-2.804h-8.986v2.804h2.822l-8.352 12.187v-12.187h2.228v-2.804zm71.05 15.958 15.716 29.244s.46-.084.69-.13c21.782-4.253 39.034-4.835 57.563-1.579l16.472-27.226c-29.979-.34-90.44-.31-90.44-.31zm1.752 1.245 87.39.096-4.915 8.055c-2.944-.908-4.585.44-4.997 3.259 0 0-.364-.157-1.047-.23-4.307-.466-4.85 5.204-.83 5.89 1.026.174 1.2-.03 1.2-.03-3.586 3.01-5.623.98-7.31-.014-.047.352-3.215 2.73-6.202-.115 4.278.427 4.944-3.857 2.899-5.486-.428-.42-.864-.75-.864-.75 1.007-.876 1.226-2.04.58-3.374-1.297-2.681-5.363-2.525-5.985.403-.242 1.14-.25 1.34-.25 1.34-3.283.214-3.95 3.311-2.822 5.03.642.977 2.052 1.19 3.355 1.123-1.756 2.486-5.775 1.64-7.565-.408-2.844 3.34-6.086 2.934-7.704 1.143 1.1-.012 1.857-.028 2.866-.96 1.725-1.594.878-4.422-1.56-5.213a4.083 4.083 0 0 0-.84-.187c.017-.024.063-.181.168-1.032.606-4.931-6.786-4.444-6.072.408.083.562.235.864.235.864s-.784-.044-1.233.163c-4.106 1.891-1.277 7.1 1.896 5.76.3-.127 1.12-.529 1.238-.523-3.93 4.868-7.229 1.417-8.098.888-2.654 3.933-7.263 1.25-7.358.974.287.08 1.151-.098 1.973-.518 2.597-1.353 1.862-4.834-.164-5.592-.62-.217-1.37-.24-2.212-.173 0 0 .064-.877-.02-1.186-1.276-4.74-7.177-2.374-5.726 1.632.127.352.47.706.47.706s-.8.485-1.156.806c-2.817 2.533.05 6.71 3.34 4.973.425-.224.837-.695.956-.667-1.548 2.827-3.898 3.814-7.248 1.474-2.067 3.273-5.439 1.913-6.39.273 3.151.288 5.197-5.746-.858-5.942-.471-1.639-.448-4.136-4.287-3.706zm-20.448 3.519c-3.287 8.715-12.568 16.603-17.942 26.419-6.073 9.936-4.166 20.098 4.099 21.855 4.332.92 9.984-3.245 10.488-7.729.103-.915.44-1.399 1.056-1.324.48.058.436 1.24.254 2.659-.663 4.662-3.19 12.06-6.46 15.47l15.206.01c-.611-.345-6.288-7.438-5.736-16.041.01-1.539.01-2.05.691-2.045.547 0 .553.257.715 1.766 1.025 9.55 12.899 10.587 16.628 1.455 1.882-4.609-.09-12.81-5.055-19.824-3.77-6.172-10.186-13.347-13.944-22.671zm6.701 57.36c.033.02.056.022.058 0zm56.424-50.525c.694 0 1.253.564 1.253 1.257a1.255 1.255 0 1 1-2.51 0c0-.693.564-1.257 1.257-1.257zm19.527.149a1.333 1.333 0 0 1 0 2.664 1.333 1.333 0 0 1 0-2.664zm-38.276 1.454a1.285 1.285 0 0 1 0 2.568 1.289 1.289 0 0 1-1.286-1.286c0-.709.578-1.282 1.286-1.282zm54.831 1.58-1.113 1.977c-1.229-1.077-.382-2.488 1.113-1.978zm-70.119 2.726-1.107-2.045c1.982.134 1.398 1.553 1.107 2.045zm33.874-1.114c7.5 8.545 14.226 6.018 18.624.336 1.887 4.842 6.09 8.19 13.325 4.935-.437.774-1.536 2.14-1.536 2.14-6.393 1.722-9.566-1.286-12.033-4.152-6.505 5.4-12.63 4.091-17.684-.672-4.314 5.43-11.299 6.598-17.765 2.165-2.956 4.363-7.196 6.124-12.528 3.941 0 0-1.131-1.778-1.229-1.891.773.648 10.592 4.724 12.99-5.079 3.418 5.801 14.625 6.11 17.836-1.723zm.754 3.514c8.436 7.888 17.29 1.067 17.515.585.133.439 4.948 6.188 11.89 4.028l-1.128 1.934c-13.063-2.21-25.08-3.63-52.599.418 0 0 4.392-1.301 6.615-4.805 1.236.803 10.783 6.132 17.707-2.16zm-106.657 2.237c-.768 1.859-2.023 3.782-3.072 5.5-4.937 7.66-5.218 8.395-5.611 11.098-1.099 5.292 5.15 7.433 7.142 3.82.893-1.526 1.455-.532 1.056.913-.254 2.538-2.838 5.479-2.846 5.424l7.57.058s-3.248-3.307-3.197-5.962c0-1.213.65-1.248 1.44-.158 2.259 3.118 6.471.61 6.499-3.826.017-2.717-.808-4.242-5.727-11.558-1.072-1.601-2.254-3.617-3.254-5.309zm77.089 4.3s3.672.431 3.96.504c.322.25-3.092 1.188-3.106 1.119zm7.444 37.637c-.222.01-.5.258-.96.71-.996.981-1.222 1.11-2.188 1.249-.73.104-2.268.99-3.202 1.843-.252.23-.734.423-1.31.523l-1.532.264c-.341.058-.712.167-.825.235-.49.3-1.289.345-2.184.13-.864-.207-1.002-.202-1.954.091-1.386.427-2.294.428-2.976 0-.682-.427-1.766-.587-2.453-.365-1.016.329-3.649-1.247-3.643-2.179 0-.211-1.496-1.332-1.872-1.334-1.334-.198-13.058 4.43-12.999 4.699 14.396 17.78 26.515 44.87 17.386 78.02l-1.613-.773c1.356-6.026 1.892-12.09 2.31-18.25-27.022-11.666-29.348-38.794-18.86-55.92l-1.78-1.896c-6.356 3.391-12.814 5.316-28.523 18.494l.043 21.332c.04 19.284.03 38.073.03 38.073 5.684.63 11.945 1.144 18.12 1.676 0 0-.08 19.07-.221 26.53-.12 6.308.115 5.913.115 5.913l20.448 10.781c-1.437-5.679 2.11-7.934 5.078-7.698-1.312-5.475 1.945-7.98 5.664-7.278 2.512.475 3.392 1.86 4.83 6.437.233.744.554 1.739.554 1.739l1.433-.053c1.794-3.853 2.992-8.754 7.213-9.39 5.524-.832 7.581 2.964 7.579 6.758 5.353-4.716 11.764-1.065 11.347 5.98 2.693-1.73 7.256-3.296 10.131 3.38 1.081-.228 1.632-1.432 3.152-1.81.569-.118 1.858-.81 1.858-.81l.016-.232s1.195-.413 2.797-.676c1.375.513.974.495 1.714-.418.825-.423 2.164-.702 3.196-.609 1.083.097 1.564.175 2.199-.1.988-.433 1.91-.542 2.496.11.42.468 1.028.242 1.68.215 1.305-.052 3.043.484 3.585 1.657.8.815 2.55 1.641 2.55 1.641l1.415-.326.163-.523 11.583-4.421c-23.618-25.861-23.002-60.169-17.439-77.535l2.136 1.027c-1.133 5.147-2.418 10.433-2.25 18.106 21.267 9.482 31.849 33.993 18.954 55.387l1.364 1.762c5.364-2.252 18.857-9.827 23.52-13.944l.993.082s2.828-1.831 4.076-2.808l.168-56.775-.99.26-.177-3.318-17.534-1.392c.223-.166.39-.234.441-.566l-.1-31.43c-.652-.997-15.338-9.6-20.8-11.612-.218 0-.067.368.01 1.267.27 3.083-1.812 5.827-4.223 5.832-.868 0-1.018.37-.975 2.141.061 2.517-.848 4.208-3.499 5.165-3.142 1.134-5.269-.51-7.017-6.974-.46-1.698-1.358-1.274-2.218 1.046-.427 1.151-1.81 3.946-2.635 5.42-.636 1.131-1.642 1.634-3.01 2.236-1.066.527-3.374.436-4.704-.24-2.411-1.225-3.347-2.696-4.042-6.34-.09-.477-.403-.436-1.185.153-4.258 3.207-10.245-.109-10.21-5.655.01-1.628-.056-1.693-1.013-.912-2.887 2.358-6.81 1.162-8.38-2.553-.368-.87-.564-1.258-.85-1.248zm-24.47 1.968c.3-.013 1.238 1.234 1.238 1.234.865.956 2.027 1.44 3.235 2.15.113-.168 14.096 18.598 16.474 44.473l6.504.034c-1.213-25.142-8.147-37.226-11.328-44.981l2.333-.74c5.231 10.023 11.607 30.365 11.395 48.174h-10.742c-1.517-17.838-8.453-35.23-18.154-48.423-.675-1.014-1.204-1.72-1.008-1.9a.082.082 0 0 1 .053-.02zm-4.114 2.655 1.09 3.418s.13-.798.465-1.1c2.123-1.912 4.154.606 3.197 4.023-.218 1.052-.643 3.125-.643 3.125s-2.133-1.094-3.206-1.445c-2.96-1.258-3.947-3.736-1.685-4.018.379-.047 1.157-.082 1.157-.082-.94-.739-3.015-2.429-3.015-2.429zm9.936.384c.894.507 3.202 1.055 4.527.557 1.07-.403 1.886-.182 3-.086.638.055 1.91-.226 1.91-.226 6.36 13.38 10.734 29.254 11.463 43.772l-5.002.029c-1.888-15.423-7.857-31.09-15.432-42.711-.335-.507-.78-1.316-.466-1.335zm20.895.23c1.936.023 3.963 1.954 5.064 5.112.613 1.76.853 1.653 1.675 1.368 2.113-.723 4.362 1.596 1.531 1.983-2.779.459-1.193 5.895-1.43 6.374-1.126.197-3.242-4.424-3.187-5.798.135-3.37-3.03-6.187-4.997-4.771-.932.67-.83 1.144-1.119.902-.885-.744-1.064-2.793-.029-3.955.749-.84 1.611-1.225 2.492-1.215zm57.533 1.162s.11 4.431-.058 5.41c-.33 2.953-4.188 3.264-4.34.902-.63.944-1.063 2.118-1.314 3.173l-2.736-1.882c1.039-.746 2.03-1.4 2.798-2.323-2.029.154-3.162-1.602-1.805-3.096 1.507-1.712 5.676-1.896 7.455-2.184zm-100.6 1.401 1.21 1.364c-10.78 19.11-6.98 43.537 19.042 56.371-.172 5.863-.923 11.793-2.323 17.295l-9.6-4.656c.065-21.606-12.17-42.204-31.7-55.743 7.087-5.694 14.927-10.696 23.372-14.63zm78.606.164c.458 2.522 2.847 7.092 3.02 6.83-.026-.15-9.942 12.702-14.252 34.196l-3.681.014c2.413-14.323 7.23-27.837 14.913-41.04zm30.562.6 1.959 1.185c-10.276 8.604-17.043 19.51-22.013 31.273l-2.597-1.23c7.706-17.061 15.32-24.638 22.651-31.228zm2.741 1.905c.537.034 1.175.715 2.165 1.258.967.53.726.812-1.095 2.208-2.153 1.65-2.356 1.577-2.337-.778.012-1.562.407-2.604 1.161-2.683.035 0 .07-.01.106 0zm-2.366 2.43a.265.265 0 0 1 .263.124c.158.623.142 2.051-.11 3.46-.203.929-2.965 3.26-3.95 4.182-.395.259-.576.164-.648-.298.03-.732.102-1.706.115-2.698 0-.305-.06-.625.216-.859 1.353-1.597 3.323-3.87 4.113-3.912zm5.13.758c.018 0 .028 0 .039.01.255.153.213 3.355.034 3.566-.801.207-2.956-.132-3.509-.427-.12-.372 2.92-3.17 3.437-3.149zm-96.254 1.036.748 3.14s.215-.421.27-.504c1.487-2.276 3.297-.942 3.268 2.217-.01.998-.917 4.987-.917 4.987s-5.585-2.682-6.024-3.859c-.432-1.158.182-2.177 1.21-2.27.384-.044.787-.075 1.229 0l-2.4-2.453zm63.946.418 2.534.936c-5.285 8.597-10.74 17.09-14.712 36.456h-10.622c1.485-11.836 4.496-23.47 9.868-34.795 0 0 2.087-.64 3.264-1.023 0 0-8.78 20.09-9.801 33.005l5.131.11c2.738-12.585 7.863-25.63 14.338-34.689zm-20.112.312c1.427-.053 2.48.95 2.4 2.731-.018 1.629-.168 1.865-1.32 1.215-1.514-.855-2.71-.873-4.066.096-.746.533-1.478.974-1.478.974s.653-2.829 1.656-3.72c.96-.854 1.951-1.264 2.808-1.296zm-5.449 4.186c-.103.957-.385 1.396-.638 2.212 0 0 .831-.323 1.229-.508 1.887-.88 3.855.75 3.826 2.659.085 1.274-1.3 2.8-2.948 2.813-.575 0-1.183-.177-1.77-.615.425 2.334.51 3.413-1.196 4.584-1.428.95-4.436-.136-4.267-2.745l.105-1.608-1.445.187c-4.035.165-4.106-4.802-.85-5.583 1.301-.307 2.713.759 2.713.759-.619-1.218-.631-3.314.201-4.282 2.05-2.382 5.293-.216 5.04 2.127zm35.238-3.101c.22 1.859.959 3.886.748 5.62-.314 2.218-2.2 3.531-3.681 2.093a14.456 14.456 0 0 1-.514-.547c-.668.846-1.085 3.24-1.085 3.24l-2.616-1.613s1.817-1.275 2.319-2.001c.14-.202.206-.586.206-.586-1.456.455-2.691-1.033-2.294-2.347.788-2.152 4.703-2.95 6.917-3.86zm18.283 1.344c.98-.031 2.495.247 3.691.374.921.16.41.68-1.651 2.688-1.893 1.845-1.834 1.671-3.293 1.647-3.407-.057-4.004.019-2.02-2.122 1.039-1.122 1.946-2.135 2.692-2.51a2.4 2.4 0 0 1 .58-.077zm-6.144.389c.043 0 .078.018.11.048.226.21.15 1.171.125 2.592-.026 1.512-.01 1.512-.643 2.304-.807 1.01-1.477 2.041-2.319 3.014-.729.791-.706.706-1.142-1.195-.423-1.844-.187-2.419 2.189-5.093.804-1.032 1.377-1.684 1.68-1.67zm10.642 1.05.029 3.74c-7.032 6.876-11.81 14.609-15.058 23.131l-2.448-.974c4.241-10.89 10.59-19.381 17.477-25.896zm-60.951 2.262a2.105 2.105 0 1 0 .005 4.209 2.105 2.105 0 0 0-.005-4.21zm-.014.662c.802 0 1.454.652 1.454 1.454a1.452 1.452 0 1 1-2.904 0c0-.802.647-1.454 1.45-1.454zm-78.116.888c21.933 14.071 31.767 35.885 31.723 54.624l-1.238-.556c-1.284-26.48-15.677-42.76-31.234-53.295zm129.85.202c.497 0 1.173.079 2.15.192 1.817.097 2.04.211.788 1.646-.343.393-1 1.215-1.464 1.834-.464.618-1.028 1.264-1.286 1.353-.382.132-3.57-.019-4.479-.144-.298-.04.093-.345 1.647-2.563 1.19-1.7 1.316-2.263 2.443-2.314.064 0 .13-.01.201 0zm9.135.72s.435 12.07.12 19.766c-5.003-.185-7.942 1.714-9.163 5.31l-5.256-2.603c3.856-9.905 9.014-16.797 14.299-22.473zm-15.485.278c.284 0 .447.593.528 1.752.33 2.075.295 2.316-.571 3.648-.431.663-1.023 1.6-1.31 2.083-.503.845-.86 1.096-.985.687-.684-2.239-.9-3.624-.657-4.076.4-.742 2.266-3.394 2.53-3.739.182-.239.336-.357.465-.355zm-125.113.226c17.63 10.915 30.528 29.558 31.061 52.08 0 0-3.757-1.763-6.077-3.053l-.12-2.189 1.224-.038.394 2.468 2.693-.086-.716-6.159-4.214.398-.85-3.49 1.277-.273.706 2.251 2.74-.724-1.459-5.487-4.233 1.157-1.354-3.706 1.407-.504 1.137 2.218 2.578-.898-2.434-5.5-3.893 1.838-1.977-3.59 1.521-.812 1.224 2.136 2.41-1.248-2.98-5.059-3.697 2.064-1.857-2.784 1.147-.802 1.267 1.464 2.117-1.497-3.245-4.363-3.538 2.77-2.616-3.03 1.205-1.022 1.8 1.613 2.011-1.757-3.854-4.205-3.37 3.072-2.51-2.179 1.229-1.358 1.564 1.195 1.666-1.973-4.195-3.456-3.144 3.11-3.014-1.992v-1.483c.978.378 2.014.818 2.942 1.31l1.56-2.361-4.502-3.038zm49.1.93.667 3.85c.633-1.046 1.137-1.767 2.505-1.363 1.645.67 1.667 3.146.274 6.936-.258.703-.576 1.31-.576 1.31s-.72-.298-1.2-.628c-1.006-.688-2.7-1.467-3.566-2.832-.907-1.43-.927-3.43.739-3.26.33 0 .984.16.984.16l-2.501-3.188zm-50.07 1.148 3.053 1.968-.633 1.152-2.42-1.09zm76.537.907c.884 1.237-2.228 4.88 1.843 6.336 0 0 .1.839-.749 1.35-1.991 1.447-4.852-1.197-3.964-3.918.567-1.74 2.208-3.758 2.87-3.768zm8.448.115s1.228.897 1.474 1.133c2.266 2.174 2.288 5.29.235 6.38-1.366.724-2.91.14-3.447-.913-.248-.487.16-.996.682-.993.978.01 1.725-1.868 1.435-3.84a18.685 18.685 0 0 0-.379-1.767zm26.746.725s.27 2.664.657 3.845c1.19 3.312-.33 5.328-2.553 4.22-.318-.159-.879-.879-.879-.879l-.22 3.806-3.164-.921c.685-1.1 1.67-1.882 2.405-3.12 0 0-.473-.017-.888-.02-1.89.066-2.586-2.029-.605-3.753 1.476-1.273 5.247-3.178 5.247-3.178zm16.536.883c.383 0 .86.028 1.517.03 2.006 0 2.521-.27 1.637.979a36.144 36.144 0 0 0-1.436 2.304c-.505.936-.607 1.231-1.45 1.416-1.22.241-2.603.075-3.998.139-.303-.015.32-1.054.668-1.7.851-1.581 1.37-2.667 2.102-3 .287-.13.577-.165.96-.167zm-6.202 1.224c.243-.013.422.422.653 1.32.539 2.097.678 2.15-.192 3.87l-1.493 2.947c-.788 1.56-.833 1.545-1.33.148-.952-2.68-1.035-2.404.538-5.414.983-1.88 1.47-2.852 1.824-2.87zm-115.69.735 2.837 2.275-.807.783-1.57-1.157-2.318 2.481 3.811 3.476 3.226-3.178 2.765 2.89-.845.715-1.622-1.565-2.429 2.074 3.624 4.281 3.653-2.784 2.29 3-.937.586-1.492-1.45-2.376 1.647 2.956 4.166 3.725-2.136 2.117 3.48-1.176.566-1.2-1.91-2.674 1.54 2.525 4.873 4.023-1.68 1.617 3.72-1.229.5-1.032-2.238-2.707 1.07 1.815 5.118 4.08-1.172.988 3.802-1.257.35-.62-2.107-2.596.624 1.085 5.136 4.152-.264.494 4.152-1.291.058-.322-2.477-2.645.034c.014.874.116 2.655.116 2.655l-1.599-.74c-2.375-15.787-10.844-28.946-23.462-38.107l-.067-1.886 3.072 1.949s2.817-2.51 3.302-3.15zm121.196 3.682c.88-.01.491.675-.58 2.716-1.197 2.277-1.41 2.324-3.649 2.87-2.724.665-2.644.814-1.171-2.327.568-1.211.982-2.271 1.502-2.674.683-.528 2.006-.326 3.442-.542.18-.027.33-.042.456-.043zm-127.422.672c13.104 8.453 21.388 25.94 22.416 36.542 0 0-.354-.238-1.07-.566-.993-.456-1.237-.755-1.526-2.199-2.596-12.964-9.914-23.966-19.762-31.733zm118.172 2.164c.555-.115 1.565 3.865 1.263 4.7-.217.6-2.166-.817-2.875-1.119-.355-.15 1.238-3.503 1.612-3.58zm-63.192.183-.062 4.128s.497-.59.753-.778c.975-.71 2.464.275 2.52 1.493.078 1.69-.177 2.376-1.53 4.723-.42.726-1.052 1.651-1.052 1.651s-1.598-1.139-3.346-2.88c-1.888-1.88-1.527-4.393.125-4.401.495 0 .936.164 1.368.302-.357-1.216-1.685-3.576-1.685-3.576zm51.221 3.091s.856 1.126 1.838 4.09c.939 2.83-.506 4.96-2.467 3.892-.351-.19-.72-.604-.72-.604-.137 1.371.107 3.84.14 3.859l-3.164-.552s1.738-2.76 1.863-3.442c0 0-.197.154-1.066.154-3.178 0-2.519-3.783 1.152-5.88.551-.315 2.424-1.517 2.424-1.517zm18.221.048c.688-.031.363.635-.398 2.189-.842 1.718-.631 1.57-2.41.662-2.488-1.215-2.34-1.405.811-2.256.997-.368 1.637-.579 1.997-.595zm-45.11.504c2.49.015 4.328 2.473 3.96 5.966-.634 5.998-.27 5.628.383 6.226 1.19 1.09-.42 1.745-1.838.706-.987-.724-1.308-1.438-1.263-4.748.053-3.803-.152-4.772-1.512-4.44-.848.208-1.116.93-1.022 3.495.132 3.6-.106 4.507-1.474 5.66-1.474 1.14-3.064.123-1.718-.63.616-.692.732-1.573.494-3.749-.26-1.853-1.34-8.518 3.99-8.486zm61.589 3.024c.313-.01.628 0 .945.01 4.794.18 16.915 1.166 16.915 1.166l.106 3.581c-.541.333-9.588-1.046-16.243-.921-1.556.029-2.658.716-3.783.139 1.08.448.981 5.85-3.777 4.54-4.036-1.45-2.07-6.907 3.09-8.284a23.8 23.8 0 0 1 2.747-.23zm-26.674 2.4 10.358 5.107c1.45 19.447 8.163 39.992 31.028 55.565-3.704 2.65-12.996 9.16-23.617 13.618l-.868-.931c12.61-21.444 3.083-45.046-18.999-55.728.06-5.952.807-11.824 2.098-17.631zm36.437 3.26c1.986-.079 2.503.15 2.673 1.05.161.851.793 1.05 1.541.778 1.823-.664 2.936 2.569 1.426 4.003-.938.891-.774 1.234 0 1.239 1.904.012 1.848 2.504-.086 3.917-.803.586-.792.852.048 1.267 1.407.694 1.123 2.067-.663 3.197-.971.614-1.003.765-.201.984 2.02.55-.041 3.429-2.251 2.918-.907-.21-1.77-.014-2.636.552-2.367.986-2.763 1.182-5.318.864-2.244-.412-3.246-1.15-3.826-3.12-1.316-4.005-2.735-8.443-2.75-12.816-.198-2.685 4.302-5.113 6.434-5.218 1.736-.261 3.727.367 5.614.384zm-141.683.066a4.31 4.31 0 1 1 0 8.621 4.31 4.31 0 0 1 0-8.62zm47.904 1.267-.388 3.768s.633-.494.782-.619c1.121-.937 2.894.111 2.491 1.57-.13 1.286-2.35 5.107-3.235 5.909 0 0-3.56-3.879-3.94-4.637-.847-1.686.31-3.443 1.847-2.698.22.106.855.576.855.576l-1.128-3.576zm-47.616.303c-1.523.052-2.97.987-2.774 2.232.13.532.942-.236 1.742-.74a2.162 2.162 0 0 1 2.05-.143c.62.22.884.791 1.243 1.233.304.373.637.678.826.495.16-.198.095-.445.053-.668-.329-1.697-1.733-2.452-3.14-2.41zm116.08.585 1.54.788c2.074 27.481 15.97 43.638 30.572 53.26l-1.162.702c-17.918-11.48-30.359-32.047-30.95-54.75zm2.332 1.128s3.87 1.98 5.895 2.895l.077 2.486-1.354.048-.46-2.337-2.814.201.879 5.75 4.536-.556.633 3.475-1.536.322-.787-2.136-2.601.633 1.684 5.588 4.09-1.32 1.282 3.652-1.373.5-.879-2.141-2.692.94 2.083 5.453 4.258-1.368 1.718 3.413-1.291.571-1.234-2.116-2.554 1.305 2.996 5.093 3.845-2.016 1.795 2.722-1.411.945-1.282-1.665-2.069 1.363 3.312 4.522 3.312-2.482 2.477 2.856-1.094.97-1.69-1.714-2.002 1.786 3.946 4.33 3.427-2.977 2.434 2.266-.72.758-1.637-1.022-2.17 2.304 4.143 3.605 3.288-3.605 2.789 2.054v1.517l-2.492-1.262-1.67 2.515 4.162 3.149-.03 1.238c-23.757-14.174-30.008-36.157-31.219-52.508zm-48.639.274c1.028-.03 2.112.935 3.903 3.01 5.006 5.8 3.67 14.77-2.875 19.45-.954.681-1.337.62-2.501-.38-6.714-5.768-7.1-13.481-1.123-20.256 1.033-1.17 1.798-1.8 2.596-1.824zm23.996.797c1.235 1.892 2.793 3.84 2.971 6.14-.089 2.272-1.62 2.69-3.206 1.367-.201 1.194.48 3.519.48 3.519l-2.87-.308s1.125-1.966 1.17-3.196c-1.992 1.388-3.515-.423-3.244-1.882.57-2.483 2.61-4.157 4.699-5.64zm-23.91 1.483c-.234.02-.479.18-.854.48-1.748 1.402-3.122 3.147-3.835 4.959-1.505 3.823-.523 8.133 2.87 11.476 1.725 1.699 2.331 1.583 4.973-1.93 2.214-2.94 2.674-6.74 1.31-10.04-.664-1.611-1.87-3.182-3.316-4.32-.556-.439-.845-.649-1.147-.625zm55.22.706 2.228 1.094c2.841 18.741 12.052 30.175 22.373 38.06l-.02 1.737-2.769-2.145-3.317 3.47-2.688-2.203 1.008-.98 1.531.975 1.959-2.194-3.855-3.436-3.36 2.913-2.798-2.88.85-.71 1.934 1.69 2.165-1.92-3.744-4.2-3.35 2.539-2.338-3.101 1.017-.605 1.224 1.68 2.583-1.608-2.731-4.2-3.893 1.997-1.992-3.59 1.133-.543 1.29 2.016 2.425-1.167-2.439-4.953-3.979 1.315-1.464-3.898 1.138-.417 1.003 2.304 2.693-.864-1.83-5.333-4.113 1.162-1.017-3.922 1.272-.274.667 2.117 2.827-.566-1.037-5.079-4.21.533c-.139-.863-.76-3.187-.748-4.066l1.296-.105.408 2.237 2.832-.096zm-55.07.408c1.543.211 3.428 3.183 3.854 4.262.813 2.134.882 4.607.14 6.523-.608 1.568-2.424 4.348-3.577 5.132-.93.503-1.71.13-3.038-1.676-2.626-3.568-3.134-7.86-1.06-10.8 1.582-2.245 2.756-3.443 3.68-3.441zm58.056.926 1.119.528c1.373 10.86 7.81 25.764 20.476 34.68v1.364c-9.851-7.071-18.895-19.266-21.595-36.572zm-58.253.74c-4.411 3.325-3.706 8.53-.364 12.037 3.6-2.382 4.873-8.816.364-12.037zm-67.32.22c2.488-.058 4.066.81 4.823 2.535 1.177 2.679 1.338 3.187 1.58 4.593a798 798 0 0 0 .47 2.693c1.292 7.28.341 10.024-4.08 11.16-1.32.339-3.16.449-4.445.14-.337-.082-1.573-.09-2.544-.12-1.928-.063-2.517-.267-3.485-1.052-.349-.283-.684-.51-1.104-.576-2.206-.35-2.864-2.37-1.19-3.864.953-.85 1.048-.964.96-1.109-.05-.082-.457-.15-.907-.153-2.224-.014-2.201-2.302.038-3.936 1.064-.777 1.544-1.51.84-1.33-2.028.478-2.743-2.485-.624-3.405 1.128-.63 1.938-1.158.85-1.217-.915.079-1.659-.596-1.38-1.391.34-.964 2.195-1.841 3.266-1.513.836.256 1.651.49 2.174.115 1.269-.912 1.836-1.323 2.928-1.47a13.722 13.722 0 0 1 1.829-.1zm73.954.557 10.224.197-.303 10.027-9.629-.182s2.111-4.48-.292-10.042zm-22.911.23 9.792.12c-1.613 3.78-1.011 7.662-.418 9.85l-9.585-.149zm16.354.015c2.63 1.533 3.355 7.116-.3 9.985-3.479-3.575-2.782-7.927.3-9.985zm-24.159 4.359 2.626.244-.936 3.759s.423-.446.561-.49c3.373-1.584 3.615 2.006.183 5.247-.76.714-1.978 1.694-1.978 1.694s-.955-1.445-1.714-2.75c-.862-1.314-1.448-2.72-1.3-3.466.214-1.083 1.517-1.8 2.347-1.138.409.326.883.821.883.821zm46.877 2.755s1.102 1.13 1.771 1.862c2.319 2.536 2.717 4.91 1.541 5.63-1.01.463-1.635.146-2.448-.513.169 1.572 1.418 3.893 1.387 3.898l-3.46.556s.854-3.15.782-4.339c0 0-.71.547-1.027.682-2.26.825-3.38-1.742-1.522-4.301 1.559-2.147 2.976-3.475 2.976-3.475zm47.276 4.752a4.205 4.205 0 1 1 0 8.41 4.205 4.205 0 0 1 0-8.41zm2.073 1.925c-.18.04-.329.458-.35 1.377-.21 1.887-1.779 2.646-3.494 1.771-.694-.353-1.285-.877-1.287-.475 0 .215.556 1.34.95 1.723 1.455 1.308 4.997.998 4.916-2.05-.038-1.434-.432-2.414-.735-2.346zm-76.344 1.579a1.887 1.887 0 0 1 1.406.542c1.15.785 1.368 1.788 1.44 5.573.064 3.339 0 3.42.547 3.826 1.35.992 2.162-.52 1.776-3.903-.37-3.256.802-5.623 2.77-5.61.968.01 1.148.574.413 1.3-.776.766-.963 1.702-.72 3.585.624 4.826.085 7.195-1.944 8.175-2.116 1.022-4.837-.152-5.314-2.823-.305-1.781-.303-3.893-.09-5.884.037-2.094-.01-2.333-.74-3.533-.516-.806-.131-1.208.456-1.248zm-53.204 1.565c1.17 0 2.385.675 3.11 2.174 1.752 3.617-2.043 6.593-5.524 6.826-6.044.09-13.226-.782-19.292-1.59l.096-3.417c5.567.322 11.843.774 18.605 1.09-.77-3.178 1.056-5.08 3.005-5.083zm31.786.7 3.365.744-2.14 3.5c.634-.275 1.073-.467 1.708-.236 1.37.495 1.39 2.232.384 3.855-.795 1.179-3.03 2.586-4.555 3.451-.857-1.84-2.75-5.06-1.997-6.82.4-.935 1.507-1.39 2.54-.88.34.205.993.538.993.538zm7.954.096 10.253.12c-1.49 10.367-4.407 24.209-10.152 35.492l-2.415.624c5.067-11.211 8.438-21.726 10.013-33.48h-5.126c-2.95 12.615-7.312 24.307-14.021 34.464l-2.981-.97c7.168-11.365 12.849-24.048 14.429-36.25zm23.385.183h11.43c2.102 21.107 9.233 35.512 19.848 49.762 0 0-.67.15-1.066-.02-1.1-1.372-2.109-2.212-3.759-2.634-8.92-12.844-14.905-30.8-16.348-44.535h-6.797c.773 17.252 5.553 31.397 11.913 45.096l-3.45.634c-5.109-12.26-10.708-22.93-11.77-48.303zm17.785 2.606c.94.728 1.956 1.443 2.913 2.136 2.574 1.806 2.54 5.22.038 5.204-.265 0-.883-.038-.883-.038s1.022 2.237 1.666 3.37c-1.043.277-3.221.686-3.221.686s.312-2.198.25-4.018c0 0-.418.467-.764.629-1.66.693-3.063-.755-2.856-2.468.28-2.31 2.856-5.5 2.856-5.5zm-76.355.413 5.626 2.794c-3.834 8.726-8.223 16.896-14.573 23.107l.163-20.165c3.466-.1 7.022-.132 8.784-5.736zm38.468.317h3.46c-1.535 16.099-12.172 37.877-14.169 40.503l-.658.494c.04-.021-1.362-4.937-2.956-6.706 6-8.094 12.289-23.649 14.323-34.291zm24.336 0h5.227c1.629 12.828 5.594 26.686 15.644 43.517 0 0-1.008.101-1.786-.365-1.713-1.062-2.903.344-3.926.29-1.6-.087-1.863-.182-3.514.21-8.293-17.492-10.646-31.26-11.645-43.652zm-56.463 2.88 1.868.878c-4.015 9.286-7.611 16.665-17.122 25.724l-.034-2.698c6.681-6.47 11.183-15 15.288-23.904zm2.717 1.296c.884.333 1.887.88 2.722 1.33.28.111.204.361.206.624-.353.881-1.911 1.268-2.5 1.44-.712.202-1.415.344-1.541.374-.814.19-.557-.624.326-2.41.397-.804.554-1.34.787-1.358zm3.73 1.968c.559-.034 2.816 1.213 3.297 1.66.172.53-.314 1.363-1.027 2.905-1.095 2.37-1.314 2.422-1.641.475-.057-.335-.384-1.443-.581-2.18-.458-1.706-.501-2.687-.048-2.86zm4.085 1.915s1.311.637 1.737.917c-5.856 17.54-21.453 32.038-21.37 31.704l-2.433-1.43c10.38-9.378 17.986-20.453 22.066-31.19zm-6.192.25c.566.012.073.708-.692 2.395-.725 1.652-.963 2.238-1.641 2.5-.973.353-2.37.364-3.61.582-.53.092-.308-.314.509-1.973.959-1.947 1.012-2.351 2.515-2.755.869-.136 2.038-.756 2.919-.75zm2.054 3.485c.604 2.172.591 2.6.187 3.355a84.64 84.64 0 0 1-2.02 3.513c-.683 1.119-.877.886-1.282-1.833-.252-1.687-.472-2.445-.286-3.18.341-.83 1.356-2.788 1.93-3.934.823-2.444 1.263 1.862 1.471 2.079zm10.78-1.896 3.073 1.008-2.41 2.908s1.011-.182 1.128-.134c2.418.16 2.016 2.563.144 4.018-.775.71-4.598 2.448-4.598 2.448-.41-2.15-1.253-3.524-1.051-5.732.141-1.188.247-2.26 1.704-2.294.766-.041 1.076.743 1.574 1.373zm55.69 2.606s1.851.955 3.567 2.275c2.238 1.722 2.62 3.746.384 4.527-.258.09-.993.053-.993.053.616 1.072 2.078 2.668 2.078 2.668-.733.513-1.767.915-2.914 1.272 0 0-.284-2.67-.556-3.7 0 0-.296.583-.663.81-2.155 1.341-3.846-1.185-2.688-4.382.704-1.94 1.786-3.523 1.786-3.523zm-23.687.446c5.38-.13 2.228 8.681-.461 8.112-.046-.08 2.22-5.212-.83-6.028-1.4-.375-.194-2.101 1.29-2.084zm-8.823.624c1.672-.01 2.888 1.17 1.291 1.91-2.513 1.168-1.017 3.965-.96 5.55.035.969-2.238-.845-2.721-2.813-.625-2.545-.336-4.429 2.39-4.647zm-39.797.927c.371 0 .65.028.744.1.157.416-.594 1.716-1.69 3.38-.583.885-.833 1.134-1.19 1.344-.847.476-2.037.352-3.029.422-1.478.02-1.218-.01.418-2.558.73-1.138 1.192-2.07 1.627-2.367.087-.056 2.008-.318 3.12-.321zm1.94 1.838c0 3.187 1.082 4.232.287 5.237-.972 1.566-2.213 3.28-2.664 3.82-.76.913-.674.741-.873-1.645-.144-1.731-.302-2.888-.077-3.428.65-1.562 1.423-2.309 2.227-3.97.63-1.338 1.1-1.114 1.1-.013zm42.47 1.599c1.563.02 2.528 1.682 2.458 3.206l-.067 1.46c2.019-.775 4.525-.023 4.636 1.958.189 3.357-2.285 2.968-4.377 2.827.211.079.52 3.036-.725 4.166-1.953 2.186-5.595-.048-4.68-3.254.19-.666.23-1.085.23-1.085s-1.306.471-1.766.451c-3.962-.17-3.659-5.77.322-5.112a8.67 8.67 0 0 1 1.363.331s-.086-.353-.22-.854c-.58-2.156.636-4.124 2.826-4.094zm79.253.998 2.136 1.229v2.38l-3.038-2.246zm-128.04 1.594c.841-.01 1.503.058 1.372.259 0 .425-1.843 2.986-2.933 4.157-.928.997-1.06.855-3.33.744-.892-.044-1.474-.051-1.45-.288 1.046-1.372 2.488-3.138 3.484-4.613.392-.12 1.774-.249 2.856-.26zm2.078 1.118c.157 0 .205.338.201 1.08 0 .56.077 2.292.159 3.043.148 1.366.148 1.365-.437 2.18-.713.766-1.441 1.895-2.362 2.774-1.382 1.531-1.24 1.618-1.219-1.656.016-2.558-.176-2.558.341-3.158a32.71 32.71 0 0 0 1.742-2.247c.88-1.277 1.345-2.012 1.575-2.016zm13.171.451 2.842 1.517-2.847 2.885s.712 0 .95.043c1.83.355 1.692 2.293-.148 3.74-1.13.713-5.011 2.126-5.011 2.126-.133-1.63-.478-3.129-.413-4.877.028-.807.101-1.684.72-2.381.428-.473 1.143-.749 2.146-.1.526.467.801.998.801.998zm33.533.984a2.016 2.016 0 1 0 0 4.032 2.016 2.016 0 0 0 0-4.032zm31.767.475s3.72 1.398 5.395 2.933c1.565 1.305.829 3.455-.725 3.5-.113 0-.772-.097-.772-.097.526.801 2.29 2.765 2.29 2.765l-2.876 1.167s-.46-2.214-.816-3.456c-1.002 2.314-3.475.808-3.639-.634-.398-2.113.5-4.178 1.143-6.178zm-31.767.178a1.402 1.402 0 1 1 0 2.803 1.402 1.402 0 0 1 0-2.803zm-54.893 2.866a46.24 46.24 0 0 1 2.813.072c.426.327-.466 1.344-2.189 3.153-1.382 1.451-1.586 1.25-3.26 1.263-2.807.022-2.877.04-1.588-1.426 1.412-1.607 2.236-2.641 2.89-2.976.219-.057.733-.08 1.334-.086zm3.422 1.41c.298-.058.217.7.168 2.415l-.082 2.91-2.184 2.102c-2.528 2.262-2.226 2.403-2.208.288.014-1.682 0-2.864.36-3.61 1.104-1.33 2.254-2.508 3.51-3.778.197-.195.337-.306.436-.326zm55.522.726c.609-.051 2.16 2.604 2.55 4.829.887 5.08 3.93 7.488 6.071 5.448.871-1.2.97.11.927.734-.45 6.436-7.743 3.757-8.573-2.635-2.56 1.661-4.948-1.695-3.423-1.642 3.609-1.147 2.622-4.46 2.448-6.734zm-8.448.048c.358 2.226-3.656 6.039-5.913 3.364-1.149-1.36-.102-4.166 1.358-2.438 1.614 1.195 3.18-.191 4.555-.926zm-55.142 3.052c.825-.018 2.018.14 2.539.067.736.074.21.43-1.383 1.882-1.371 1.251-1.763 1.808-1.92 1.262-.076-.845-.043-1.85-.038-3.043.127-.117.427-.16.802-.168zm18.71 1.479 2.448 1.786-2.429 2.236c2.178-.107 2.372 1.935 1.546 3.072-.535.798-2.6 1.639-4.666 1.973-1.243.202-2.256.35-2.256.35s-.047-.957-.082-2.548c-.07-3.254.15-4.535 1.402-5.17.896-.454 2.412.259 2.784 1.09.123.274.446.753.446.753zm-15.754.178h.02c.138.186-.36 5.481-.36 5.481l-3.548-1.997s3.59-3.426 3.888-3.49zm93.88.624c2.526 1.19 4.42.958 6.12 2.433 1.48.775 1.04 2.908-.038 3.384-.49.15-1.296.067-1.296.067.893 1.103 2.85 2.496 2.85 2.496l-3.11 1.301s-.425-2.097-.82-3.24c-.566 1.7-2.484 1.659-3.576.86-.774-.594-1.094-2.58-.725-4.302.097-.454.595-3 .595-3zm11.366 17.256c3.21 4.516 4.997 8.314 5.496 13.982.295 3.495.194 4.148-.634 4.143-.532 0-.761-.267-.758-.864.056-9.49-11.633-11.722-15.984-3.524-2.55 4.806-1.293 11.177 4.19 19.853 5.045 8.216 11.542 14.46 15.24 23.3 3.665-8.777 11.018-16.164 16.273-24.625 7.59-10.878 4.958-22.347-4.407-23.553-4.297-.554-9.006 3.752-9.552 8.208-.122.993-.332 1.286-.878 1.205-.73-.109-.458-2.072-.14-4.69.867-5.006 2.636-9.181 5.501-13.435zm45.346 12.542c.084-.02 2.382 3.18 2.707 4.378.266.976.47 1.986.303 2.41-.202.51-.681.12-1.277-.673-1.638-2.176-4.86-1.48-6.173 1.35-.947 2.038-.42 4.665 1.34 7.646 2.103 3.887 7.246 10.878 7.4 11.515.138-.548 3.415-6.485 6.054-10.42 1.391-2.377 2.432-4.388 2.496-7.527-.321-3.91-4.998-5.52-7.085-2.487-.675.981-1.077 1.28-1.3.48-.152-.54.321-1.706.57-2.952.208-1.04 2.231-3.745 2.28-3.72zm-73.325 19.493c-30.672 7.268-55.585 2.774-58.057 1.915l-1.953 2.914c-.239.495-.385 1.975-1.71 2.376l-1.986 2.966.388.413-1.761 1.536.427.514-1.282 1.862-.504-.053-2.966 4.508.451.504-6.811 10.66 92.146.03c-5.356-10.104-11.086-20.01-16.382-30.145zm-.557 1.31.547 1.522c-1.524-.187-3.303-.28-5.112-.36a48.7 48.7 0 0 0 4.565-1.162zm-5.352 1.325c-2.931 1.345-4.687 2.961-6.034 4.666-1.677-1.302-3.81-2.225-6.355-2.803zm-51.783.74 1.306.148s-.438.34-.75.27c-.238-.055-.556-.418-.556-.418zm58.7.758.83 1.642c-1.996-1.058-10.533-3.48-12.955 5.006-2.55-3.446-13.06-8.44-18.39 2.18-1.515-2.878-10.34-11.156-18.388-.606-3.172-6.557-5.822-7.106-11.645-6.21 4.138-3.977 9.96.162 12.427 3.546 6.944-5.759 12.75-4.028 17.823.658 6.545-7.127 13.072-5.41 17.664-1.834 3.226-4.746 6.377-6.177 12.634-4.382zm-53.612.043c4.126.557 8.253.81 12.38 1.013-2.389.876-4.838 1.631-6.783 3.393-1.473-2.057-3.522-3.252-5.597-4.406zm29.77.658c-2.252 1.06-4.68 2.654-6.624 4.33-2.1-1.71-4.26-3.189-6.615-3.932 4.319.212 9.104.022 13.239-.398zm100.46 2.308v.03-.03zm-74.04 1.061s-.833.14-1.1.211c-3.644.969-2.85 6.102.898 6.101.356 0 1.243-.139 1.243-.139-.071 3.476.985 4.324 4.536 4.128l6.02 10.762-89.042-.384 5.655-9.044c2.843.334 4.632-1.248 3.998-3.662 0 0 1.752.535 2.242.538 3.219.02 4.05-4.92.965-5.775-.343-.095-1.205-.19-1.31-.22 1.41-3.526 5.287-1.445 6.398.018 2.5-2.054 5.262-1.135 6.446 1.527 0 0-.466-.26-.61-.365-2.927-2.141-5.65 2.294-2.783 4.34.282.2.878.374.878.374s-.348.284-.667.82c-1.488 2.503.908 5.551 3.801 4.767 2.222-.87 2.254-2.54 2.252-4.378 0 0 .767.06 1.454.067 2.666.032 3.43-3.382 1.798-4.97-.881-.857-2.034-.79-2.604-.9 3.073-3.018 5.156-.935 7.325.456.328-.01 3.763-4.134 7.848-.082-1.983-.52-4.013.766-4.04 2.83.039 1.328.989 2.501 3.042 2.595-.22.667-.368 1.165-.38 1.813-.04 2.167 1.644 3.515 3.782 3.183 1.787-.229 3.109-2.272 2.472-3.97-.287-.766-.681-1.047-.681-1.047 4.813.603 4.728-5.493.987-5.863-.887-.088-1.57.297-2.466 1.116 2.201-4.5 6.226-3.597 7.733-1.757 2.068-1.502 4.918-3.553 8.328.101-.562-.118-1.353-.146-2.04.036-2.7.717-2.711 4.15-.571 5.194.602.293 1.34.464 2.136.434-.712 2.885 2.491 4.945 4.758 3.564 1.624-.99 2.05-3.327.292-5.46 2.958-.132 3.25-3.819 1.54-5.112-1.34-1.013-2.917-.532-4.06.807-.368-1.059 2.556-4.739 6.686-2.088 2.188-1.834 4.358-2.399 6.84-.567zm1.29 2.88 1.157 2.103c-.77.076-1.873-.749-1.157-2.103zm-14.928 2.136a1.31 1.31 0 1 1 0 2.621 1.31 1.31 0 0 1 0-2.62zm-54.043.077c.174.704.25 1.405-1.027 1.541zm130.902.61v2.933h2.4l6.777 15.61-6.504 10.132h-2.673v2.607h9.312v-2.607h-2.722l8.275-12.634v12.634h-2.376v2.607h8.42v-2.607h-3.073v-25.742h3.072v-2.933h-8.419v2.933h2.376c.058 2.524.072 4.698 0 7.224-1.183 1.578-2.41 3.506-3.71 4.992l-5.232-12.216h3.389v-2.933zm-115.85.657a1.2 1.2 0 1 1 0 2.4 1.2 1.2 0 0 1 0-2.4zm19.974.375a1.272 1.272 0 1 1 0 2.544 1.272 1.272 0 0 1 0-2.544z"/></g></svg>