<svg xmlns="http://www.w3.org/2000/svg" xmlns:xlink="http://www.w3.org/1999/xlink" width="223.228" height="311.811"><defs><pattern patternTransform="matrix(0.70710678,-0.70710678,0.70710678,0.70710678,127.76526,536.84923)" id="b" xlink:href="#a"/><pattern id="a" patternTransform="translate(127.76526,536.84923)" height="17.116" width="16.772" patternUnits="userSpaceOnUse"><path transform="translate(-127.76526,-536.84923) matrix(0.62548599,0,0,0.62548599,47.849879,201.05756)" d="m139.931 538.17-1.53 4.514 2.85 3.82-4.766-.06-2.753 3.891-1.415-4.552-4.552-1.415 3.892-2.752-.06-4.767 3.82 2.851z" style="fill:#d40000;fill-opacity:1;stroke:none"/><path style="fill:#d40000;fill-opacity:1;stroke:none" d="m139.931 538.17-1.53 4.514 2.85 3.82-4.766-.06-2.753 3.891-1.415-4.552-4.552-1.415 3.892-2.752-.06-4.767 3.82 2.851z" transform="translate(-127.76526,-536.84923) matrix(0.312743,0.54168676,-0.54168676,0.312743,392.29373,297.90436)"/><path style="fill:#d40000;fill-opacity:1;stroke:none" d="m139.931 538.17-1.53 4.514 2.85 3.82-4.766-.06-2.753 3.891-1.415-4.552-4.552-1.415 3.892-2.752-.06-4.767 3.82 2.851z" transform="translate(-127.76526,-536.84923) matrix(0.62548599,0,0,-0.62548599,47.849879,889.7568)"/><path transform="translate(-127.76526,-536.84923) matrix(0.312743,-0.54168676,-0.54168676,-0.312743,392.29373,792.91)" d="m139.931 538.17-1.53 4.514 2.85 3.82-4.766-.06-2.753 3.891-1.415-4.552-4.552-1.415 3.892-2.752-.06-4.767 3.82 2.851z" style="fill:#d40000;fill-opacity:1;stroke:none"/></pattern></defs><g transform="translate(-260.43307,-370.27557) translate(811.37551,-119.72681)" style="display:inline"><rect rx="10.63" ry="10.63" y="490.502" x="-550.442" height="310.811" width="222.228" style="fill:#fff;stroke:#000;stroke-width:1;stroke-opacity:1"/><rect ry="0" y="502.586" x="-537.854" height="286.644" width="197.052" style="fill:none;stroke:#d40000;stroke-width:4.95238304;stroke-linecap:round;stroke-linejoin:miter;stroke-miterlimit:4;stroke-dasharray:none;stroke-opacity:1"/><path style="fill:url(#b);fill-opacity:1;stroke:#d40000;stroke-width:1;stroke-linecap:round;stroke-linejoin:miter;stroke-miterlimit:4;stroke-dasharray:none;stroke-opacity:1" d="M-533.467 506.455h188.277v278.906h-188.277z"/></g></svg>