<svg xmlns="http://www.w3.org/2000/svg" width="224.225" height="312.808"><g style="display:inline" transform="translate(-259.93468,-369.77723) translate(-6443.9527,2805.2756)"><rect ry="10.63" rx="10.63" style="display:inline;fill:#fff;fill-opacity:1;stroke:#000;stroke-width:.99673343;stroke-miterlimit:4;stroke-dasharray:none;stroke-opacity:1" width="223.228" height="311.811" x="6704.386" y="-2435"/><g style="fill:#d40000;fill-opacity:1"><path style="fill:#d40000;fill-opacity:1" d="M4881.636-1311.994c32.953-32.158 54.594-67.22 75.29-100.94 18.151 37.103 44.197 69.562 72.365 100.94-30.137 31.118-53.494 64.393-72.274 99.374-20.818-35.859-42.735-68.33-75.38-99.374zm0 217c32.953-32.158 54.594-67.22 75.29-100.94 18.151 37.103 44.197 69.562 72.365 100.94-30.137 31.118-53.494 64.393-72.274 99.374-20.818-35.858-42.735-68.33-75.38-99.374zm0 222.203c32.953-32.158 54.594-67.22 75.29-100.94 18.151 37.103 44.197 69.562 72.365 100.94-30.137 31.118-53.494 64.393-72.274 99.374-20.818-35.859-42.735-68.33-75.38-99.374zm0 216.253c32.953-32.158 54.594-67.22 75.29-100.94 18.151 37.103 44.197 69.562 72.365 100.94-30.137 31.118-53.494 64.393-72.274 99.374-20.818-35.859-42.735-68.33-75.38-99.374zm186.617-541.315c32.952-32.158 54.594-67.22 75.29-100.94 18.15 37.103 44.197 69.562 72.365 100.94-30.137 31.118-53.494 64.393-72.274 99.374-20.819-35.859-42.736-68.33-75.381-99.374zm-1.553 426.297c32.952-32.158 54.594-67.22 75.29-100.94 18.15 37.103 44.197 69.562 72.365 100.94-30.137 31.118-53.495 64.393-72.274 99.374-20.819-35.859-42.736-68.33-75.381-99.374zm185.4-540.438c32.953-32.158 54.595-67.22 75.291-100.94 18.15 37.103 44.197 69.562 72.365 100.94-30.138 31.118-53.495 64.393-72.275 99.374-20.818-35.859-42.735-68.33-75.38-99.374zm0 217c32.953-32.158 54.595-67.22 75.291-100.94 18.15 37.103 44.197 69.562 72.365 100.94-30.138 31.118-53.495 64.393-72.275 99.374-20.818-35.858-42.735-68.33-75.38-99.374zm0 222.203c32.953-32.158 54.595-67.22 75.291-100.94 18.15 37.103 44.197 69.562 72.365 100.94-30.138 31.118-53.495 64.393-72.275 99.374-20.818-35.859-42.735-68.33-75.38-99.374zm0 216.253c32.953-32.158 54.595-67.22 75.291-100.94 18.15 37.103 44.197 69.562 72.365 100.94-30.138 31.118-53.495 64.393-72.275 99.374-20.818-35.859-42.735-68.33-75.38-99.374zm174.464-20.079c13.499-13.173 22.364-27.536 30.842-41.348 7.436 15.198 18.105 28.495 29.644 41.348-12.346 12.748-21.914 26.379-29.607 40.708-8.528-14.689-17.506-27.99-30.879-40.708zM4799.4-1293.956c13.5-13.174 22.364-27.536 30.843-41.35 7.435 15.2 18.105 28.496 29.643 41.35-12.345 12.747-21.913 26.378-29.606 40.707-8.528-14.689-17.507-27.99-30.88-40.707z" transform="matrix(0.30106207,0,0,0.30106207,5267.5599,-1982.7028)"/><path d="M4797.862-1351.724v-104.652h10.332v104.652z" style="display:inline;fill:#d40000;fill-opacity:1" transform="matrix(0.30106207,0,0,0.30106207,5267.5599,-1982.7028)"/><path d="M4838.815-1456.376c-9.945 0-17.94 8.924-17.94 20.004v64.644c0 11.08 7.995 20.004 17.94 20.004h5.796c9.946 0 17.957-8.924 17.957-20.004v-64.644c0-11.08-8.011-20.004-17.956-20.004h-5.797zm2.993 9.892c5.874 0 10.6 4.44 10.6 9.97v65.51c0 5.53-4.726 9.987-10.6 9.987-5.875 0-10.6-4.457-10.6-9.987v-65.51c0-5.53 4.725-9.97 10.6-9.97z" style="display:inline;fill:#d40000;fill-opacity:1;stroke:none" transform="matrix(0.30106207,0,0,0.30106207,5267.5599,-1982.7028)"/><g style="display:inline;fill:#d40000;fill-opacity:1"><path d="M3799.25 1843.75v-207.625h20.5v207.625z" style="display:inline;fill:#d40000;fill-opacity:1" transform="matrix(0.30106207,0,0,0.30106207,5267.5599,-1982.7028) matrix(-0.50404239,0,0,-0.50404239,7403.6384,312.07817)"/><path d="M3880.5 1636.125c-19.731 0-35.594 17.704-35.594 39.688v128.25c0 21.982 15.863 39.687 35.594 39.687h11.5c19.731 0 35.625-17.704 35.625-39.688v-128.25c0-21.982-15.894-39.687-35.625-39.687h-11.5zm5.938 19.625c11.654 0 21.03 8.81 21.03 19.781V1805.5c0 10.97-9.376 19.813-21.03 19.813-11.655 0-21.032-8.842-21.032-19.813v-129.969c0-10.97 9.377-19.781 21.031-19.781z" style="fill:#d40000;fill-opacity:1;stroke:none" transform="matrix(0.30106207,0,0,0.30106207,5267.5599,-1982.7028) matrix(-0.50404239,0,0,-0.50404239,7403.6384,312.07817)"/></g></g></g></svg>