<svg xmlns="http://www.w3.org/2000/svg" width="224.225" height="312.808"><g style="display:inline"><g transform="translate(-259.93468,-369.7772) translate(-1760.0774,-113.66123) translate(-4683.8753,2918.9368)"><rect ry="10.63" rx="10.63" style="display:inline;fill:#fff;fill-opacity:1;stroke:#000;stroke-width:.99673343;stroke-miterlimit:4;stroke-dasharray:none;stroke-opacity:1" width="223.228" height="311.811" x="6704.386" y="-2435"/><path d="M4797.862-1351.724v-104.652h10.332v104.652z" style="display:inline;fill:#d40000;fill-opacity:1" transform="matrix(0.30106207,0,0,0.30106207,5267.5599,-1982.7028)"/><path d="M4838.815-1456.376c-9.945 0-17.94 8.924-17.94 20.004v64.644c0 11.08 7.995 20.004 17.94 20.004h5.796c9.946 0 17.957-8.924 17.957-20.004v-64.644c0-11.08-8.011-20.004-17.956-20.004h-5.797zm2.993 9.892c5.874 0 10.6 4.44 10.6 9.97v65.51c0 5.53-4.726 9.987-10.6 9.987-5.875 0-10.6-4.457-10.6-9.987v-65.51c0-5.53 4.725-9.97 10.6-9.97z" style="display:inline;fill:#d40000;fill-opacity:1;stroke:none" transform="matrix(0.30106207,0,0,0.30106207,5267.5599,-1982.7028)"/><g style="display:inline;fill:#f60302;fill-opacity:1"><path d="M3799.25 1843.75v-207.625h20.5v207.625z" style="display:inline;fill:#d40000;fill-opacity:1" transform="matrix(0.30106207,0,0,0.30106207,5267.5599,-1982.7028) matrix(-0.50404239,0,0,-0.50404239,7403.6384,312.07817)"/><path d="M3880.5 1636.125c-19.731 0-35.594 17.704-35.594 39.688v128.25c0 21.982 15.863 39.687 35.594 39.687h11.5c19.731 0 35.625-17.704 35.625-39.688v-128.25c0-21.982-15.894-39.687-35.625-39.687h-11.5zm5.938 19.625c11.654 0 21.03 8.81 21.03 19.781V1805.5c0 10.97-9.376 19.813-21.03 19.813-11.655 0-21.032-8.842-21.032-19.813v-129.969c0-10.97 9.377-19.781 21.031-19.781z" style="fill:#d40000;fill-opacity:1;stroke:none" transform="matrix(0.30106207,0,0,0.30106207,5267.5599,-1982.7028) matrix(-0.50404239,0,0,-0.50404239,7403.6384,312.07817)"/></g></g><path style="display:inline;fill:#d40000;fill-opacity:1" d="M2029.035 544.076c-1.583-3.472-1.757-9.405 2.97-10.208 3.563-.458 5.012 1.199 5.3 3.742.143.743.562.789.695-.058.205-2.61 2.788-4.133 4.807-3.75 5.526.945 5.204 7.028 3.398 11.155-2.73 5.48-5.6 8.938-8.245 14.452-3.038-5.74-6.507-10.405-8.925-15.333zm34.502-31.816c7.144-.474 10.869 5.627 11.595 10.436.434.764.671.55.837-.042.35-6.174 5.875-11.22 10.993-10.53 8.328.108 13.39 9.375 11.966 17.219-1.738 9.581-6.9 15.35-10.808 21.293-4.42 6.152-10.372 15.04-12.29 19.317 0 0-6.048-9.205-13.917-20.03-5.262-7.238-9.473-15.082-9.865-21.835-.448-7.716 2.72-14.632 11.49-15.828zm56.183 32.665c7.144-.474 10.869 5.628 11.596 10.437.433.764.67.548.836-.043.35-6.174 5.875-11.22 10.993-10.53 8.328.109 13.39 9.376 11.966 17.219-1.738 9.582-6.9 15.351-10.807 21.293-4.422 6.153-10.373 15.04-12.29 19.317 0 0-6.049-9.205-13.918-20.03-5.262-7.238-9.473-15.082-9.865-21.835-.448-7.715 2.72-14.632 11.49-15.828zm55.35-32.665c7.144-.474 10.868 5.627 11.595 10.436.434.764.67.55.837-.042.35-6.174 5.875-11.22 10.993-10.53 8.328.108 13.39 9.375 11.966 17.219-1.738 9.581-6.9 15.35-10.808 21.293-4.421 6.152-10.373 15.04-12.29 19.317 0 0-6.048-9.205-13.917-20.03-5.262-7.238-9.473-15.082-9.865-21.835-.448-7.716 2.72-14.632 11.489-15.828zm0 65.33c7.144-.474 10.868 5.628 11.595 10.437.434.764.67.549.837-.042.35-6.174 5.875-11.22 10.993-10.53 8.328.108 13.39 9.375 11.966 17.218-1.738 9.582-6.9 15.351-10.808 21.293-4.421 6.153-10.373 15.04-12.29 19.317 0 0-6.048-9.204-13.917-20.03-5.262-7.238-9.473-15.082-9.865-21.835-.448-7.715 2.72-14.631 11.489-15.827zm-111.533 0c7.144-.474 10.869 5.628 11.595 10.437.434.764.671.549.837-.042.35-6.174 5.875-11.22 10.993-10.53 8.328.108 13.39 9.375 11.966 17.218-1.738 9.582-6.9 15.351-10.808 21.293-4.42 6.153-10.372 15.04-12.29 19.317 0 0-6.048-9.204-13.917-20.03-5.262-7.238-9.473-15.082-9.865-21.835-.448-7.715 2.72-14.631 11.49-15.827zm111.533 124.39c7.144.475 10.868-5.627 11.595-10.436.434-.764.67-.548.837.043.35 6.174 5.875 11.22 10.993 10.53 8.328-.108 13.39-9.376 11.966-17.219-1.738-9.582-6.9-15.351-10.808-21.293-4.421-6.152-10.373-15.04-12.29-19.317 0 0-6.048 9.205-13.917 20.03-5.262 7.238-9.473 15.082-9.865 21.835-.448 7.716 2.72 14.632 11.489 15.828zm0 65.106c7.144.475 10.868-5.627 11.595-10.436.434-.764.67-.549.837.042.35 6.174 5.875 11.22 10.993 10.53 8.328-.108 13.39-9.375 11.966-17.218-1.738-9.582-6.9-15.352-10.808-21.294-4.421-6.152-10.373-15.04-12.29-19.316 0 0-6.048 9.204-13.917 20.03-5.262 7.238-9.473 15.082-9.865 21.835-.448 7.715 2.72 14.631 11.489 15.827zm-55.817-32.552c7.144.474 10.868-5.628 11.595-10.437.433-.764.67-.549.837.042.35 6.175 5.875 11.22 10.992 10.53 8.328-.108 13.39-9.375 11.967-17.218-1.739-9.582-6.9-15.351-10.808-21.293-4.421-6.153-10.373-15.04-12.29-19.317 0 0-6.048 9.204-13.917 20.03-5.262 7.238-9.473 15.082-9.865 21.835-.448 7.715 2.719 14.632 11.489 15.827zm-55.716-32.554c7.144.475 10.869-5.627 11.595-10.436.434-.764.671-.548.837.043.35 6.174 5.875 11.22 10.993 10.53 8.328-.108 13.39-9.376 11.966-17.219-1.738-9.582-6.9-15.351-10.808-21.293-4.42-6.152-10.372-15.04-12.29-19.317 0 0-6.048 9.205-13.917 20.03-5.262 7.238-9.473 15.082-9.865 21.835-.448 7.716 2.72 14.632 11.49 15.828zm0 65.106c7.144.475 10.869-5.627 11.595-10.436.434-.764.671-.549.837.042.35 6.174 5.875 11.22 10.993 10.53 8.328-.108 13.39-9.375 11.966-17.218-1.738-9.582-6.9-15.352-10.808-21.294-4.42-6.152-10.372-15.04-12.29-19.316 0 0-6.048 9.204-13.917 20.03-5.262 7.238-9.473 15.082-9.865 21.835-.448 7.715 2.72 14.631 11.49 15.827zm154.313-32.152c-1.583 3.472-1.757 9.405 2.97 10.208 3.563.458 5.013-1.198 5.3-3.742.143-.743.563-.788.696.058.204 2.61 2.787 4.133 4.806 3.75 5.527-.945 5.204-7.028 3.399-11.155-2.731-5.48-5.601-8.938-8.246-14.452-3.038 5.741-6.507 10.405-8.925 15.333z" transform="translate(-259.93468,-369.7772) translate(-1760.0774,-113.66123)"/></g></svg>