<svg xmlns="http://www.w3.org/2000/svg" width="224.225" height="312.808"><g style="display:inline" transform="translate(-259.93473,-369.77723) translate(-5997.4961,2805.2756)"><rect ry="10.63" rx="10.63" style="display:inline;fill:#fff;fill-opacity:1;stroke:#000;stroke-width:.99673343;stroke-miterlimit:4;stroke-dasharray:none;stroke-opacity:1" width="223.228" height="311.811" x="6257.929" y="-2435"/><g style="fill:#d40000;fill-opacity:1"><path style="fill:#d40000;fill-opacity:1" d="M3056.574-1323.476c32.952-32.158 54.594-67.22 75.29-100.94 18.15 37.103 44.197 69.562 72.365 100.94-30.137 31.118-53.494 64.393-72.274 99.374-20.819-35.859-42.736-68.33-75.381-99.374zm0 332.982c32.952-32.157 54.594-67.22 75.29-100.939 18.15 37.102 44.197 69.561 72.365 100.94-30.137 31.118-53.494 64.392-72.274 99.373-20.819-35.858-42.736-68.33-75.381-99.374zm0 327.503c32.952-32.158 54.594-67.22 75.29-100.94 18.15 37.103 44.197 69.562 72.365 100.94-30.137 31.118-53.494 64.393-72.274 99.374-20.819-35.859-42.736-68.33-75.381-99.374zm186.616-493.994c32.953-32.158 54.594-67.22 75.291-100.94 18.15 37.103 44.197 69.562 72.365 100.94-30.138 31.118-53.495 64.393-72.275 99.374-20.818-35.859-42.735-68.33-75.38-99.374zm183.848-166.491c32.953-32.158 54.594-67.22 75.29-100.94 18.151 37.103 44.197 69.562 72.365 100.94-30.137 31.118-53.494 64.393-72.274 99.374-20.818-35.859-42.735-68.33-75.38-99.374zm0 332.982c32.953-32.157 54.594-67.22 75.29-100.939 18.151 37.102 44.197 69.561 72.365 100.94-30.137 31.118-53.494 64.392-72.274 99.373-20.818-35.858-42.735-68.33-75.38-99.374zm0 327.503c32.953-32.158 54.594-67.22 75.29-100.94 18.151 37.103 44.197 69.562 72.365 100.94-30.137 31.118-53.494 64.393-72.274 99.374-20.818-35.859-42.735-68.33-75.38-99.374zM3243.19-826.742c32.953-32.158 54.594-67.22 75.291-100.94 18.15 37.103 44.197 69.562 72.365 100.94-30.138 31.118-53.495 64.393-72.275 99.374-20.818-35.859-42.735-68.33-75.38-99.374zm363.374 150.125c13.499-13.173 22.364-27.536 30.843-41.348 7.434 15.198 18.104 28.495 29.643 41.348-12.346 12.748-21.914 26.379-29.607 40.708-8.528-14.689-17.506-27.99-30.879-40.708zM2979.4-1293.956c13.5-13.174 22.364-27.536 30.843-41.35 7.435 15.2 18.105 28.496 29.643 41.35-12.345 12.747-21.913 26.378-29.606 40.707-8.529-14.689-17.507-27.99-30.88-40.707z" transform="matrix(0.30106207,0,0,0.30106207,5370.0941,-1979.9322)"/><path style="display:inline;fill:#d40000;fill-opacity:1" d="M2971.742-1386.815c.532-14.533 5.882-19.99 16.42-27.6-8.405-5.963-11.95-14.737-11.233-22.212 1.732-18.093 15.976-27.144 31.505-26.75 15.529.394 28.913 12.5 29.956 25.648.908 11.437-2.559 16.948-10.82 22.97 9.81 8.11 16.078 13.452 15.84 27.768-.237 14.317-12.64 31.356-34.26 31.879-21.62.523-37.94-17.17-37.408-31.703zm60.362.048c.927-13.16-10.922-22.04-24.292-22.178-13.028-.134-24.683 10.784-24.685 22.6 0 12.691 15.158 19.586 24.948 19.622 11.899.044 23.23-8.71 24.029-20.044zm-4.278-47.078c.258-11.086-10.154-19.03-20.888-18.711-9.551.284-19.668 7.443-19.673 16.71-.01 11.592 11.5 17.38 21.315 17.598 8.903.198 19.05-7.223 19.246-15.597zm639.922 833.281c-.532 14.533-5.882 19.99-16.421 27.6 8.406 5.963 11.95 14.737 11.234 22.212-1.732 18.092-15.976 27.144-31.505 26.75-15.529-.394-28.913-12.501-29.957-25.649-.908-11.437 2.56-16.948 10.82-22.969-9.808-8.11-16.078-13.452-15.84-27.769.238-14.316 12.641-31.355 34.26-31.878 21.62-.523 37.94 17.17 37.409 31.703zm-60.362-.048c-.927 13.16 10.922 22.04 24.292 22.178 13.028.134 24.683-10.784 24.685-22.6 0-12.692-15.158-19.586-24.948-19.622-11.9-.044-23.23 8.71-24.029 20.044zm4.278 47.078c-.259 11.086 10.154 19.03 20.888 18.711 9.551-.284 19.667-7.443 19.672-16.71.01-11.592-11.5-17.38-21.314-17.598-8.903-.198-19.05 7.223-19.246 15.597z" transform="matrix(0.30106207,0,0,0.30106207,5370.0941,-1979.9322)"/></g></g></svg>