<svg xmlns="http://www.w3.org/2000/svg" width="224.225" height="312.808"><g style="display:inline"><g transform="translate(-259.93473,-369.7772) translate(-1313.6208,-113.66123) translate(-4683.8753,2918.9368)"><rect ry="10.63" rx="10.63" style="display:inline;fill:#fff;fill-opacity:1;stroke:#000;stroke-width:.99673343;stroke-miterlimit:4;stroke-dasharray:none;stroke-opacity:1" width="223.228" height="311.811" x="6257.929" y="-2435"/><path style="display:inline;fill:#d40000;fill-opacity:1" d="M2971.742-1386.815c.532-14.533 5.882-19.99 16.42-27.6-8.405-5.963-11.95-14.737-11.233-22.212 1.732-18.093 15.976-27.144 31.505-26.75 15.529.394 28.913 12.5 29.956 25.648.908 11.437-2.559 16.948-10.82 22.97 9.81 8.11 16.078 13.452 15.84 27.768-.237 14.317-12.64 31.356-34.26 31.879-21.62.523-37.94-17.17-37.408-31.703zm60.362.048c.927-13.16-10.922-22.04-24.292-22.178-13.028-.134-24.683 10.784-24.685 22.6 0 12.691 15.158 19.586 24.948 19.622 11.899.044 23.23-8.71 24.029-20.044zm-4.278-47.078c.258-11.086-10.154-19.03-20.888-18.711-9.551.284-19.668 7.443-19.673 16.71-.01 11.592 11.5 17.38 21.315 17.598 8.903.198 19.05-7.223 19.246-15.597zm639.922 833.281c-.532 14.533-5.882 19.99-16.421 27.6 8.406 5.963 11.95 14.737 11.234 22.212-1.732 18.092-15.976 27.144-31.505 26.75-15.529-.394-28.913-12.501-29.957-25.649-.908-11.437 2.56-16.948 10.82-22.969-9.808-8.11-16.078-13.452-15.84-27.769.238-14.316 12.641-31.355 34.26-31.878 21.62-.523 37.94 17.17 37.409 31.703zm-60.362-.048c-.927 13.16 10.922 22.04 24.292 22.178 13.028.134 24.683-10.784 24.685-22.6 0-12.692-15.158-19.586-24.948-19.622-11.9-.044-23.23 8.71-24.029 20.044zm4.278 47.078c-.259 11.086 10.154 19.03 20.888 18.711 9.551-.284 19.667-7.443 19.672-16.71.01-11.592-11.5-17.38-21.314-17.598-8.903-.198-19.05 7.223-19.246 15.597z" transform="matrix(0.30106207,0,0,0.30106207,5370.0941,-1979.9322)"/></g><path style="display:inline;fill:#d40000;fill-opacity:1" d="M1583.636 546.847c-1.583-3.472-1.757-9.406 2.97-10.208 3.563-.459 5.013 1.198 5.3 3.742.143.743.563.788.696-.059.204-2.609 2.787-4.132 4.806-3.75 5.527.946 5.204 7.029 3.398 11.156-2.73 5.48-5.6 8.938-8.245 14.452-3.038-5.741-6.507-10.405-8.925-15.333zm34.978-35.273c7.144-.475 10.869 5.627 11.595 10.436.434.764.671.549.837-.042.35-6.174 5.875-11.22 10.993-10.53 8.328.108 13.39 9.375 11.966 17.219-1.738 9.581-6.9 15.35-10.808 21.293-4.42 6.152-10.372 15.04-12.29 19.316 0 0-6.048-9.204-13.917-20.03-5.262-7.238-9.473-15.081-9.865-21.834-.448-7.716 2.72-14.632 11.49-15.828zm109.533 0c7.144-.475 10.868 5.627 11.595 10.436.434.764.67.549.837-.042.35-6.174 5.875-11.22 10.993-10.53 8.328.108 13.39 9.375 11.966 17.219-1.738 9.581-6.9 15.35-10.808 21.293-4.421 6.152-10.372 15.04-12.29 19.316 0 0-6.048-9.204-13.917-20.03-5.262-7.238-9.473-15.081-9.865-21.834-.448-7.716 2.72-14.632 11.489-15.828zm-55.35 50.124c7.144-.474 10.869 5.627 11.596 10.436.433.764.67.55.836-.042.35-6.174 5.875-11.22 10.993-10.53 8.328.108 13.39 9.375 11.966 17.219-1.738 9.581-6.9 15.35-10.807 21.293-4.422 6.152-10.373 15.04-12.29 19.317 0 0-6.049-9.205-13.918-20.03-5.261-7.238-9.473-15.082-9.865-21.835-.448-7.716 2.72-14.632 11.49-15.828zm-54.183 50.124c7.144-.474 10.869 5.628 11.595 10.437.434.764.671.548.837-.043.35-6.174 5.875-11.22 10.993-10.53 8.328.108 13.39 9.376 11.966 17.219-1.738 9.582-6.9 15.351-10.808 21.293-4.42 6.152-10.372 15.04-12.29 19.317 0 0-6.048-9.205-13.917-20.03-5.262-7.238-9.473-15.082-9.865-21.835-.448-7.716 2.72-14.632 11.49-15.828zm109.533 0c7.144-.474 10.868 5.628 11.595 10.437.434.764.67.548.837-.043.35-6.174 5.875-11.22 10.993-10.53 8.328.108 13.39 9.376 11.966 17.219-1.738 9.582-6.9 15.351-10.808 21.293-4.421 6.152-10.372 15.04-12.29 19.317 0 0-6.048-9.205-13.917-20.03-5.262-7.238-9.473-15.082-9.865-21.835-.448-7.716 2.72-14.632 11.489-15.828zm0 156.092c7.144.475 10.868-5.627 11.595-10.436.434-.764.67-.549.837.042.35 6.174 5.875 11.22 10.993 10.53 8.328-.108 13.39-9.375 11.966-17.219-1.738-9.581-6.9-15.35-10.808-21.293-4.421-6.152-10.372-15.04-12.29-19.317 0 0-6.048 9.205-13.917 20.03-5.262 7.239-9.473 15.082-9.865 21.835-.448 7.716 2.72 14.632 11.489 15.828zm-55.35-49.299c7.144.474 10.869-5.628 11.596-10.437.433-.763.67-.548.836.043.35 6.174 5.875 11.22 10.993 10.53 8.328-.108 13.39-9.376 11.966-17.219-1.738-9.581-6.9-15.351-10.807-21.293-4.422-6.152-10.373-15.04-12.29-19.317 0 0-6.049 9.205-13.918 20.03-5.261 7.238-9.473 15.082-9.865 21.835-.448 7.716 2.72 14.632 11.49 15.828zm-54.183 49.299c7.144.475 10.869-5.627 11.595-10.436.434-.764.671-.549.837.042.35 6.174 5.875 11.22 10.993 10.53 8.328-.108 13.39-9.375 11.966-17.219-1.738-9.581-6.9-15.35-10.808-21.293-4.42-6.152-10.372-15.04-12.29-19.317 0 0-6.048 9.205-13.917 20.03-5.262 7.239-9.473 15.082-9.865 21.835-.448 7.716 2.72 14.632 11.49 15.828zm153.837-30.209c-1.583 3.472-1.757 9.405 2.971 10.208 3.562.458 5.012-1.199 5.3-3.742.142-.743.562-.789.695.058.204 2.61 2.787 4.133 4.806 3.75 5.527-.945 5.204-7.028 3.399-11.156-2.731-5.479-5.6-8.937-8.245-14.451-3.038 5.74-6.508 10.405-8.926 15.333z" transform="translate(-259.93473,-369.7772) translate(-1313.6208,-113.66123)"/></g></svg>