<svg xmlns="http://www.w3.org/2000/svg" width="224.225" height="312.808"><g style="display:inline"><g style="display:inline" transform="translate(-259.9347,-369.7772) translate(-937.54003,-219.67593) translate(-5059.9561,3024.9515)"><rect ry="10.63" rx="10.63" style="display:inline;fill:#fff;fill-opacity:1;stroke:#000;stroke-width:.99673343;stroke-miterlimit:4;stroke-dasharray:none;stroke-opacity:1" width="223.228" height="311.811" x="6257.929" y="-2435"/><path style="display:inline;fill:#000;fill-opacity:1" d="M2971.742-1386.815c.532-14.533 5.882-19.99 16.42-27.6-8.405-5.963-11.95-14.737-11.233-22.212 1.732-18.093 15.976-27.144 31.505-26.75 15.529.394 28.913 12.5 29.956 25.648.908 11.437-2.559 16.948-10.82 22.97 9.81 8.11 16.078 13.452 15.84 27.768-.237 14.317-12.64 31.356-34.26 31.879-21.62.523-37.94-17.17-37.408-31.703zm60.362.048c.927-13.16-10.922-22.04-24.292-22.178-13.028-.134-24.683 10.784-24.685 22.6 0 12.691 15.158 19.586 24.948 19.622 11.899.044 23.23-8.71 24.029-20.044zm-4.278-47.078c.258-11.086-10.154-19.03-20.888-18.711-9.551.284-19.668 7.443-19.673 16.71-.01 11.592 11.5 17.38 21.315 17.598 8.903.198 19.05-7.223 19.246-15.597zm639.922 833.281c-.532 14.533-5.882 19.99-16.421 27.6 8.406 5.963 11.95 14.737 11.234 22.212-1.732 18.092-15.976 27.144-31.505 26.75-15.529-.394-28.913-12.501-29.957-25.649-.908-11.437 2.56-16.948 10.82-22.969-9.808-8.11-16.078-13.452-15.84-27.769.238-14.316 12.641-31.355 34.26-31.878 21.62-.523 37.94 17.17 37.409 31.703zm-60.362-.048c-.927 13.16 10.922 22.04 24.292 22.178 13.028.134 24.683-10.784 24.685-22.6 0-12.692-15.158-19.586-24.948-19.622-11.9-.044-23.23 8.71-24.029 20.044zm4.278 47.078c-.259 11.086 10.154 19.03 20.888 18.711 9.551-.284 19.667-7.443 19.672-16.71.01-11.592-11.5-17.38-21.314-17.598-8.903-.198-19.05 7.223-19.246 15.597z" transform="matrix(0.30106207,0,0,0.30106207,5370.0941,-1979.9322)"/></g><path d="M1250.443 657.786c.015-2.026-1.587-2.065-1.569-.586-.134 7.429-6.416 11.086-10.98 10.219-7.037-1.338-9.282-8.322-9.215-12.436.207-12.696 12.988-22.058 24.52-38.334 8.45 14.69 22.397 26.23 23.223 37.585 1.098 15.099-18.009 20.73-20.737 3.133-.176-1.243-1.64-1.8-1.526-.065.414 4.823-.175 6.832 5.266 18.72h-14.222c3.15-5.555 5.025-12.375 5.24-18.236zm111.532 0c.015-2.026-1.586-2.065-1.568-.586-.134 7.429-6.417 11.086-10.98 10.219-7.037-1.338-9.283-8.322-9.216-12.436.208-12.696 12.988-22.058 24.52-38.334 8.45 14.69 22.398 26.23 23.224 37.585 1.097 15.099-18.01 20.73-20.737 3.133-.176-1.243-1.64-1.8-1.526-.065.414 4.823-.175 6.832 5.265 18.72h-14.221c3.15-5.555 5.025-12.375 5.24-18.236zm-55.349 50.124c.015-2.026-1.587-2.064-1.569-.586-.134 7.429-6.416 11.087-10.98 10.219-7.037-1.338-9.282-8.322-9.215-12.435.207-12.697 12.988-22.059 24.52-38.335 8.45 14.69 22.397 26.23 23.223 37.586 1.098 15.098-18.009 20.73-20.737 3.132-.176-1.243-1.64-1.8-1.526-.065.414 4.823-.175 6.832 5.266 18.72h-14.222c3.15-5.555 5.025-12.375 5.24-18.236zm-56.183 50.124c.015-2.026-1.587-2.064-1.569-.586-.134 7.429-6.416 11.087-10.98 10.22-7.037-1.339-9.282-8.323-9.215-12.436.207-12.697 12.988-22.059 24.52-38.335 8.45 14.69 22.397 26.23 23.223 37.586 1.098 15.098-18.009 20.73-20.737 3.133-.176-1.243-1.64-1.802-1.526-.065.414 4.822-.175 6.83 5.266 18.719h-14.222c3.15-5.555 5.025-12.375 5.24-18.236zm111.532 0c.015-2.026-1.586-2.064-1.568-.586-.134 7.429-6.417 11.087-10.98 10.22-7.037-1.339-9.283-8.323-9.216-12.436.208-12.697 12.988-22.059 24.52-38.335 8.45 14.69 22.398 26.23 23.224 37.586 1.097 15.098-18.01 20.73-20.737 3.133-.176-1.243-1.64-1.802-1.526-.065.414 4.822-.175 6.83 5.265 18.719h-14.221c3.15-5.555 5.025-12.375 5.24-18.236zm.011 75.723c.015 2.026-1.587 2.064-1.568.586-.135-7.429-6.417-11.087-10.981-10.219-7.036 1.338-9.282 8.322-9.215 12.436.207 12.696 12.988 22.058 24.52 38.334 8.45-14.69 22.398-26.23 23.223-37.586 1.098-15.098-18.009-20.73-20.737-3.132-.176 1.243-1.64 1.8-1.526.065.415-4.823-.175-6.832 5.266-18.72h-14.222c3.15 5.555 5.026 12.375 5.24 18.236zm-55.349-49.299c.015 2.025-1.587 2.064-1.569.586-.134-7.43-6.417-11.087-10.98-10.22-7.037 1.338-9.282 8.323-9.215 12.436.207 12.697 12.987 22.059 24.52 38.335 8.45-14.691 22.397-26.23 23.223-37.586 1.097-15.098-18.01-20.73-20.737-3.133-.176 1.243-1.64 1.801-1.526.065.414-4.822-.175-6.831 5.265-18.72h-14.221c3.15 5.556 5.025 12.376 5.24 18.237zm-56.183 49.299c.015 2.026-1.587 2.064-1.57.586-.133-7.429-6.416-11.087-10.98-10.219-7.036 1.338-9.282 8.322-9.214 12.436.207 12.696 12.987 22.058 24.52 38.334 8.45-14.69 22.397-26.23 23.223-37.586 1.097-15.098-18.01-20.73-20.737-3.132-.176 1.243-1.64 1.8-1.526.065.414-4.823-.175-6.832 5.265-18.72h-14.221c3.15 5.555 5.025 12.375 5.24 18.236zM1215.8 661.918c.01-.872-.895-.465-1.018-.19-1.163 1.985-2.864 2.447-4.548 1.731-1.667-.709-2.604-2.28-2.453-4.522.31-3.438 3.035-7.2 4.355-9.326a69.037 69.037 0 0 0 4.076-7.154c1.698 3.363 2.559 4.32 4.405 7.391 1.626 2.705 3.893 5.353 4.068 8.623 0 2.484-1.046 4.831-3.4 5.259-1.33.242-2.578-.442-3.503-2.037-.282-.406-.849-.195-.84.362.166 2.093.956 3.983 2.83 6.212h-6.887c1.41-1.576 2.849-3.704 2.915-6.35zm188.816 172.745c.01.872-.896.465-1.018.19-1.163-1.985-2.865-2.447-4.548-1.731-1.667.709-2.604 2.28-2.454 4.522.31 3.438 3.035 7.2 4.355 9.326a69.037 69.037 0 0 1 4.077 7.154c1.697-3.363 2.558-4.32 4.405-7.391 1.626-2.705 3.892-5.353 4.067-8.623 0-2.485-1.046-4.832-3.4-5.26-1.33-.241-2.578.442-3.503 2.038-.282.406-.849.194-.84-.362.166-2.093.956-3.983 2.83-6.212h-6.887c1.41 1.576 2.849 3.704 2.916 6.35z" style="display:inline;fill:#000;fill-opacity:1" transform="translate(-259.9347,-369.7772) translate(-937.54003,-219.67593)"/></g></svg>